<svg width="22" height="22" viewBox="0 0 22 22" fill="none" xmlns="http://www.w3.org/2000/svg">
<path d="M11 0C4.9255 0 0 4.92454 0 10.9995C0 17.0745 4.92502 21.999 11 21.999C17.0755 21.999 22 17.0745 22 10.9995C22 4.92454 17.0755 0 11 0ZM11 3.28898C11.9649 3.28892 12.8904 3.67218 13.5728 4.35445C14.2551 5.03672 14.6385 5.96212 14.6386 6.92706C14.6386 7.892 14.2554 8.81745 13.5731 9.49981C12.8908 10.1822 11.9654 10.5656 11.0005 10.5656C10.0355 10.5657 9.11009 10.1824 8.42773 9.50016C7.74537 8.81788 7.36199 7.89249 7.36192 6.92755C7.36186 5.9626 7.74512 5.03716 8.42739 4.35479C9.10966 3.67243 10.0351 3.28905 11 3.28898ZM10.9976 19.1232C9.07003 19.1253 7.20532 18.4377 5.74062 17.1847C5.57017 17.0392 5.43327 16.8585 5.33934 16.6551C5.24542 16.4517 5.19671 16.2303 5.19656 16.0062C5.19656 13.9686 6.84565 12.3379 8.88369 12.3379H13.1173C15.1558 12.3379 16.7986 13.9686 16.7986 16.0062C16.7987 16.2302 16.7502 16.4516 16.6563 16.655C16.5625 16.8584 16.4256 17.0389 16.255 17.1842C14.7904 18.4377 12.9254 19.1256 10.9976 19.1232Z" fill="#25123C"/>
</svg>
