<svg width="62" height="62" viewBox="0 0 62 62" fill="none" xmlns="http://www.w3.org/2000/svg">
<path d="M30.625 61.25C47.5387 61.25 61.25 47.5387 61.25 30.625C61.25 13.7113 47.5387 0 30.625 0C13.7113 0 0 13.7113 0 30.625C0 47.5387 13.7113 61.25 30.625 61.25Z" fill="#FFE6F3"/>
<path d="M8.75 26.5126V28.0657C8.75 30.0126 11.1781 33.7095 13.125 33.7095H19.3812C21.4156 33.7095 23.0562 35.3501 23.0562 37.3845V41.147C23.0562 41.9345 23.7125 42.5907 24.5 42.5907H25.2656C25.725 42.5907 26.3594 42.897 26.3594 44.122V49.0439C26.3594 50.3345 27.4094 51.4064 28.7219 51.4064H29.7937C30.4281 51.4064 31.0187 51.1657 31.4562 50.7064L35.175 46.9876L35.3062 41.6939C35.3281 40.972 35.9188 40.4032 36.6406 40.4032H37.3844L41.5625 34.1689C41.7812 33.7314 41.8906 33.2501 41.8906 32.7689V31.9814C41.8906 31.6314 41.6063 31.3251 41.2563 31.2814C39.0906 30.9314 35.2844 29.1595 35.2844 26.9501V25.8564C35.2844 22.7939 37.7869 22.7939 38.4212 22.7939H38.4344C39.0469 22.7939 39.5281 23.297 39.5281 23.8876V25.747C39.5281 26.5345 40.1844 27.1907 40.9719 27.1907H41.7375L44.2531 25.922C45.3687 25.3532 45.5656 23.8439 44.6031 23.0345L44.1 22.6189C43.4219 22.0282 43.8594 20.5845 45.0187 20.5845H48.4094C51.0344 20.5845 52.7844 24.8501 52.7844 27.4751V28.6564C52.7844 29.0282 53.0906 29.3345 53.4625 29.3345H54.2063C54.6875 29.3345 55.125 29.0939 55.3875 28.7001L59.9659 21.8248C58.4006 16.6197 55.4801 11.924 51.5034 8.21867C47.5267 4.51332 42.6367 1.93141 37.3341 0.737305L35.1312 2.99699H32.9219L31.4562 1.53137C30.9969 1.07199 30.3625 0.809492 29.7062 0.809492H26.9062C26.5125 0.809492 26.1406 0.896992 25.8125 1.07199L22.5312 2.71262C22.3537 2.79944 22.203 2.93274 22.0951 3.09837C21.9873 3.26399 21.9263 3.45574 21.9188 3.65324C21.8663 4.70324 21.8859 5.08168 21.9078 5.54105C21.9231 5.83855 21.9406 6.17105 21.9406 6.73762C21.9406 7.41574 22.6187 7.50324 23.1438 7.48137C23.6906 7.43762 24.1281 6.95637 24.1281 6.40949V6.10324C24.1281 5.51262 24.3687 4.96574 24.7625 4.55012L25.375 3.93762C26.6963 3.67074 26.6328 5.03574 26.565 6.48606C26.5475 6.81564 26.5373 7.14012 26.5344 7.45949C26.5344 8.72824 25.6812 9.60324 24.3906 9.60324H20.9344C20.3066 9.59012 19.6437 9.30574 18.9941 9.02793C18.5828 8.85293 18.1759 8.67793 17.7844 8.57512C16.8656 8.35637 15.6188 8.61887 15.6188 10.347V11.0251C15.6188 11.4407 15.2906 11.7907 14.8531 11.7907C14.4702 11.7907 14.103 11.9429 13.8322 12.2136C13.5615 12.4844 13.4094 12.8516 13.4094 13.2345V15.8595C13.4094 16.6251 14.0437 17.2595 14.8312 17.2595H16.1C16.8875 17.2595 17.4344 16.1876 17.4344 15.4001L17.5219 14.7439C17.5219 14.3282 17.85 13.9782 18.2875 13.9782H20.4094C20.6062 13.9782 21.6125 14.0001 22.4 14.6564L23.3625 15.4001C23.8656 15.9032 24.5219 16.1657 25.2219 16.1657H25.5281C26.0312 16.1657 26.4906 15.9251 26.7531 15.5095L28.1094 13.497C28.3719 13.1032 28.8094 12.8845 29.2688 12.8845H30.0781C30.4281 12.8845 30.7125 13.1689 30.7125 13.5189V15.0939C30.7125 15.6845 31.1938 16.1657 31.7844 16.1657H32.5938C33.9719 16.1657 35.1094 17.2814 35.1094 18.6595C35.1094 19.3814 34.3219 19.8189 33.6875 19.447C32.5281 18.747 30.5594 18.2001 29.575 18.4407C28.6125 18.6595 26.5125 20.5626 26.5125 20.5626C26.5125 20.5626 24.0406 21.1314 24.1063 19.8626V19.2501C24.1281 18.6595 23.5594 18.397 23.0562 18.397H20.7812C20.1031 18.397 19.4469 18.6595 18.9656 19.1407L18.2656 19.8407C17.7844 20.322 17.15 20.5845 16.4719 20.5845H14.1531C13.3875 20.5626 12.6437 20.8689 12.1187 21.4157L9.77812 23.8876C9.12187 24.5876 8.75 25.5282 8.75 26.5126ZM42.7219 41.5626C42.0875 41.5626 41.5625 42.0876 41.5625 42.722V45.0407C41.5625 45.6751 42.0875 46.2001 42.7219 46.2001C43.3563 46.2001 43.8812 45.6751 43.8812 45.0407V42.722C43.8812 42.0657 43.3563 41.5626 42.7219 41.5626Z" fill="#F61067"/>
</svg>
