<svg width="17" height="17" viewBox="0 0 17 17" fill="none" xmlns="http://www.w3.org/2000/svg">
<path d="M15.8333 7.5H13.1917L15.3083 5.38333C15.6333 5.05833 15.6333 4.53333 15.3083 4.20833C14.9833 3.88333 14.45 3.88333 14.125 4.20833L10.8333 7.5H9.16667V5.83333L12.4583 2.54167C12.7833 2.21667 12.7833 1.68333 12.4583 1.35833C12.1333 1.03333 11.6083 1.03333 11.2833 1.35833L9.16667 3.475V0.833333C9.16667 0.375 8.79167 0 8.33333 0C7.875 0 7.5 0.375 7.5 0.833333V3.475L5.38333 1.35833C5.05833 1.03333 4.53333 1.03333 4.20833 1.35833C3.88333 1.68333 3.88333 2.21667 4.20833 2.54167L7.5 5.83333V7.5H5.83333L2.54167 4.20833C2.21667 3.88333 1.68333 3.88333 1.35833 4.20833C1.03333 4.53333 1.03333 5.05833 1.35833 5.38333L3.475 7.5H0.833333C0.375 7.5 0 7.875 0 8.33333C0 8.79167 0.375 9.16667 0.833333 9.16667H3.475L1.35833 11.2833C1.03333 11.6083 1.03333 12.1333 1.35833 12.4583C1.68333 12.7833 2.21667 12.7833 2.54167 12.4583L5.83333 9.16667H7.5V10.8333L4.20833 14.125C3.88333 14.45 3.88333 14.9833 4.20833 15.3083C4.53333 15.6333 5.05833 15.6333 5.38333 15.3083L7.5 13.1917V15.8333C7.5 16.2917 7.875 16.6667 8.33333 16.6667C8.79167 16.6667 9.16667 16.2917 9.16667 15.8333V13.1917L11.2833 15.3083C11.6083 15.6333 12.1333 15.6333 12.4583 15.3083C12.7833 14.9833 12.7833 14.45 12.4583 14.125L9.16667 10.8333V9.16667H10.8333L14.125 12.4583C14.45 12.7833 14.9833 12.7833 15.3083 12.4583C15.6333 12.1333 15.6333 11.6083 15.3083 11.2833L13.1917 9.16667H15.8333C16.2917 9.16667 16.6667 8.79167 16.6667 8.33333C16.6667 7.875 16.2917 7.5 15.8333 7.5Z" fill="white"/>
</svg>
