<svg width="20" height="22" viewBox="0 0 20 22" fill="none" xmlns="http://www.w3.org/2000/svg">
<path d="M15.4718 7.99284H14.7878V10.7395H15.014C15.7725 10.7395 16.3874 11.3544 16.3874 12.1129V15.164C16.3874 15.9225 15.7725 16.5374 15.014 16.5374H14.7878V19.2841H15.4718C17.4944 19.2841 19.1341 17.6444 19.1341 15.6218V11.6551C19.1341 9.63251 17.4944 7.99284 15.4718 7.99284ZM11.9949 0.931726C11.4787 0.901218 10.9938 1.02669 10.5828 1.26537C10.2113 1.48112 9.73487 1.39243 9.45855 1.06342C8.91237 0.41327 8.0934 0 7.17787 0C6.2623 0 5.44333 0.413269 4.8972 1.06347C4.62087 1.39243 4.14452 1.48112 3.77302 1.26537C3.36203 1.02673 2.87721 0.901218 2.36103 0.931726C1.08689 1.00701 0.0611971 2.04731 0.00271723 3.32236C-0.0326887 4.0942 0.280379 4.79355 0.797674 5.27711H3.60368V8.90575C3.60368 9.66422 4.21856 10.2791 4.97703 10.2791C5.73551 10.2791 6.35039 9.66422 6.35039 8.90575V5.27711H13.558C14.0753 4.79355 14.3884 4.09428 14.353 3.32248C14.2946 2.04748 13.269 1.00713 11.9949 0.931726Z" fill="white"/>
<path d="M7.64188 8.90595C7.64188 10.374 6.44754 11.5684 4.97948 11.5684C3.51142 11.5684 2.31708 10.374 2.31708 8.90595V6.56641H0.859375V20.6266C0.859375 21.3851 1.47425 22 2.23273 22H12.1278C12.8863 22 13.5012 21.3851 13.5012 20.6266V6.56641H7.64188V8.90595Z" fill="white"/>
</svg>
