<svg width="43" height="18" viewBox="0 0 43 18" fill="none" xmlns="http://www.w3.org/2000/svg">
<path d="M8.01931 2.3211C8.51887 1.69624 8.85782 0.85732 8.76848 0C8.03721 0.0363812 7.14483 0.482485 6.62821 1.10776C6.16428 1.64329 5.75373 2.51735 5.8608 3.3387C6.68158 3.40989 7.50177 2.9284 8.01931 2.3211ZM8.75912 3.49906C7.56699 3.42804 6.55337 4.17563 5.98403 4.17563C5.41445 4.17563 4.54263 3.53486 3.5997 3.5521C2.37243 3.57016 1.23368 4.26406 0.610889 5.36767C-0.670077 7.57549 0.27285 10.8505 1.51851 12.6486C2.1234 13.5381 2.85252 14.5177 3.8131 14.4824C4.72072 14.4468 5.07649 13.8947 6.1797 13.8947C7.28215 13.8947 7.60262 14.4824 8.56337 14.4646C9.55975 14.4468 10.1826 13.5746 10.7875 12.6841C11.4815 11.67 11.7656 10.6908 11.7834 10.6371C11.7655 10.6192 9.86215 9.88905 9.8445 7.69964C9.82652 5.8664 11.3389 4.99433 11.4101 4.9403C10.5561 3.67732 9.22171 3.53486 8.75912 3.49906ZM19.1394 1.01801C21.7305 1.01801 23.5347 2.80409 23.5347 5.40447C23.5347 8.01414 21.6932 9.80949 19.0744 9.80949H16.2056V14.3717H14.1328V1.01801H19.1394ZM16.2055 8.06966H18.5838C20.3884 8.06966 21.4155 7.09806 21.4155 5.41375C21.4155 3.72961 20.3884 2.76712 18.5931 2.76712H16.2055V8.06966ZM24.0763 11.6049C24.0763 9.90198 25.3811 8.85629 27.6948 8.72676L30.3598 8.56947V7.81997C30.3598 6.73723 29.6287 6.08941 28.4074 6.08941C27.2504 6.08941 26.5285 6.64458 26.3529 7.51458H24.4651C24.5761 5.75618 26.0752 4.46063 28.4814 4.46063C30.8411 4.46063 32.3495 5.70994 32.3495 7.66251V14.3717H30.4338V12.7708H30.3877C29.8232 13.8536 28.5923 14.5383 27.3153 14.5383C25.4089 14.5383 24.0763 13.3537 24.0763 11.6049ZM30.3598 10.7257V9.95767L27.9629 10.1057C26.7691 10.1891 26.0936 10.7165 26.0936 11.5494C26.0936 12.4007 26.7969 12.956 27.8704 12.956C29.2677 12.9558 30.3598 11.9934 30.3598 10.7257ZM34.1579 17.9532V16.3337C34.3058 16.3706 34.6388 16.3706 34.8055 16.3706C35.7308 16.3706 36.2306 15.982 36.5359 14.9826C36.5359 14.964 36.7119 14.3903 36.7119 14.381L33.1954 4.63641H35.3606L37.8225 12.558H37.8593L40.3212 4.63641H42.4309L38.7845 14.8807C37.952 17.2406 36.9895 17.9994 34.9721 17.9994C34.8055 17.9994 34.3057 17.9808 34.1579 17.9532Z" fill="white"/>
</svg>
