<svg width="38" height="44" viewBox="0 0 38 44" fill="none" xmlns="http://www.w3.org/2000/svg">
<rect x="0.5" y="0.5" width="37" height="43" rx="7.5" fill="white"/>
<rect x="0.5" y="0.5" width="37" height="43" rx="7.5" stroke="white"/>
<path d="M23.1062 21.4062C23.1062 21.4688 23.0125 23.3125 25.0437 24.2812C24.6687 25.4375 23.3562 28 21.825 28C20.95 28 20.45 27.4375 19.45 27.4375C18.4187 27.4375 17.8562 28 17.075 28C15.575 28.0625 14.1375 25.25 13.7312 24.0938C13.4187 23.2188 13.2937 22.375 13.2937 21.5625C13.2937 18.7812 15.1375 17.4375 16.8875 17.4062C17.7312 17.4062 18.7937 18 19.2625 18C19.7 18 20.9187 17.2812 22.0437 17.375C23.2 17.4688 24.075 17.9062 24.6687 18.75C23.6375 19.4062 23.1062 20.25 23.1062 21.4062ZM21.3562 16.2812C20.7312 17 19.9812 17.4062 19.1687 17.3438C19.1062 16.5 19.4187 15.7188 19.9812 15.0938C20.4812 14.5312 21.3562 14.0625 22.1062 14C22.1062 14.3438 22.2 15.2812 21.3562 16.2812Z" fill="#0D0D20"/>
</svg>
