<svg width="13" height="16" viewBox="0 0 13 16" fill="none" xmlns="http://www.w3.org/2000/svg">
<path d="M9.20764 0H9.3168C9.40439 1.08214 8.99135 1.89072 8.48936 2.47626C7.9968 3.05776 7.32231 3.62174 6.23141 3.53616C6.15864 2.46952 6.57236 1.72092 7.07368 1.13672C7.53861 0.592281 8.39098 0.10781 9.20764 0ZM12.51 11.2634V11.2938C12.2034 12.2223 11.7661 13.018 11.2324 13.7565C10.7453 14.427 10.1483 15.3292 9.08231 15.3292C8.16121 15.3292 7.54939 14.7369 6.60538 14.7208C5.60679 14.7046 5.05763 15.216 4.14462 15.3447H3.83332C3.16287 15.2477 2.6218 14.7167 2.22762 14.2383C1.0653 12.8247 0.167105 10.9986 0 8.66185V7.97524C0.0707502 6.30284 0.883367 4.94308 1.96349 4.2841C2.53353 3.93371 3.31718 3.63521 4.18976 3.76863C4.56373 3.82658 4.94578 3.9546 5.28066 4.08128C5.59803 4.20324 5.9949 4.41953 6.37089 4.40808C6.62559 4.40067 6.87895 4.26792 7.13567 4.17426C7.88764 3.90272 8.62479 3.59142 9.59643 3.73763C10.7641 3.91417 11.5929 4.43301 12.105 5.2335C11.1172 5.86216 10.3363 6.80954 10.4697 8.42736C10.5883 9.89695 11.4427 10.7567 12.51 11.2634Z" fill="black"/>
</svg>
