<svg width="16" height="16" viewBox="0 0 16 16" fill="none" xmlns="http://www.w3.org/2000/svg">
<g clip-path="url(#clip0_348_3389)">
<path d="M8 12.7119C4.42627 12.7119 1.52539 9.81104 1.52539 6.2373C1.52539 2.66357 4.42627 -0.237305 8 -0.237305C11.5737 -0.237305 14.4746 2.66357 14.4746 6.2373C14.4746 9.81104 11.5737 12.7119 8 12.7119ZM8 11.6328C10.9834 11.6328 13.3955 9.2207 13.3955 6.2373C13.3955 3.25391 10.9834 0.841797 8 0.841797C5.0166 0.841797 2.60449 3.25391 2.60449 6.2373C2.60449 9.2207 5.0166 11.6328 8 11.6328ZM11.1992 6.23096C11.1992 6.35791 11.1548 6.47217 11.0278 6.59912L9.00928 8.69385C8.91406 8.78906 8.8125 8.83984 8.6792 8.83984C8.41895 8.83984 8.23486 8.64941 8.23486 8.38281C8.23486 8.26221 8.2793 8.12256 8.38721 8.03369L9.41553 7.06885L9.80908 6.69434L8.85693 6.73242H5.28955C5.02295 6.73242 4.79443 6.50391 4.79443 6.23096C4.79443 5.95801 5.02295 5.72314 5.28955 5.72314H8.85693L9.80908 5.76758L9.41553 5.39307L8.38721 4.42822C8.2793 4.33936 8.23486 4.20605 8.23486 4.08545C8.23486 3.81885 8.41895 3.62207 8.6792 3.62207C8.8125 3.62207 8.91406 3.67285 9.00928 3.76807L11.0278 5.86279C11.1548 5.98975 11.1992 6.09766 11.1992 6.23096Z" fill="#25123C"/>
</g>
<defs>
<clipPath id="clip0_348_3389">
<rect width="16" height="16" fill="white" transform="matrix(1 0 0 -1 0 16)"/>
</clipPath>
</defs>
</svg>
