<svg width="34" height="34" viewBox="0 0 34 34" fill="none" xmlns="http://www.w3.org/2000/svg">
<path d="M17 34C7.62636 34 0 26.3736 0 17C0 7.62636 7.62636 0 17 0C26.3736 0 34 7.62636 34 17C34 26.3736 26.3736 34 17 34ZM17 2.125C8.79777 2.125 2.125 8.79777 2.125 17C2.125 25.2022 8.79777 31.875 17 31.875C25.2022 31.875 31.875 25.2022 31.875 17C31.875 8.79777 25.2022 2.125 17 2.125ZM24.1262 17.7512C24.2249 17.6526 24.3032 17.5355 24.3567 17.4066C24.4101 17.2777 24.4376 17.1395 24.4376 17C24.4376 16.8605 24.4101 16.7223 24.3567 16.5934C24.3032 16.4645 24.2249 16.3474 24.1262 16.2488L18.8137 10.9363C18.6062 10.7289 18.3342 10.625 18.0625 10.625C17.7908 10.625 17.5188 10.7289 17.3113 10.9363C17.2126 11.0349 17.1343 11.152 17.0808 11.2809C17.0274 11.4098 16.9999 11.548 16.9999 11.6875C16.9999 11.827 17.0274 11.9652 17.0808 12.0941C17.1343 12.223 17.2126 12.3401 17.3113 12.4387L20.8101 15.9375H10.625C10.0382 15.9375 9.5625 16.4127 9.5625 17C9.5625 17.5873 10.0382 18.0625 10.625 18.0625H20.8101L17.3113 21.5613C16.8961 21.9765 16.8961 22.6488 17.3113 23.0637C17.7265 23.4786 18.3988 23.4789 18.8137 23.0637L24.1262 17.7512Z" fill="white"/>
</svg>
