<svg width="28" height="28" viewBox="0 0 28 28" fill="none" xmlns="http://www.w3.org/2000/svg">
<path d="M2.33398 14.0007C2.33398 20.4442 7.55715 25.6673 14.0007 25.6673C20.4442 25.6673 25.6673 20.4442 25.6673 14.0007C25.6673 7.55715 20.4442 2.33398 14.0007 2.33398C9.21732 2.33398 5.10482 5.21332 3.30465 9.33398M2.33398 5.25065L2.91732 9.91732L7.58398 8.75065" stroke="black" stroke-width="1.5" stroke-linecap="round" stroke-linejoin="round"/>
<path d="M17.1815 11.7373C17.0648 10.8483 16.0463 9.40982 14.2123 9.40982C12.082 9.40982 11.186 10.5928 11.004 11.1832C10.7205 11.9742 10.7765 13.5993 13.2743 13.7767C16.3952 13.9983 17.6458 14.3682 17.486 16.2815C17.3273 18.1948 15.5878 18.609 14.2123 18.5647C12.8368 18.5203 10.5875 17.888 10.5 16.1847M13.9942 7.58398V9.41565M13.9942 18.5542V20.4173" stroke="black" stroke-width="1.5" stroke-linecap="round"/>
</svg>
