<svg width="21" height="22" viewBox="0 0 21 22" fill="none" xmlns="http://www.w3.org/2000/svg">
<path d="M2.89154 21.8077H18.1085C19.7036 21.8077 21 20.5113 21 18.9161V4.5069C21 2.91171 19.7036 1.61535 18.1085 1.61535H16.9615V0.807677C16.9615 0.363441 16.598 0 16.1538 0C15.7096 0 15.3461 0.363441 15.3461 0.807677V1.61535H5.65387V0.807677C5.65387 0.363441 5.29036 0 4.84613 0C4.40189 0 4.03845 0.363441 4.03845 0.807677V1.61535H2.89154C1.29636 1.61535 0 2.91171 0 4.5069V18.9161C0 20.5113 1.29636 21.8077 2.89154 21.8077ZM1.61542 4.5069C1.61542 3.80423 2.18887 3.23077 2.89154 3.23077H4.03845V4.03845C4.03845 4.48269 4.40189 4.84613 4.84613 4.84613C5.29036 4.84613 5.6538 4.48269 5.6538 4.03845V3.23077H15.3461V4.03845C15.3461 4.48269 15.7096 4.84613 16.1538 4.84613C16.598 4.84613 16.9615 4.48269 16.9615 4.03845V3.23077H18.1084C18.8111 3.23077 19.3845 3.80423 19.3845 4.5069V6.86539H1.61542V4.5069ZM1.61542 8.48074H19.3846V18.9161C19.3846 19.6188 18.8112 20.1923 18.1085 20.1923H2.89154C2.18887 20.1923 1.61542 19.6188 1.61542 18.9161V8.48074Z" fill="white"/>
</svg>
