<svg width="35" height="36" viewBox="0 0 35 36" fill="none" xmlns="http://www.w3.org/2000/svg">
<path d="M26.25 0.416992C26.4875 0.416992 26.7158 0.510841 26.8838 0.678711C27.0518 0.846712 27.1465 1.07491 27.1465 1.3125V4.45996L27.5293 4.49121C30.0187 4.69189 31.5471 5.17436 32.6543 6.2832H32.6553C33.6957 7.32212 34.1851 8.73048 34.4072 10.958H0.594727C0.816889 8.73185 1.30536 7.32205 2.3457 6.2832H2.34668C3.45384 5.17449 4.98012 4.6921 7.4707 4.49316L7.85449 4.46191V1.3125C7.85449 1.07491 7.94919 0.846712 8.11719 0.678711C8.28506 0.510983 8.51269 0.417104 8.75 0.416992C8.98749 0.416992 9.21581 0.510841 9.38379 0.678711C9.55179 0.846712 9.64648 1.07491 9.64648 1.3125V4.38477L10.0713 4.37695C11.23 4.35431 12.5309 4.35449 14 4.35449H21C22.4694 4.35449 23.7709 4.3543 24.9297 4.37695L25.3545 4.38477V1.3125C25.3545 1.07491 25.4492 0.846711 25.6172 0.678711C25.7851 0.510984 26.0127 0.417103 26.25 0.416992Z" fill="#F70075" stroke="#F70075" stroke-width="0.833333"/>
<path d="M34.5645 14.417C34.5801 15.471 34.583 16.6384 34.583 17.9375V21.4375C34.583 24.7488 34.5828 27.1906 34.3311 29.0625C34.0809 30.9225 33.5894 32.1575 32.6543 33.0918C31.7191 34.0262 30.4837 34.5172 28.624 34.7676C26.7524 35.0195 24.3111 35.0205 21 35.0205H14C10.6887 35.0205 8.24692 35.0203 6.375 34.7686C4.51502 34.5184 3.27998 34.0269 2.3457 33.0918C1.41132 32.1566 0.920281 30.9212 0.669922 29.0615C0.418002 27.1899 0.416992 24.7486 0.416992 21.4375V17.9375C0.416992 16.6384 0.41989 15.471 0.435547 14.417H34.5645ZM8.75 24.5205C8.17537 24.5205 7.6241 24.7489 7.21777 25.1553C6.81145 25.5616 6.58301 26.1129 6.58301 26.6875C6.58301 27.2621 6.81144 27.8134 7.21777 28.2197C7.6241 28.6261 8.17537 28.8545 8.75 28.8545C9.32463 28.8545 9.8759 28.6261 10.2822 28.2197C10.6886 27.8134 10.917 27.2621 10.917 26.6875C10.917 26.1129 10.6886 25.5616 10.2822 25.1553C9.8759 24.7489 9.32463 24.5205 8.75 24.5205ZM17.5 24.5205C16.9254 24.5205 16.3741 24.7489 15.9678 25.1553C15.5614 25.5616 15.333 26.1129 15.333 26.6875C15.333 27.2621 15.5614 27.8134 15.9678 28.2197C16.3741 28.6261 16.9254 28.8545 17.5 28.8545C18.0746 28.8545 18.6259 28.6261 19.0322 28.2197C19.4386 27.8134 19.667 27.2621 19.667 26.6875C19.667 26.1129 19.4386 25.5616 19.0322 25.1553C18.6259 24.7489 18.0746 24.5205 17.5 24.5205ZM26.25 24.5205C25.6754 24.5205 25.1241 24.7489 24.7178 25.1553C24.3114 25.5616 24.083 26.1129 24.083 26.6875C24.083 27.2621 24.3114 27.8134 24.7178 28.2197C25.1241 28.6261 25.6754 28.8545 26.25 28.8545C26.8246 28.8545 27.3759 28.6261 27.7822 28.2197C28.1886 27.8134 28.417 27.2621 28.417 26.6875C28.417 26.1129 28.1886 25.5616 27.7822 25.1553C27.3759 24.7489 26.8246 24.5205 26.25 24.5205ZM8.75 17.5205C8.17536 17.5205 7.6241 17.7489 7.21777 18.1553C6.81144 18.5616 6.58301 19.1129 6.58301 19.6875C6.58301 20.2621 6.81144 20.8134 7.21777 21.2197C7.6241 21.6261 8.17536 21.8545 8.75 21.8545C9.32464 21.8545 9.8759 21.6261 10.2822 21.2197C10.6886 20.8134 10.917 20.2621 10.917 19.6875C10.917 19.1129 10.6886 18.5616 10.2822 18.1553C9.8759 17.7489 9.32464 17.5205 8.75 17.5205ZM17.5 17.5205C16.9254 17.5205 16.3741 17.7489 15.9678 18.1553C15.5614 18.5616 15.333 19.1129 15.333 19.6875C15.333 20.2621 15.5614 20.8134 15.9678 21.2197C16.3741 21.6261 16.9254 21.8545 17.5 21.8545C18.0746 21.8545 18.6259 21.6261 19.0322 21.2197C19.4386 20.8134 19.667 20.2621 19.667 19.6875C19.667 19.1129 19.4386 18.5616 19.0322 18.1553C18.6259 17.7489 18.0746 17.5205 17.5 17.5205ZM26.25 17.5205C25.6754 17.5205 25.1241 17.7489 24.7178 18.1553C24.3114 18.5616 24.083 19.1129 24.083 19.6875C24.083 20.2621 24.3114 20.8134 24.7178 21.2197C25.1241 21.6261 25.6754 21.8545 26.25 21.8545C26.8246 21.8545 27.3759 21.6261 27.7822 21.2197C28.1886 20.8134 28.417 20.2621 28.417 19.6875C28.417 19.1129 28.1886 18.5616 27.7822 18.1553C27.3759 17.7489 26.8246 17.5205 26.25 17.5205Z" fill="#F70075" stroke="#F70075" stroke-width="0.833333"/>
</svg>
