<svg width="24" height="24" viewBox="0 0 24 24" fill="none" xmlns="http://www.w3.org/2000/svg">
<path d="M0.75 11.5833C0.75 17.5666 5.60008 22.4167 11.5833 22.4167C17.5666 22.4167 22.4167 17.5666 22.4167 11.5833C22.4167 5.60008 17.5666 0.75 11.5833 0.75C7.14167 0.75 3.32292 3.42367 1.65133 7.25M0.75 3.45833L1.29167 7.79167L5.625 6.70833" stroke="#25123C" stroke-width="1.5" stroke-linecap="round" stroke-linejoin="round"/>
<path d="M14.5363 9.48167C14.4279 8.65617 13.4822 7.32042 11.7792 7.32042C9.80103 7.32042 8.96903 8.41892 8.80003 8.96708C8.53678 9.70158 8.58878 11.2107 10.9082 11.3753C13.8061 11.5812 14.9674 11.9246 14.819 13.7013C14.6717 15.4779 13.0564 15.8625 11.7792 15.8213C10.5019 15.7802 8.41328 15.193 8.33203 13.6113M11.5766 5.625V7.32583M11.5766 15.8116V17.5417" stroke="#25123C" stroke-width="1.5" stroke-linecap="round"/>
</svg>
