<svg width="16" height="16" viewBox="0 0 16 16" fill="none" xmlns="http://www.w3.org/2000/svg">
<path d="M2.33203 7.33324C2.06681 7.33324 1.81246 7.22788 1.62492 7.04034C1.43739 6.85281 1.33203 6.59845 1.33203 6.33324C1.33203 6.06802 1.43739 5.81367 1.62492 5.62613C1.81246 5.43859 2.06681 5.33324 2.33203 5.33324H2.83336C3.12947 4.18849 3.79746 3.17454 4.7324 2.45066C5.66735 1.72678 6.81627 1.33398 7.9987 1.33398C9.18112 1.33398 10.33 1.72678 11.265 2.45066C12.1999 3.17454 12.8679 4.18849 13.164 5.33324H13.332C13.5972 5.33324 13.8516 5.43859 14.0391 5.62613C14.2267 5.81367 14.332 6.06802 14.332 6.33324C14.332 6.59845 14.2267 6.85281 14.0391 7.04034C13.8516 7.22788 13.5972 7.33324 13.332 7.33324H13.2907C13.128 8.62197 12.5006 9.80705 11.5263 10.6661C10.552 11.5252 9.29766 11.9992 7.9987 11.9992C6.69973 11.9992 5.44541 11.5252 4.47108 10.6661C3.49675 9.80705 2.86939 8.62197 2.7067 7.33324H2.33203Z" stroke="black" stroke-linejoin="round"/>
<path d="M3 5.33398H4C5.06087 5.33398 6.07828 4.91256 6.82843 4.16241C7.57857 3.41227 8 2.39485 8 1.33398C8 2.39485 8.42143 3.41227 9.17157 4.16241C9.92172 4.91256 10.9391 5.33398 12 5.33398H13" stroke="black" stroke-linecap="round" stroke-linejoin="round"/>
<path d="M7.9987 10.0007C8.17551 10.0007 8.34508 9.93041 8.4701 9.80539C8.59513 9.68036 8.66536 9.5108 8.66536 9.33398H7.33203C7.33203 9.5108 7.40227 9.68036 7.52729 9.80539C7.65232 9.93041 7.82189 10.0007 7.9987 10.0007Z" stroke="black" stroke-linejoin="round"/>
<path d="M12 14.668C12 13.4733 11.476 12.4013 10.646 11.668M4 14.668C4 13.4733 4.524 12.4013 5.354 11.668" stroke="black" stroke-linecap="round"/>
<path d="M6 6.66797V6.67464M10 6.66797V6.67464" stroke="black" stroke-linecap="round"/>
</svg>
