<svg width="35" height="35" viewBox="0 0 35 35" fill="none" xmlns="http://www.w3.org/2000/svg">
<path d="M17.5 0C27.1652 0 35 7.83475 35 17.5C35 27.1652 27.1652 35 17.5 35C7.83475 35 0 27.1652 0 17.5C0 7.83475 7.83475 0 17.5 0ZM17.5 7C17.0359 7 16.5908 7.18437 16.2626 7.51256C15.9344 7.84075 15.75 8.28587 15.75 8.75V17.5C15.7501 17.9641 15.9345 18.4091 16.2628 18.7372L21.5128 23.9872C21.8428 24.306 22.2849 24.4824 22.7437 24.4784C23.2025 24.4744 23.6415 24.2904 23.9659 23.9659C24.2904 23.6415 24.4744 23.2025 24.4784 22.7437C24.4824 22.2849 24.306 21.8428 23.9872 21.5128L19.25 16.7755V8.75C19.25 8.28587 19.0656 7.84075 18.7374 7.51256C18.4092 7.18437 17.9641 7 17.5 7Z" fill="#25123C"/>
</svg>
