<svg width="200" height="49" viewBox="0 0 200 49" fill="none" xmlns="http://www.w3.org/2000/svg">
<g filter="url(#filter0_i_1_700)">
<path d="M13.8175 0.253856C21.0222 -0.862971 28.6147 1.76308 33.6695 6.99197C33.8459 7.21487 34.2755 7.56083 33.9434 7.84874C33.0147 8.91449 31.9373 9.83628 30.9436 10.8393C29.9661 9.96862 29.0652 9.00504 28.0157 8.21792C23.3859 4.81172 17.1377 3.76919 11.6465 5.45488C8.41911 6.39524 5.59106 8.34563 3.27848 10.7557C2.07575 9.77823 0.965898 8.6823 0 7.4726C3.61748 3.60898 8.53056 0.887731 13.8198 0.253856H13.8175Z" fill="#F70075"/>
</g>
<path d="M13.8945 0.748047C20.933 -0.342837 28.3606 2.22384 33.3047 7.33496C33.3282 7.36318 33.3512 7.39065 33.3721 7.41406C33.4047 7.45057 33.4296 7.47639 33.458 7.50879C33.4806 7.53458 33.4969 7.5593 33.5127 7.5791C32.7091 8.49119 31.8327 9.26891 30.9336 10.1494C30.1112 9.38827 29.2518 8.52062 28.3154 7.81836L28.3115 7.81543L27.8613 7.49414C23.3059 4.35511 17.363 3.36269 12.0312 4.82227L11.5 4.97656C8.32427 5.90333 5.54018 7.77353 3.24414 10.0771C2.31267 9.28933 1.4455 8.42818 0.666992 7.49707C4.18196 3.87837 8.86489 1.35098 13.8789 0.75L13.8682 0.583984L13.8945 0.748047Z" stroke="#F70075"/>
<g filter="url(#filter1_i_1_700)">
<path d="M6.14062 13.6987C11.5831 7.42957 22.5052 7.47369 27.9569 13.7079C27.0816 14.7691 26.1227 15.7535 25.0499 16.6103C22.7466 14.502 19.7213 12.9858 16.5287 13.2296C13.6821 13.3156 11.0839 14.6739 8.99188 16.5337C7.9958 15.6374 7.0508 14.6878 6.14295 13.6987H6.14062Z" fill="#F70075"/>
</g>
<path d="M17.0449 9.51453C20.874 9.52088 24.6791 10.9383 27.292 13.7206C26.6025 14.5262 25.8633 15.2774 25.0605 15.953C22.7349 13.9367 19.7127 12.4852 16.4893 12.7313C13.6578 12.8237 11.0884 14.1077 9.00293 15.8632C8.2494 15.1685 7.52451 14.4423 6.82129 13.6903C9.42859 10.9064 13.2237 9.50829 17.0449 9.51453Z" stroke="#F70075"/>
<g filter="url(#filter2_i_1_700)">
<path d="M115.615 11.6414C117.196 11.6924 118.78 11.6762 120.361 11.6506C120.549 12.9625 120.461 14.286 120.47 15.6048V32.5917C120.468 33.9222 120.531 35.2596 120.382 36.5877C118.784 36.5854 117.187 36.5714 115.587 36.597C115.418 35.2689 115.501 33.9268 115.492 32.5917C115.483 26.0858 115.501 19.5822 115.483 13.0716C115.485 12.591 115.543 12.115 115.613 11.6414H115.615Z" fill="#F70075"/>
</g>
<path d="M116.049 12.1511C117.341 12.1829 118.633 12.1749 119.917 12.156C119.996 12.9604 119.986 13.7644 119.976 14.6023L119.97 15.6052V32.5906C119.968 33.7966 120.015 34.9428 119.926 36.0857C118.635 36.0824 117.336 36.0775 116.036 36.0925C115.965 35.2742 115.978 34.4556 115.987 33.6062L115.992 32.5886C115.983 26.0891 116.001 19.5815 115.982 13.074C115.984 12.7697 116.011 12.464 116.049 12.1511Z" stroke="#F70075"/>
<g filter="url(#filter3_i_1_700)">
<path d="M39.2693 13.0757C43.0168 12.8992 46.769 13.0478 50.5142 13.0037C52.093 13.0153 53.6765 12.9248 55.2484 13.0919C55.4017 14.4479 55.3831 15.8202 55.2647 17.1785C53.4583 17.3317 51.6449 17.2435 49.8315 17.2504C49.7665 17.8518 49.727 18.4555 49.7317 19.0615C49.7642 24.901 49.7201 30.7359 49.7526 36.5732C48.053 36.5917 46.351 36.5894 44.6537 36.5732C44.612 30.1346 44.7606 23.6844 44.5818 17.2481C42.8055 17.2411 41.0247 17.3247 39.2508 17.1831C39.0836 15.8178 39.1091 14.441 39.2693 13.0757Z" fill="#F70075"/>
</g>
<path d="M39.7207 13.5581C43.3164 13.4118 46.88 13.5463 50.5205 13.5034L50.5195 13.5024C51.9965 13.513 53.391 13.4422 54.791 13.5532C54.8822 14.5966 54.8745 15.6526 54.7998 16.7085C53.1627 16.8146 51.5323 16.744 49.8301 16.7505L49.3828 16.7524L49.334 17.1968C49.2676 17.8111 49.2267 18.4338 49.2314 19.063V19.064C49.2477 21.9818 49.2451 24.8993 49.2422 27.8179C49.2395 30.5689 49.2377 33.3214 49.251 36.0747C47.8847 36.0864 46.517 36.0856 45.1514 36.0747C45.12 29.8206 45.2563 23.5088 45.082 17.2339L45.0684 16.7505L44.584 16.7485C42.9161 16.742 41.3136 16.8095 39.7041 16.7114C39.6064 15.6664 39.6198 14.612 39.7207 13.5581Z" stroke="#F70075"/>
<g filter="url(#filter4_i_1_700)">
<path d="M122.982 13.1182C125.241 12.8628 127.519 13.0625 129.785 12.9929C132.471 12.9859 135.46 13.1949 137.577 15.05C140.493 17.5438 140.535 23.0652 137.029 25.0597C136.07 25.7493 134.735 25.5984 133.839 26.3623C134.886 26.5759 136.026 26.6711 136.904 27.3468C138.367 28.3661 138.866 30.1957 139.247 31.8442C139.548 33.4231 140.027 34.9718 140.18 36.5786C138.422 36.5855 136.667 36.5948 134.912 36.5693C134.459 34.6653 134.301 32.701 133.723 30.8319C133.379 29.6733 132.488 28.5541 131.231 28.3753C130.166 28.2569 129.088 28.3312 128.02 28.3196C127.96 31.0757 128.139 33.8411 127.93 36.5902C126.279 36.5786 124.63 36.5925 122.979 36.5786C122.996 28.7585 122.989 20.9383 122.982 13.1206V13.1182ZM128.025 17.012C128.009 19.5568 128.032 22.0993 128.013 24.6441C129.216 24.6557 130.423 24.73 131.619 24.5884C132.912 24.4351 134.138 23.4808 134.371 22.1597C134.675 20.6713 134.61 18.7558 133.307 17.7458C131.763 16.6707 129.785 17.1235 128.025 17.012Z" fill="#F70075"/>
</g>
<path d="M126.377 13.4855C127.496 13.4947 128.65 13.5273 129.794 13.4924C132.485 13.4858 135.288 13.7092 137.248 15.426L137.252 15.4299C138.575 16.5616 139.271 18.409 139.212 20.2258C139.153 22.0379 138.349 23.7339 136.782 24.6252L136.759 24.6379L136.737 24.6535C136.35 24.9321 135.879 25.0479 135.287 25.1984C134.733 25.3396 134.063 25.5142 133.515 25.9816L132.733 26.6467L133.739 26.8517C134.308 26.9677 134.797 27.0333 135.311 27.1652C135.802 27.2915 136.234 27.4629 136.599 27.7433L136.618 27.757C137.741 28.5394 138.243 29.8863 138.609 31.3322L138.76 31.9572C138.912 32.7505 139.11 33.5471 139.281 34.3107C139.415 34.9058 139.534 35.4921 139.616 36.0793C138.178 36.085 136.746 36.0892 135.314 36.0724C135.138 35.2631 135.004 34.4436 134.856 33.6017C134.688 32.6364 134.499 31.6507 134.2 30.6838C133.824 29.4223 132.822 28.0964 131.302 27.8801L131.294 27.8791L131.287 27.8781L130.873 27.841C129.904 27.7734 128.912 27.8292 128.025 27.8195L127.531 27.8146L127.521 28.3088C127.49 29.6966 127.519 31.0908 127.53 32.4611C127.54 33.6807 127.535 34.8888 127.462 36.0891C126.114 36.0831 124.82 36.0866 123.479 36.0793C123.494 28.5753 123.488 21.0714 123.481 13.5705C124.435 13.4872 125.398 13.4775 126.377 13.4855ZM127.525 17.009C127.517 18.2834 127.518 19.5571 127.52 20.8283C127.521 22.1004 127.523 23.3708 127.514 24.6408L127.51 25.1389L128.009 25.1437C129.176 25.155 130.44 25.2317 131.678 25.0851C133.145 24.9112 134.585 23.8253 134.862 22.2453C135.021 21.4622 135.088 20.551 134.934 19.6857C134.778 18.8121 134.39 17.9531 133.613 17.3508L133.604 17.343L133.593 17.3351C132.706 16.7181 131.713 16.5544 130.767 16.5178C130.294 16.4995 129.816 16.5128 129.364 16.5226C128.906 16.5326 128.472 16.5392 128.057 16.5129L127.528 16.4797L127.525 17.009Z" stroke="#F70075"/>
<g filter="url(#filter5_i_1_700)">
<path d="M3.53353 16.8972C4.84539 17.4615 5.58375 18.7966 6.62859 19.7137C5.62786 22.421 5.56749 25.5463 6.77254 28.1979C7.34605 29.5376 8.18424 30.7357 9.01779 31.9222C11.5254 35.3887 14.184 38.7462 16.9261 42.0293C17.9547 41.0797 18.7418 39.9164 19.6218 38.8367C21.6906 36.1782 23.8244 33.5591 25.7422 30.7844C27.2166 28.7691 28.2313 26.3311 28.02 23.7909C28.1059 22.4257 27.3443 21.1858 27.3443 19.846C28.2336 18.7548 29.2924 17.8074 30.3419 16.8694C32.4501 20.5589 32.947 25.2026 31.3774 29.1823C30.6785 31.07 29.4874 32.7093 28.3218 34.3323C24.7647 39.2384 20.8802 43.8985 17.07 48.6142C13.896 45.2986 11.1493 41.5905 8.29105 38.0032C5.82522 34.662 2.89734 31.3696 2.10559 27.16C1.37652 23.6772 2.15202 20.1177 3.53121 16.8996L3.53353 16.8972Z" fill="#F70075"/>
</g>
<path d="M3.7832 17.5989C4.14848 17.8359 4.47829 18.149 4.81348 18.512C5.18833 18.9179 5.60041 19.421 6.0498 19.8577C5.12095 22.591 5.09688 25.7104 6.3125 28.3938V28.3948C6.90977 29.79 7.77952 31.0294 8.6084 32.2092L8.6123 32.2151C11.1283 35.6932 13.7945 39.0602 16.542 42.3499L16.8789 42.7532L17.2656 42.3967C18.3285 41.4154 19.1678 40.1856 20.0098 39.1526L20.0166 39.1438C22.0761 36.4972 24.2248 33.8586 26.1533 31.0686L26.1523 31.0676C27.6611 29.0015 28.7353 26.4601 28.5195 23.7737C28.5576 23.0147 28.3707 22.3042 28.1963 21.675C28.0296 21.0738 27.8782 20.5492 27.8496 20.0217C28.5541 19.1813 29.363 18.4228 30.2031 17.6663C31.9887 21.1397 32.3449 25.3664 30.9121 28.9993L30.9082 29.009C30.2373 30.8211 29.0906 32.4042 27.917 34.0383C24.4814 38.7769 20.7409 43.2837 17.041 47.8547C14.0565 44.6725 11.4427 41.1577 8.69336 37.7063C7.44119 36.0096 6.11934 34.3858 4.99121 32.636C3.87099 30.8984 2.97613 29.085 2.59668 27.0676L2.59473 27.0579L2.5332 26.7434C1.97332 23.6725 2.6021 20.5248 3.7832 17.5989Z" stroke="#F70075"/>
<g filter="url(#filter6_i_1_700)">
<path d="M14.7869 17.083C16.9579 16.3818 19.4446 16.7533 21.3091 18.0767C23.8724 19.7903 25.182 23.2197 24.2764 26.1894C23.3639 29.6351 19.7604 32.1149 16.2079 31.6133C12.1748 31.3231 8.96137 27.1739 9.63704 23.1988C9.9946 20.394 12.0866 17.9212 14.7893 17.083H14.7869ZM16.0268 21.1068C14.5617 21.5758 13.5262 23.1547 13.8094 24.6964C14.0579 26.9278 16.9068 28.1839 18.7597 26.9556C20.6752 25.9108 20.782 22.8482 19.0174 21.6153C18.2117 20.8793 17.0252 20.9443 16.0268 21.1091V21.1068Z" fill="#F70075"/>
</g>
<path d="M14.9404 17.5591C16.9627 16.9059 19.285 17.2536 21.0195 18.4849L21.0312 18.4927C23.4196 20.0894 24.6362 23.2942 23.7979 26.0435L23.7959 26.0522L23.793 26.061C22.9432 29.27 19.5708 31.5836 16.2773 31.1187L16.2607 31.1157L16.2441 31.1147L15.8955 31.0786C12.3243 30.6032 9.52277 26.8549 10.1299 23.2827L10.1318 23.272L10.1328 23.2622C10.4654 20.6535 12.4202 18.3408 14.9375 17.5601L14.9346 17.5405L14.9404 17.5591ZM15.874 20.6304C14.1886 21.1701 12.9853 22.9787 13.3174 24.7866C13.4771 26.0952 14.3857 27.0874 15.4775 27.5796C16.5658 28.07 17.9095 28.0972 18.999 27.395C20.1429 26.7711 20.7171 25.5627 20.7686 24.3774C20.8196 23.1996 20.3586 21.9528 19.3193 21.2173C18.506 20.4998 17.4285 20.4463 16.5264 20.5386V20.4214L15.874 20.6304Z" stroke="#F70075"/>
<g filter="url(#filter7_i_1_700)">
<path d="M61.6622 19.202C62.6839 17.644 64.748 17.1657 66.4848 17.5697C66.501 19.404 66.3942 21.2313 66.3896 23.061C65.1102 22.9193 63.6428 22.65 62.5654 23.5509C61.0051 24.7931 60.6592 26.9362 60.5454 28.8099C60.4549 31.3988 60.5617 33.9901 60.4943 36.579C58.8296 36.5859 57.1694 36.5697 55.5093 36.5952C55.4234 35.7872 55.4025 34.9722 55.4141 34.1642C55.4675 28.7031 55.3584 23.2421 55.4675 17.781C56.8583 17.7253 58.2514 17.7044 59.6422 17.8088C59.7769 20.1307 59.6352 22.4549 59.7188 24.7791C59.8326 24.7188 60.0555 24.6027 60.1693 24.547C60.5338 22.7382 60.5709 20.7716 61.6646 19.1997L61.6622 19.202Z" fill="#F70075"/>
</g>
<path d="M62.0801 19.4762C62.8822 18.2529 64.4849 17.7648 65.9844 17.985C65.9839 18.7553 65.9668 19.5265 65.9453 20.3033C65.9252 21.0319 65.9067 21.7664 65.8975 22.5026C65.4156 22.4472 64.8904 22.3944 64.3809 22.4156C63.6995 22.4441 62.9912 22.6004 62.3682 23.069L62.2539 23.1598C60.5047 24.5525 60.1593 26.9117 60.0459 28.7799V28.7926C60.0002 30.0983 60.0038 31.4026 60.0107 32.6969C60.0168 33.8304 60.0232 34.9557 60.0029 36.0787C58.6628 36.0812 57.3123 36.0756 55.9668 36.0905C55.9181 35.4554 55.9048 34.814 55.9141 34.1715V34.1696C55.9662 28.8375 55.8658 23.5721 55.96 18.2653C57.0343 18.2293 58.1009 18.2191 59.1621 18.2789C59.2056 19.2761 59.2063 20.2772 59.1992 21.2897C59.1911 22.4468 59.1765 23.6221 59.2188 24.7975L59.248 25.5953L59.9531 25.2203C60.0661 25.1604 60.2836 25.0477 60.3896 24.9957L60.6104 24.8873L60.6592 24.6461C60.753 24.1807 60.8261 23.706 60.8975 23.2457C60.9694 22.7814 61.0402 22.3295 61.1328 21.8873C61.318 21.0033 61.5831 20.1923 62.0752 19.485L62.0078 19.4283L62.0801 19.4762Z" stroke="#F70075"/>
<g filter="url(#filter8_i_1_700)">
<path d="M70.019 18.4533C72.1203 17.1879 74.7463 17.1252 77.0937 17.6012C78.8746 17.9402 80.3559 19.2845 81.0153 20.9516C81.9882 23.3478 81.7073 25.9808 81.7444 28.5047C81.7003 31.2004 81.8512 33.8938 81.9325 36.5849C80.5045 36.5849 79.0719 36.5872 77.644 36.5756C77.4118 35.0478 77.4048 33.5014 77.3932 31.962C76.7431 31.9086 76.7013 32.6632 76.4831 33.1044C76.1185 34.1887 75.5264 35.2243 74.6209 35.951C72.6543 37.6065 69.4269 37.4301 67.6414 35.5888C65.7862 33.4086 66.0114 29.5751 68.4494 27.9011C70.56 26.3524 73.2742 26.2781 75.6309 25.3121C77.0032 24.8454 77.1193 22.9252 76.2439 21.9501C75.5497 21.0933 74.2866 21.2512 73.3346 21.4532C72.1133 22.0127 71.6861 23.4152 71.6861 24.662C70.1327 24.7085 68.6026 24.4159 67.0841 24.1303C66.9773 21.9106 68.0709 19.598 70.0166 18.4556L70.019 18.4533ZM72.2433 29.1851C71.2171 29.7795 71.2519 31.1122 71.4562 32.1269C72.3014 33.5966 74.5698 33.3784 75.545 32.1547C76.7849 30.9775 76.9289 29.1943 76.7849 27.5899C75.2339 27.987 73.6179 28.3352 72.2433 29.1851Z" fill="#F70075"/>
</g>
<path d="M70.3076 18.8636C72.2545 17.7058 74.7221 17.6305 76.9941 18.0912L77 18.0922C78.5948 18.3957 79.9474 19.6099 80.5508 21.1351L80.5518 21.14C81.008 22.2637 81.1767 23.4574 81.2314 24.7025C81.2876 25.979 81.2248 27.1954 81.2441 28.5121C81.2034 31.044 81.3312 33.5822 81.4141 36.0844C80.3023 36.0846 79.1905 36.0835 78.0811 36.0765C77.9124 34.7276 77.9041 33.3585 77.8936 31.9584L77.8896 31.5013L77.4346 31.4633L77.335 31.4594C77.1058 31.4584 76.8963 31.5211 76.7178 31.6478C76.5259 31.7841 76.4073 31.9676 76.3291 32.1234C76.2516 32.2779 76.1953 32.445 76.1523 32.5717C76.1044 32.713 76.0718 32.8079 76.0352 32.8822L76.0195 32.9135L76.0088 32.9447C75.6639 33.9707 75.1157 34.9123 74.3076 35.5609L74.2988 35.5687C72.539 37.05 69.6195 36.8957 68.0127 35.2533C67.1898 34.2791 66.8153 32.9193 66.9336 31.6C67.0522 30.2778 67.6594 29.0496 68.7324 28.3129L68.7393 28.309L68.7451 28.3041C69.7227 27.5867 70.8547 27.1997 72.0781 26.8705C73.2752 26.5483 74.6032 26.2736 75.8203 25.7748L75.8193 25.7738C76.7085 25.4585 77.1663 24.6805 77.2754 23.89C77.3773 23.1516 77.1898 22.3355 76.7148 21.7338L76.6162 21.6156C76.1561 21.0609 75.5247 20.8547 74.9268 20.806C74.3296 20.7575 73.7163 20.8611 73.2305 20.9642L73.1768 20.976L73.126 20.9984C71.8172 21.5982 71.3116 22.9539 71.207 24.1635C70.0046 24.1476 68.8071 23.9417 67.5781 23.7123C67.6175 21.7827 68.616 19.8581 70.2695 18.8871L70.3076 18.8636ZM76.6611 27.1058C75.2387 27.47 73.6483 27.8139 72.2559 28.597L71.9932 28.7523C71.3172 29.1439 71.0071 29.7773 70.8955 30.4115C70.786 31.0339 70.8582 31.6913 70.9658 32.226L70.9824 32.3051L71.0225 32.3763C71.5591 33.3096 72.5372 33.6786 73.4668 33.6508C74.3768 33.6235 75.3204 33.2173 75.9131 32.4926C77.3067 31.1475 77.4288 29.1684 77.2832 27.5453L77.2305 26.9594L76.6611 27.1058Z" stroke="#F70075"/>
<g filter="url(#filter9_i_1_700)">
<path d="M100.265 20.3694C101.414 18.5793 103.46 17.5089 105.559 17.3696C107.711 17.1931 110.11 17.6459 111.614 19.3107C113.706 21.5536 114.017 24.8809 113.678 27.7925C110.277 28.0944 106.852 27.9434 103.441 28.0154C103.39 29.3876 103.474 30.8412 104.268 32.016C105.064 33.379 107.089 33.8364 108.345 32.838C109.255 32.1484 109.255 30.8946 109.585 29.9008C111.003 30.1028 112.429 30.2793 113.864 30.3953C114.164 33.0493 112.473 35.81 109.898 36.6134C107.391 37.3819 104.5 37.3053 102.185 35.9957C99.898 34.7396 98.8322 32.1112 98.5141 29.6384C98.2146 26.4806 98.4515 23.0768 100.267 20.3718L100.265 20.3694ZM105.405 21.4607C104.003 22.1944 103.569 23.9057 103.409 25.3615C105.303 25.6216 107.196 25.2709 109.093 25.2756C109.211 24.0938 108.958 22.7656 108.083 21.9065C107.398 21.1914 106.29 21.2239 105.405 21.4607Z" fill="#F70075"/>
</g>
<path d="M105.6 17.8681C107.679 17.6976 109.888 18.1464 111.243 19.6454L111.614 19.3105L111.243 19.6464L111.248 19.6513C113.097 21.6332 113.479 24.5768 113.223 27.3271C109.979 27.5809 106.747 27.4456 103.431 27.5156L102.959 27.5253L102.941 27.997C102.89 29.3726 102.963 30.9559 103.836 32.2675V32.2685C104.775 33.8752 107.144 34.4297 108.655 33.2285C109.228 32.7899 109.496 32.1875 109.662 31.6249C109.745 31.3438 109.809 31.0535 109.868 30.7919C109.895 30.6747 109.921 30.5626 109.947 30.455C111.089 30.6129 112.238 30.7514 113.395 30.8544C113.465 33.1545 111.953 35.4479 109.749 36.1357C107.342 36.8728 104.6 36.7871 102.432 35.5605L102.426 35.5576L102.233 35.4462C100.283 34.2633 99.312 31.9123 99.0107 29.5829C98.7164 26.469 98.9645 23.21 100.683 20.6503L100.84 20.415C101.917 18.9086 103.722 17.9922 105.592 17.8681H105.6ZM108.432 21.5497C107.545 20.6368 106.194 20.7318 105.276 20.9775L105.223 20.9921L105.174 21.0175C104.342 21.4527 103.817 22.1699 103.482 22.9413C103.15 23.7086 102.995 24.5568 102.912 25.3066L102.858 25.791L103.341 25.8564C104.338 25.9932 105.324 25.968 106.278 25.913C107.248 25.8572 108.163 25.7731 109.092 25.7753L109.545 25.7763L109.59 25.3251C109.716 24.0645 109.458 22.5657 108.442 21.5605H108.443L108.433 21.5497H108.432Z" stroke="#F70075"/>
<g filter="url(#filter10_i_1_700)">
<path d="M146.558 17.6006C149.168 16.9992 152.17 17.3266 154.271 19.1075C155.989 20.6074 156.707 22.92 156.948 25.1212C157.134 27.9655 157.106 31.0234 155.576 33.538C154.51 35.4907 152.409 36.7213 150.229 36.986C147.614 37.3436 144.617 36.7097 142.887 34.5805C141.143 32.4537 140.672 29.6047 140.672 26.9299C140.737 24.3782 141.197 21.6291 142.971 19.6717C143.899 18.6083 145.204 17.9442 146.555 17.5983L146.558 17.6006ZM147.835 21.4038C145.868 22.4324 145.963 25.0237 145.794 26.9299C145.882 28.7038 145.792 30.6519 146.85 32.1797C147.524 33.3151 149.158 33.7284 150.252 32.939C151.564 32.0241 151.775 30.2851 151.921 28.8176C152 26.7372 152.051 24.5152 151.072 22.6205C150.507 21.4712 149.021 20.7909 147.835 21.4038Z" fill="#F70075"/>
</g>
<path d="M146.67 18.088C149.177 17.5103 151.997 17.8408 153.941 19.4844H153.942C155.519 20.8605 156.212 23.0167 156.449 25.1641C156.634 28.0013 156.588 30.9121 155.148 33.2784L155.143 33.2881L155.137 33.2989C154.16 35.0873 152.215 36.2408 150.168 36.4893L150.161 36.4903C147.646 36.8343 144.855 36.2097 143.275 34.2657L143.273 34.2637L143.124 34.0743C141.613 32.1041 141.173 29.4896 141.172 26.9424C141.236 24.4192 141.693 21.8265 143.341 20.0079L143.347 20.001C144.18 19.0464 145.366 18.4285 146.631 18.0967L146.67 18.088ZM151.515 22.3907C150.85 21.0512 149.089 20.1936 147.605 20.96L147.604 20.961C146.441 21.569 145.915 22.6339 145.654 23.7208C145.4 24.783 145.376 25.9845 145.296 26.8858L145.293 26.92L145.295 26.9551C145.337 27.8075 145.338 28.7869 145.463 29.7139C145.581 30.5974 145.816 31.4924 146.332 32.3038L146.439 32.4649C147.262 33.8098 149.203 34.3113 150.544 33.3438C151.315 32.8036 151.745 32.033 152 31.2383C152.253 30.4487 152.346 29.5971 152.419 28.8672L152.42 28.8516L152.421 28.837C152.499 26.7767 152.565 24.4203 151.516 22.3907H151.515Z" stroke="#F70075"/>
<g filter="url(#filter11_i_1_700)">
<path d="M160.705 18.852C162.709 17.3265 165.414 17.1222 167.826 17.4868C169.689 17.7607 171.455 18.9077 172.203 20.6793C173.482 23.5399 172.874 26.7418 173.027 29.7672C172.958 32.0473 173.278 34.3158 173.234 36.5912C171.799 36.5796 170.364 36.5935 168.932 36.5727C168.695 35.0588 168.632 33.5287 168.641 31.9985C168.5 32.0101 168.214 32.0403 168.068 32.0543C167.785 33.4753 167.193 34.8846 166.046 35.8296C163.84 37.8752 159.626 37.4062 158.288 34.5874C157.348 32.5279 157.561 29.737 159.37 28.2069C161.065 26.7813 163.331 26.4399 165.391 25.8223C166.287 25.5391 167.376 25.3626 167.936 24.5197C168.128 23.6537 168.193 22.5926 167.518 21.9146C166.517 20.8535 164.601 21.0392 163.717 22.163C163.113 22.8457 163.043 23.8023 162.899 24.6637C161.367 24.6892 159.867 24.3735 158.369 24.125C158.337 22.1421 159.096 20.0757 160.703 18.8497L160.705 18.852ZM164.304 28.7665C163.41 29.1566 162.505 29.9483 162.584 31.0164C162.416 32.1936 163.522 33.3011 164.701 33.1363C166.006 33.2082 167.007 32.1332 167.61 31.0907C168.247 30.0342 168.019 28.7525 168.045 27.58C166.779 27.919 165.511 28.2626 164.304 28.7665Z" fill="#F70075"/>
</g>
<path d="M161.008 19.2496C162.857 17.842 165.4 17.6257 167.752 17.9811H167.754C169.477 18.2347 171.075 19.2929 171.742 20.8737L171.747 20.8834C172.346 22.2233 172.512 23.6606 172.538 25.1705C172.551 25.9265 172.529 26.6874 172.514 27.4635C172.498 28.2235 172.49 28.9948 172.527 29.7594C172.492 30.9221 172.556 32.0778 172.622 33.2096C172.678 34.1829 172.732 35.138 172.734 36.0895C171.601 36.0843 170.489 36.0863 169.365 36.0748C169.184 34.7335 169.133 33.3737 169.142 32.0016L169.145 31.4557L168.601 31.5006C168.456 31.5125 168.155 31.5435 168.021 31.5563L167.905 31.567C167.953 31.4908 168 31.4158 168.043 31.3414L168.042 31.3405C168.418 30.7123 168.528 30.0355 168.556 29.4C168.569 29.0815 168.563 28.7627 168.556 28.4615C168.548 28.1549 168.539 27.8688 168.545 27.5905L168.559 26.9244L167.915 27.0973C166.654 27.4352 165.354 27.7866 164.111 28.3053L164.104 28.3082C163.172 28.7153 162.018 29.6248 162.083 30.9908C161.905 32.4629 163.245 33.8066 164.718 33.6364C165.948 33.685 166.898 32.9152 167.55 32.0739C167.27 33.3926 166.721 34.6258 165.728 35.444L165.716 35.4528L165.705 35.4635C164.731 36.3667 163.285 36.7339 161.912 36.5377C160.628 36.3541 159.474 35.6889 158.856 34.5973L158.74 34.3727C157.868 32.4543 158.106 29.9326 159.692 28.5895C160.471 27.9348 161.394 27.5173 162.4 27.1862C162.903 27.0207 163.421 26.8788 163.948 26.7379C164.472 26.5981 165.01 26.4586 165.534 26.3014L165.541 26.2994C165.934 26.1752 166.502 26.0379 166.978 25.8444C167.479 25.6402 167.995 25.335 168.353 24.7965L168.403 24.7194L168.424 24.6285C168.618 23.7568 168.751 22.4428 167.872 21.5612H167.87C167.247 20.9086 166.366 20.6584 165.536 20.7213C164.712 20.7839 163.884 21.158 163.342 21.8317C162.968 22.2545 162.773 22.7484 162.651 23.2223C162.572 23.5306 162.519 23.8578 162.473 24.1598C161.28 24.132 160.104 23.9145 158.875 23.7037C158.948 22.0011 159.642 20.3233 160.948 19.2936L161.008 19.2496Z" stroke="#F70075"/>
<g filter="url(#filter12_i_1_700)">
<path d="M181.36 19.0651C182.767 16.929 186.413 16.6619 187.929 18.805C188.999 20.3212 189.046 22.2646 189.083 24.0479C189.217 24.0107 189.489 23.9294 189.621 23.89C189.93 22.1091 190.262 20.2075 191.477 18.7911C192.723 17.3353 194.918 17.0033 196.666 17.6232C197.999 18.0945 198.921 19.3089 199.336 20.6231C200.205 23.2631 199.954 26.0842 199.991 28.817C199.947 31.4059 200.081 34.0018 199.912 36.586C198.273 36.5768 196.634 36.5837 194.999 36.5791C194.966 32.9384 195.027 29.3 194.973 25.6639C194.864 24.4728 194.822 23.1261 193.996 22.1787C193.093 21.3568 191.697 21.9071 191.149 22.8683C190.388 24.1825 190.225 25.7428 190.084 27.2288C190.032 30.3425 190.084 33.4608 190.067 36.5744C188.454 36.586 186.84 36.5814 185.226 36.5814C185.119 32.5483 185.389 28.5012 185.01 24.4774C184.924 23.616 184.706 22.6663 184.003 22.0905C183.132 21.3963 181.829 21.9233 181.335 22.8242C180.025 25.0045 180.26 27.6445 180.234 30.0778C180.19 32.2488 180.339 34.422 180.146 36.586C178.495 36.5791 176.842 36.593 175.196 36.5768C175.205 30.3355 175.212 24.0966 175.193 17.8577C176.533 17.6998 177.889 17.7184 179.236 17.8066C179.34 19.9172 179.194 22.0325 179.282 24.1454C179.63 24.0409 179.825 23.811 179.865 23.4604C180.137 21.9326 180.471 20.3653 181.363 19.0651H181.36Z" fill="#F70075"/>
</g>
<path d="M184.629 17.8301C185.705 17.7746 186.745 18.1428 187.396 18.9307L187.521 19.0938C188.487 20.4636 188.545 22.2432 188.583 24.0587L188.597 24.7012L189.216 24.5303C189.357 24.4914 189.636 24.4077 189.765 24.3692L190.036 24.2872C189.771 25.2574 189.674 26.2597 189.586 27.1817L189.584 27.2012V27.2208C189.536 30.1679 189.576 33.1408 189.567 36.0753C188.285 36.082 187.003 36.0817 185.718 36.0811C185.682 34.2371 185.714 32.3933 185.72 30.5274C185.726 28.5047 185.699 26.4675 185.508 24.4307V24.4278L185.468 24.088C185.353 23.274 185.081 22.3268 184.319 21.7032L184.314 21.6993L184.201 21.6163C183.631 21.223 182.956 21.1986 182.376 21.3829C181.841 21.5528 181.348 21.9084 181.024 22.376L180.906 22.5665C180.198 23.746 179.917 25.0348 179.805 26.3126C179.694 27.5725 179.747 28.8877 179.734 30.0674C179.692 32.1461 179.815 34.0959 179.68 36.085C178.344 36.0822 177.021 36.0868 175.695 36.0782C175.704 30.1543 175.71 24.2316 175.693 18.3087C176.702 18.2191 177.724 18.2242 178.752 18.2784C178.782 19.1683 178.775 20.0624 178.765 20.9688C178.752 22.0223 178.737 23.0938 178.782 24.1661L178.81 24.8096L179.426 24.6241C179.673 24.5499 179.899 24.4206 180.07 24.2188C180.236 24.0243 180.324 23.7921 180.356 23.5469L180.357 23.5479C180.63 22.0168 180.952 20.5492 181.775 19.3477L181.853 19.2344C182.466 18.3887 183.524 17.8873 184.629 17.8301ZM191.856 19.1163C192.871 17.9322 194.656 17.5709 196.194 17.9981L196.499 18.0948C197.643 18.4992 198.476 19.5617 198.859 20.7735L198.861 20.7794C199.594 23.0055 199.497 25.3473 199.487 27.7774L199.491 28.8243C199.45 31.3002 199.562 33.6761 199.437 36.085C198.123 36.0799 196.804 36.0812 195.497 36.0792C195.474 32.6288 195.524 29.1138 195.474 25.6563L195.473 25.6378L195.472 25.6182L195.388 24.6983C195.354 24.3771 195.311 24.0472 195.243 23.7266C195.106 23.0758 194.863 22.411 194.373 21.8497L194.354 21.8282L194.332 21.8087C193.727 21.2584 192.962 21.1813 192.299 21.3751C191.728 21.5419 191.203 21.9146 190.854 22.4044L190.717 22.6172C190.445 23.0855 190.246 23.5812 190.095 24.087L190.114 23.9756C190.428 22.1668 190.747 20.4103 191.856 19.1163Z" stroke="#F70075"/>
<g filter="url(#filter13_i_1_700)">
<path d="M81.9648 17.8895C83.7016 17.8988 85.4407 17.785 87.1705 17.9313C87.5327 18.1681 87.4166 18.7045 87.5582 19.069C88.2664 23.2113 89.1812 27.3164 89.9637 31.4447C90.1123 31.7999 90.0357 32.5151 90.5767 32.5104C91.4334 27.6321 92.6524 22.8212 93.4953 17.9406C95.2065 17.8106 96.927 17.8779 98.6452 17.8895C97.4378 23.3227 95.6407 28.6166 94.3358 34.0289C94.1291 34.8277 93.9619 35.6496 93.6531 36.4205C93.2747 36.6689 92.7848 36.5459 92.3645 36.5946C90.5534 36.5482 88.7401 36.6712 86.936 36.4994C85.7843 31.642 84.3146 26.8682 83.0167 22.0503C82.6289 20.6735 82.1599 19.3128 81.9648 17.8895Z" fill="#F70075"/>
</g>
<path d="M82.5527 18.3844C84.0508 18.3733 85.4795 18.3099 86.9268 18.4156C86.9351 18.4434 86.9447 18.4812 86.9531 18.5328C86.9704 18.6393 86.9729 18.6942 86.9932 18.8395C87.0072 18.9398 87.0297 19.0649 87.0723 19.192C87.7797 23.3224 88.6975 27.448 89.4727 31.5377L89.4824 31.5895L89.502 31.6373C89.5158 31.6704 89.5312 31.7313 89.5547 31.8551C89.5742 31.9582 89.6015 32.1135 89.6445 32.2565C89.6875 32.3992 89.7627 32.5908 89.918 32.7477C90.091 32.9224 90.3208 33.0126 90.5811 33.0104L90.9971 33.0065L91.0693 32.5973C91.4959 30.1687 92.0127 27.7551 92.5303 25.3307C93.0198 23.0376 93.5088 20.7344 93.9189 18.4147C95.2732 18.3345 96.6305 18.3643 98.0195 18.3815C97.4444 20.8774 96.7526 23.3492 96.0459 25.8297C95.2844 28.5024 94.5066 31.1882 93.8516 33.9039C93.6538 34.6685 93.5059 35.3758 93.2568 36.0524C93.1951 36.0683 93.116 36.0796 93.0098 36.0826C92.9107 36.0855 92.8176 36.0826 92.6934 36.0817C92.5942 36.081 92.48 36.0829 92.3623 36.0934C91.4519 36.0705 90.5343 36.0909 89.6455 36.0944C88.8646 36.0974 88.0966 36.0847 87.335 36.028C86.1945 31.2847 84.7586 26.5962 83.499 21.9205L83.498 21.9147L83.1943 20.8727C82.9462 20.0332 82.7089 19.2182 82.5527 18.3844Z" stroke="#F70075"/>
<defs>
<filter id="filter0_i_1_700" x="0" y="0" width="34.0654" height="14.8394" filterUnits="userSpaceOnUse" color-interpolation-filters="sRGB">
<feFlood flood-opacity="0" result="BackgroundImageFix"/>
<feBlend mode="normal" in="SourceGraphic" in2="BackgroundImageFix" result="shape"/>
<feColorMatrix in="SourceAlpha" type="matrix" values="0 0 0 0 0 0 0 0 0 0 0 0 0 0 0 0 0 0 127 0" result="hardAlpha"/>
<feOffset dy="4"/>
<feGaussianBlur stdDeviation="2"/>
<feComposite in2="hardAlpha" operator="arithmetic" k2="-1" k3="1"/>
<feColorMatrix type="matrix" values="0 0 0 0 0 0 0 0 0 0 0 0 0 0 0 0 0 0 0.25 0"/>
<feBlend mode="normal" in2="shape" result="effect1_innerShadow_1_700"/>
</filter>
<filter id="filter1_i_1_700" x="6.14062" y="9.01453" width="21.8164" height="11.5958" filterUnits="userSpaceOnUse" color-interpolation-filters="sRGB">
<feFlood flood-opacity="0" result="BackgroundImageFix"/>
<feBlend mode="normal" in="SourceGraphic" in2="BackgroundImageFix" result="shape"/>
<feColorMatrix in="SourceAlpha" type="matrix" values="0 0 0 0 0 0 0 0 0 0 0 0 0 0 0 0 0 0 127 0" result="hardAlpha"/>
<feOffset dy="4"/>
<feGaussianBlur stdDeviation="2"/>
<feComposite in2="hardAlpha" operator="arithmetic" k2="-1" k3="1"/>
<feColorMatrix type="matrix" values="0 0 0 0 0 0 0 0 0 0 0 0 0 0 0 0 0 0 0.25 0"/>
<feBlend mode="normal" in2="shape" result="effect1_innerShadow_1_700"/>
</filter>
<filter id="filter2_i_1_700" x="115.479" y="11.6414" width="5.00293" height="28.9556" filterUnits="userSpaceOnUse" color-interpolation-filters="sRGB">
<feFlood flood-opacity="0" result="BackgroundImageFix"/>
<feBlend mode="normal" in="SourceGraphic" in2="BackgroundImageFix" result="shape"/>
<feColorMatrix in="SourceAlpha" type="matrix" values="0 0 0 0 0 0 0 0 0 0 0 0 0 0 0 0 0 0 127 0" result="hardAlpha"/>
<feOffset dy="4"/>
<feGaussianBlur stdDeviation="2"/>
<feComposite in2="hardAlpha" operator="arithmetic" k2="-1" k3="1"/>
<feColorMatrix type="matrix" values="0 0 0 0 0 0 0 0 0 0 0 0 0 0 0 0 0 0 0.25 0"/>
<feBlend mode="normal" in2="shape" result="effect1_innerShadow_1_700"/>
</filter>
<filter id="filter3_i_1_700" x="39.1367" y="12.9868" width="16.2217" height="27.5994" filterUnits="userSpaceOnUse" color-interpolation-filters="sRGB">
<feFlood flood-opacity="0" result="BackgroundImageFix"/>
<feBlend mode="normal" in="SourceGraphic" in2="BackgroundImageFix" result="shape"/>
<feColorMatrix in="SourceAlpha" type="matrix" values="0 0 0 0 0 0 0 0 0 0 0 0 0 0 0 0 0 0 127 0" result="hardAlpha"/>
<feOffset dy="4"/>
<feGaussianBlur stdDeviation="2"/>
<feComposite in2="hardAlpha" operator="arithmetic" k2="-1" k3="1"/>
<feColorMatrix type="matrix" values="0 0 0 0 0 0 0 0 0 0 0 0 0 0 0 0 0 0 0.25 0"/>
<feBlend mode="normal" in2="shape" result="effect1_innerShadow_1_700"/>
</filter>
<filter id="filter4_i_1_700" x="122.979" y="12.9836" width="17.2002" height="27.6066" filterUnits="userSpaceOnUse" color-interpolation-filters="sRGB">
<feFlood flood-opacity="0" result="BackgroundImageFix"/>
<feBlend mode="normal" in="SourceGraphic" in2="BackgroundImageFix" result="shape"/>
<feColorMatrix in="SourceAlpha" type="matrix" values="0 0 0 0 0 0 0 0 0 0 0 0 0 0 0 0 0 0 127 0" result="hardAlpha"/>
<feOffset dy="4"/>
<feGaussianBlur stdDeviation="2"/>
<feComposite in2="hardAlpha" operator="arithmetic" k2="-1" k3="1"/>
<feColorMatrix type="matrix" values="0 0 0 0 0 0 0 0 0 0 0 0 0 0 0 0 0 0 0.25 0"/>
<feBlend mode="normal" in2="shape" result="effect1_innerShadow_1_700"/>
</filter>
<filter id="filter5_i_1_700" x="1.82617" y="16.8694" width="30.4717" height="35.7448" filterUnits="userSpaceOnUse" color-interpolation-filters="sRGB">
<feFlood flood-opacity="0" result="BackgroundImageFix"/>
<feBlend mode="normal" in="SourceGraphic" in2="BackgroundImageFix" result="shape"/>
<feColorMatrix in="SourceAlpha" type="matrix" values="0 0 0 0 0 0 0 0 0 0 0 0 0 0 0 0 0 0 127 0" result="hardAlpha"/>
<feOffset dy="4"/>
<feGaussianBlur stdDeviation="2"/>
<feComposite in2="hardAlpha" operator="arithmetic" k2="-1" k3="1"/>
<feColorMatrix type="matrix" values="0 0 0 0 0 0 0 0 0 0 0 0 0 0 0 0 0 0 0.25 0"/>
<feBlend mode="normal" in2="shape" result="effect1_innerShadow_1_700"/>
</filter>
<filter id="filter6_i_1_700" x="9.54688" y="16.7349" width="15.0156" height="18.943" filterUnits="userSpaceOnUse" color-interpolation-filters="sRGB">
<feFlood flood-opacity="0" result="BackgroundImageFix"/>
<feBlend mode="normal" in="SourceGraphic" in2="BackgroundImageFix" result="shape"/>
<feColorMatrix in="SourceAlpha" type="matrix" values="0 0 0 0 0 0 0 0 0 0 0 0 0 0 0 0 0 0 127 0" result="hardAlpha"/>
<feOffset dy="4"/>
<feGaussianBlur stdDeviation="2"/>
<feComposite in2="hardAlpha" operator="arithmetic" k2="-1" k3="1"/>
<feColorMatrix type="matrix" values="0 0 0 0 0 0 0 0 0 0 0 0 0 0 0 0 0 0 0.25 0"/>
<feBlend mode="normal" in2="shape" result="effect1_innerShadow_1_700"/>
</filter>
<filter id="filter7_i_1_700" x="55.4111" y="17.4332" width="11.0752" height="23.162" filterUnits="userSpaceOnUse" color-interpolation-filters="sRGB">
<feFlood flood-opacity="0" result="BackgroundImageFix"/>
<feBlend mode="normal" in="SourceGraphic" in2="BackgroundImageFix" result="shape"/>
<feColorMatrix in="SourceAlpha" type="matrix" values="0 0 0 0 0 0 0 0 0 0 0 0 0 0 0 0 0 0 127 0" result="hardAlpha"/>
<feOffset dy="4"/>
<feGaussianBlur stdDeviation="2"/>
<feComposite in2="hardAlpha" operator="arithmetic" k2="-1" k3="1"/>
<feColorMatrix type="matrix" values="0 0 0 0 0 0 0 0 0 0 0 0 0 0 0 0 0 0 0.25 0"/>
<feBlend mode="normal" in2="shape" result="effect1_innerShadow_1_700"/>
</filter>
<filter id="filter8_i_1_700" x="66.4121" y="17.3275" width="15.5205" height="23.7615" filterUnits="userSpaceOnUse" color-interpolation-filters="sRGB">
<feFlood flood-opacity="0" result="BackgroundImageFix"/>
<feBlend mode="normal" in="SourceGraphic" in2="BackgroundImageFix" result="shape"/>
<feColorMatrix in="SourceAlpha" type="matrix" values="0 0 0 0 0 0 0 0 0 0 0 0 0 0 0 0 0 0 127 0" result="hardAlpha"/>
<feOffset dy="4"/>
<feGaussianBlur stdDeviation="2"/>
<feComposite in2="hardAlpha" operator="arithmetic" k2="-1" k3="1"/>
<feColorMatrix type="matrix" values="0 0 0 0 0 0 0 0 0 0 0 0 0 0 0 0 0 0 0.25 0"/>
<feBlend mode="normal" in2="shape" result="effect1_innerShadow_1_700"/>
</filter>
<filter id="filter9_i_1_700" x="98.4053" y="17.3339" width="15.4932" height="23.7719" filterUnits="userSpaceOnUse" color-interpolation-filters="sRGB">
<feFlood flood-opacity="0" result="BackgroundImageFix"/>
<feBlend mode="normal" in="SourceGraphic" in2="BackgroundImageFix" result="shape"/>
<feColorMatrix in="SourceAlpha" type="matrix" values="0 0 0 0 0 0 0 0 0 0 0 0 0 0 0 0 0 0 127 0" result="hardAlpha"/>
<feOffset dy="4"/>
<feGaussianBlur stdDeviation="2"/>
<feComposite in2="hardAlpha" operator="arithmetic" k2="-1" k3="1"/>
<feColorMatrix type="matrix" values="0 0 0 0 0 0 0 0 0 0 0 0 0 0 0 0 0 0 0.25 0"/>
<feBlend mode="normal" in2="shape" result="effect1_innerShadow_1_700"/>
</filter>
<filter id="filter10_i_1_700" x="140.672" y="17.3243" width="16.3555" height="23.7557" filterUnits="userSpaceOnUse" color-interpolation-filters="sRGB">
<feFlood flood-opacity="0" result="BackgroundImageFix"/>
<feBlend mode="normal" in="SourceGraphic" in2="BackgroundImageFix" result="shape"/>
<feColorMatrix in="SourceAlpha" type="matrix" values="0 0 0 0 0 0 0 0 0 0 0 0 0 0 0 0 0 0 127 0" result="hardAlpha"/>
<feOffset dy="4"/>
<feGaussianBlur stdDeviation="2"/>
<feComposite in2="hardAlpha" operator="arithmetic" k2="-1" k3="1"/>
<feColorMatrix type="matrix" values="0 0 0 0 0 0 0 0 0 0 0 0 0 0 0 0 0 0 0.25 0"/>
<feBlend mode="normal" in2="shape" result="effect1_innerShadow_1_700"/>
</filter>
<filter id="filter11_i_1_700" x="157.74" y="17.3307" width="15.498" height="23.7583" filterUnits="userSpaceOnUse" color-interpolation-filters="sRGB">
<feFlood flood-opacity="0" result="BackgroundImageFix"/>
<feBlend mode="normal" in="SourceGraphic" in2="BackgroundImageFix" result="shape"/>
<feColorMatrix in="SourceAlpha" type="matrix" values="0 0 0 0 0 0 0 0 0 0 0 0 0 0 0 0 0 0 127 0" result="hardAlpha"/>
<feOffset dy="4"/>
<feGaussianBlur stdDeviation="2"/>
<feComposite in2="hardAlpha" operator="arithmetic" k2="-1" k3="1"/>
<feColorMatrix type="matrix" values="0 0 0 0 0 0 0 0 0 0 0 0 0 0 0 0 0 0 0.25 0"/>
<feBlend mode="normal" in2="shape" result="effect1_innerShadow_1_700"/>
</filter>
<filter id="filter12_i_1_700" x="175.193" y="17.3243" width="24.8066" height="23.2618" filterUnits="userSpaceOnUse" color-interpolation-filters="sRGB">
<feFlood flood-opacity="0" result="BackgroundImageFix"/>
<feBlend mode="normal" in="SourceGraphic" in2="BackgroundImageFix" result="shape"/>
<feColorMatrix in="SourceAlpha" type="matrix" values="0 0 0 0 0 0 0 0 0 0 0 0 0 0 0 0 0 0 127 0" result="hardAlpha"/>
<feOffset dy="4"/>
<feGaussianBlur stdDeviation="2"/>
<feComposite in2="hardAlpha" operator="arithmetic" k2="-1" k3="1"/>
<feColorMatrix type="matrix" values="0 0 0 0 0 0 0 0 0 0 0 0 0 0 0 0 0 0 0.25 0"/>
<feBlend mode="normal" in2="shape" result="effect1_innerShadow_1_700"/>
</filter>
<filter id="filter13_i_1_700" x="81.9648" y="17.8561" width="16.6807" height="22.7385" filterUnits="userSpaceOnUse" color-interpolation-filters="sRGB">
<feFlood flood-opacity="0" result="BackgroundImageFix"/>
<feBlend mode="normal" in="SourceGraphic" in2="BackgroundImageFix" result="shape"/>
<feColorMatrix in="SourceAlpha" type="matrix" values="0 0 0 0 0 0 0 0 0 0 0 0 0 0 0 0 0 0 127 0" result="hardAlpha"/>
<feOffset dy="4"/>
<feGaussianBlur stdDeviation="2"/>
<feComposite in2="hardAlpha" operator="arithmetic" k2="-1" k3="1"/>
<feColorMatrix type="matrix" values="0 0 0 0 0 0 0 0 0 0 0 0 0 0 0 0 0 0 0.25 0"/>
<feBlend mode="normal" in2="shape" result="effect1_innerShadow_1_700"/>
</filter>
</defs>
</svg>
