<svg width="356" height="87" viewBox="0 0 356 87" fill="none" xmlns="http://www.w3.org/2000/svg">
<g filter="url(#filter0_i_421_7108)">
<path d="M24.5279 0.450636C37.3173 -1.53191 50.7951 3.12975 59.7679 12.4119C60.0811 12.8076 60.8436 13.4217 60.2543 13.9328C58.6056 15.8247 56.6931 17.461 54.9291 19.2416C53.1939 17.6959 51.5947 15.9854 49.7317 14.5881C41.5132 8.54157 30.4218 6.69092 20.6741 9.68329C14.9451 11.3526 9.92491 14.8148 5.81975 19.0932C3.68474 17.3579 1.7146 15.4125 0 13.2651C6.42151 6.40652 15.1429 1.57587 24.532 0.450636H24.5279Z" fill="#F70075" fill-opacity="0.5"/>
</g>
<path d="M24.6045 0.944336C37.0329 -0.98221 50.1307 3.4492 58.9902 12.333L59.4082 12.7598C59.4941 12.8637 59.6053 12.9861 59.6826 13.0742C59.7848 13.1907 59.8651 13.2915 59.918 13.3818C59.9597 13.4533 59.9677 13.4923 59.9697 13.5059C59.9649 13.514 59.9544 13.5307 59.9268 13.5547L59.9004 13.5781L59.877 13.6045C58.3403 15.3678 56.6134 16.868 54.9141 18.5518C53.3466 17.1224 51.7828 15.5022 50.0312 14.1885L50.0283 14.1855L49.6348 13.9004C41.3317 7.98804 30.2757 6.21504 20.5342 9.20312C14.8534 10.8584 9.87571 14.2417 5.78516 18.4141C3.92248 16.8662 2.1963 15.1556 0.666992 13.2891C6.98744 6.67575 15.4782 2.03947 24.5918 0.947266L24.583 0.805664L24.6045 0.944336Z" stroke="#F70075"/>
<g filter="url(#filter1_i_421_7108)">
<path d="M10.8984 24.3229C20.5596 13.1943 39.9478 13.2726 49.6254 24.3394C48.0715 26.223 46.3693 27.9706 44.4651 29.4916C40.3764 25.749 35.0059 23.0575 29.3387 23.4903C24.2855 23.6428 19.6734 26.054 15.9598 29.3555C14.1916 27.7645 12.5141 26.0788 10.9026 24.3229H10.8984Z" fill="#F70075" fill-opacity="0.5"/>
</g>
<path d="M30.2549 16.5078C37.2568 16.5192 44.2343 19.1534 48.9619 24.3496C47.5919 25.9772 46.1094 27.4903 44.4785 28.832C40.3729 25.1879 35.0149 22.5636 29.3232 22.9902C24.2733 23.1427 19.6801 25.4833 15.9668 28.6846C14.4426 27.2941 12.9841 25.8327 11.5762 24.3145C16.2947 19.1021 23.26 16.4964 30.2549 16.5078Z" stroke="#F70075"/>
<g filter="url(#filter2_i_421_7108)">
<path d="M205.233 20.6641C208.04 20.7547 210.851 20.7259 213.658 20.6805C213.991 23.0093 213.835 25.3587 213.851 27.6998V57.8544C213.847 60.2161 213.958 62.5902 213.695 64.9478C210.859 64.9437 208.023 64.919 205.183 64.9643C204.883 62.6067 205.031 60.2244 205.014 57.8544C204.998 46.3053 205.031 34.7604 204.998 23.203C205.002 22.3498 205.105 21.5049 205.229 20.6641H205.233Z" fill="#F70075" fill-opacity="0.5"/>
</g>
<path d="M205.662 21.1758C208.184 21.2462 210.707 21.2253 213.219 21.1865C213.437 23.0396 213.365 24.8932 213.352 26.8115V57.8535C213.348 60.0946 213.443 62.2731 213.242 64.4463C210.711 64.4409 208.171 64.4258 205.628 64.46C205.432 62.5788 205.503 60.6948 205.515 58.7529V57.8506C205.498 46.308 205.531 34.7592 205.498 23.2051C205.501 22.532 205.57 21.8591 205.662 21.1758Z" stroke="#F70075"/>
<g filter="url(#filter3_i_421_7108)">
<path d="M69.712 23.2124C76.3643 22.8992 83.0249 23.163 89.6731 23.0847C92.4758 23.1053 95.2867 22.9445 98.0771 23.2413C98.3491 25.6484 98.3162 28.0843 98.1059 30.4955C94.8993 30.7676 91.6803 30.6109 88.4613 30.6233C88.3459 31.6908 88.2758 32.7625 88.2841 33.8382C88.3418 44.2044 88.2635 54.5623 88.3212 64.9243C85.3041 64.9572 82.283 64.9531 79.27 64.9243C79.1959 53.4947 79.4596 42.0446 79.1423 30.6192C75.9892 30.6068 72.8279 30.7552 69.679 30.5038C69.3822 28.0802 69.4276 25.636 69.712 23.2124Z" fill="#F70075" fill-opacity="0.5"/>
</g>
<path d="M70.1641 23.6934C75.8352 23.4471 81.4817 23.6059 87.1748 23.5996L89.6787 23.585C92.3824 23.6045 94.9996 23.4613 97.6191 23.6992C97.8261 25.7952 97.805 27.9163 97.6396 30.0293C94.6016 30.252 91.5687 30.1111 88.459 30.123L88.0127 30.125L87.9639 30.5693C87.8471 31.6499 87.7759 32.7408 87.7842 33.8398V33.8408C87.813 39.0218 87.8079 44.2012 87.8027 49.3818C87.7977 54.3957 87.7925 59.4113 87.8184 64.4277C85.1354 64.4535 82.4493 64.45 79.7686 64.4268C79.705 53.1825 79.9545 41.87 79.6416 30.6055L79.6289 30.1211L79.1445 30.1191C76.0966 30.1072 73.1156 30.2405 70.1289 30.0342C69.9052 27.9304 69.941 25.8082 70.1641 23.6934Z" stroke="#F70075"/>
<g filter="url(#filter4_i_421_7108)">
<path d="M218.309 23.2898C222.319 22.8364 226.362 23.1909 230.385 23.0672C235.154 23.0549 240.458 23.4258 244.217 26.7191C249.394 31.1458 249.468 40.9473 243.245 44.4878C241.542 45.712 239.173 45.4441 237.582 46.8001C239.44 47.1793 241.464 47.3483 243.022 48.5477C245.619 50.3572 246.505 53.6051 247.181 56.5315C247.717 59.3343 248.566 62.0835 248.838 64.9357C245.718 64.9481 242.602 64.9646 239.486 64.9192C238.682 61.5394 238.402 58.0524 237.375 54.7344C236.765 52.6777 235.183 50.691 232.953 50.3737C231.061 50.1634 229.149 50.2953 227.253 50.2747C227.146 55.1672 227.463 60.0762 227.092 64.9563C224.162 64.9357 221.235 64.9604 218.305 64.9357C218.334 51.0537 218.321 37.1718 218.309 23.2939V23.2898ZM227.261 30.2019C227.232 34.7194 227.273 39.2326 227.24 43.75C229.375 43.7707 231.519 43.9025 233.641 43.6511C235.937 43.3791 238.113 41.6851 238.525 39.3398C239.065 36.6978 238.95 33.2974 236.638 31.5044C233.897 29.5961 230.385 30.3998 227.261 30.2019Z" fill="#F70075" fill-opacity="0.5"/>
</g>
<path d="M224.338 23.5547C226.338 23.5711 228.375 23.6295 230.398 23.5674C235.171 23.5557 240.288 23.9411 243.888 27.0947L243.893 27.0986C246.346 29.1969 247.615 32.5983 247.507 35.9199C247.399 39.2369 245.922 42.3895 242.997 44.0537L242.975 44.0664L242.953 44.082C242.194 44.6279 241.278 44.8482 240.248 45.1104C239.255 45.3631 238.153 45.6564 237.257 46.4199L236.477 47.085L237.481 47.29C238.456 47.4888 239.369 47.6141 240.29 47.8506C241.189 48.0815 242.012 48.4021 242.717 48.9443L242.736 48.958C245.153 50.6421 246.012 53.6918 246.693 56.6436C246.963 58.0489 247.312 59.4517 247.62 60.8242C247.891 62.031 248.134 63.2286 248.28 64.4365C245.476 64.4479 242.68 64.459 239.885 64.4229C239.535 62.8754 239.285 61.3076 239.007 59.7178C238.708 58.0063 238.377 56.2782 237.854 54.5869H237.853C237.21 52.4273 235.518 50.2339 233.023 49.8789L233.008 49.877L232.284 49.8115C230.59 49.6933 228.868 49.7919 227.258 49.7744L226.764 49.7695L226.753 50.2637C226.699 52.7198 226.752 55.1842 226.771 57.624C226.79 59.9135 226.776 62.1891 226.624 64.4541C223.99 64.4396 221.43 64.455 218.805 64.4375C218.832 50.8704 218.821 37.3034 218.809 23.7412C220.637 23.5614 222.478 23.5395 224.338 23.5547ZM226.761 30.1992C226.746 32.46 226.749 34.7195 226.752 36.9766C226.755 39.2344 226.757 41.4899 226.74 43.7461L226.736 44.2451L227.235 44.25C229.335 44.2703 231.535 44.4039 233.7 44.1475C236.166 43.8552 238.552 42.036 239.015 39.4385L239.016 39.4395C239.294 38.0764 239.408 36.4993 239.144 35.0156C238.878 33.5288 238.226 32.1031 236.944 31.1094L236.934 31.1016L236.924 31.0938L236.643 30.9092C235.229 30.0259 233.66 29.7718 232.112 29.7119C231.288 29.68 230.453 29.7031 229.647 29.7207C228.835 29.7384 228.05 29.751 227.293 29.7031L226.765 29.6699L226.761 30.1992Z" stroke="#F70075"/>
<g filter="url(#filter5_i_421_7108)">
<path d="M6.27299 29.9948C8.60172 30.9963 9.9124 33.3663 11.7671 34.9944C9.99071 39.8004 9.88355 45.3482 12.0227 50.0552C13.0407 52.4334 14.5286 54.5602 16.0083 56.6664C20.4597 62.8202 25.1789 68.7802 30.0466 74.6083C31.8725 72.9225 33.2697 70.8575 34.8318 68.9409C38.5042 64.2216 42.292 59.5723 45.6965 54.6468C48.3137 51.0691 50.1149 46.7413 49.7398 42.2322C49.8923 39.8086 48.5404 37.6076 48.5404 35.2294C50.119 33.2922 51.9985 31.6105 53.8614 29.9453C57.6039 36.4947 58.4859 44.7382 55.6997 51.8028C54.4591 55.1538 52.3447 58.0637 50.2756 60.9448C43.9613 69.654 37.0658 77.9263 30.3022 86.2975C24.6679 80.4117 19.792 73.8293 14.7182 67.4612C10.3411 61.5301 5.14366 55.6855 3.73818 48.2128C2.44399 42.0302 3.82062 35.7116 6.26887 29.9989L6.27299 29.9948Z" fill="#F70075" fill-opacity="0.5"/>
</g>
<path d="M6.5293 30.6758C7.38908 31.1435 8.11479 31.824 8.83008 32.5986C9.57142 33.4015 10.3353 34.3439 11.1846 35.1377C9.48024 39.9735 9.41267 45.5202 11.5674 50.2617C12.6091 52.6916 14.1265 54.8573 15.5996 56.9541L15.6035 56.96C20.0632 63.1251 24.7901 69.0942 29.6631 74.9287L30 75.332L30.3857 74.9756C32.0135 73.4727 33.3265 71.653 34.6504 69.9688L35.2197 69.2568L35.2266 69.248C38.8869 64.5442 42.6865 59.879 46.0996 54.9424C48.753 51.3154 50.6158 46.8833 50.2402 42.2275C50.3143 40.9345 49.9932 39.7144 49.6787 38.5801C49.3712 37.4708 49.0762 36.4485 49.0459 35.4023C50.4403 33.7183 52.0681 32.2251 53.7285 30.7373C57.146 37.075 57.8837 44.9014 55.2344 51.6191L55.2305 51.6289C54.1691 54.4957 52.4513 57.0399 50.6465 59.5693L49.8691 60.6533C43.6769 69.1939 36.9269 77.3119 30.2734 85.5381C25.5226 80.5171 21.3054 75.0137 17.0088 69.5508L15.1094 67.1494C12.9048 64.1631 10.5419 61.2587 8.53418 58.1445C6.53094 55.0373 4.9158 51.7691 4.22949 48.1201L4.22754 48.1104L4.11621 47.543C3.0777 41.8473 4.30637 36.0278 6.5293 30.6758Z" stroke="#F70075"/>
<g filter="url(#filter6_i_421_7108)">
<path d="M26.2472 30.3211C30.1009 29.0763 34.5152 29.7358 37.8248 32.0852C42.3751 35.127 44.6997 41.2148 43.0923 46.4865C41.4725 52.6031 35.0757 57.0051 28.7696 56.1148C21.6103 55.5996 15.906 48.2341 17.1054 41.1777C17.7401 36.1987 21.4537 31.809 26.2513 30.3211H26.2472ZM28.4481 37.464C25.8474 38.2966 24.0091 41.0994 24.5119 43.8362C24.953 47.7972 30.0102 50.027 33.2993 47.8466C36.6996 45.9919 36.8892 40.5553 33.7568 38.3667C32.3266 37.0601 30.2204 37.1755 28.4481 37.4681V37.464Z" fill="#F70075" fill-opacity="0.5"/>
</g>
<path d="M26.4004 30.7969C30.1054 29.6002 34.3554 30.236 37.5352 32.4932L37.5469 32.501C41.9223 35.4259 44.1545 41.2895 42.6143 46.3408L42.6113 46.3496L42.6094 46.3584C41.0523 52.2382 34.8868 56.4736 28.8398 55.6201L28.8223 55.6172L28.8057 55.6162L28.4854 55.5879C21.7744 54.9008 16.4662 47.925 17.5986 41.2617L17.5996 41.251L17.6016 41.2412C18.2113 36.4583 21.7872 32.2293 26.3994 30.7988L26.3975 30.7881L26.4004 30.7969ZM34.0781 37.9834C32.628 36.6718 30.6155 36.6677 28.9482 36.8887V36.7793L28.2959 36.9883C25.4858 37.8879 23.4853 40.8992 24.0146 43.8906V43.8916C24.2586 46.0822 25.7746 47.7634 27.6318 48.6006C29.4825 49.4348 31.7481 49.4654 33.5596 48.2734C35.4318 47.2412 36.391 45.2457 36.4775 43.2539C36.5636 41.2697 35.7876 39.1989 34.0781 37.9834Z" stroke="#F70075"/>
<g filter="url(#filter7_i_421_7108)">
<path d="M109.456 34.0929C111.269 31.3273 114.934 30.4782 118.017 31.1954C118.045 34.4515 117.856 37.6953 117.848 40.9432C115.577 40.6918 112.972 40.2137 111.059 41.8129C108.29 44.018 107.675 47.8224 107.473 51.1486C107.313 55.7444 107.502 60.3442 107.383 64.9399C104.428 64.9523 101.481 64.9234 98.5336 64.9688C98.3811 63.5344 98.344 62.0877 98.3646 60.6533C98.4594 50.959 98.2657 41.2647 98.4594 31.5704C100.928 31.4715 103.401 31.4344 105.87 31.6199C106.109 35.7416 105.858 39.8675 106.006 43.9933C106.208 43.8862 106.604 43.6801 106.806 43.5811C107.453 40.3703 107.519 36.8792 109.46 34.0888L109.456 34.0929Z" fill="#F70075" fill-opacity="0.5"/>
</g>
<path d="M109.874 34.3672C111.465 31.9404 114.661 31.072 117.517 31.6016C117.522 33.0855 117.487 34.569 117.446 36.0586C117.407 37.4945 117.365 38.9373 117.353 40.3818C116.384 40.2676 115.323 40.1418 114.298 40.1846C113.062 40.2361 111.815 40.5336 110.748 41.4219C107.789 43.7774 107.176 47.7975 106.975 51.1182L106.974 51.1309C106.893 53.4401 106.901 55.7486 106.913 58.0469C106.925 60.1848 106.937 62.3133 106.892 64.4395C104.261 64.4467 101.62 64.43 98.9863 64.4639C98.8736 63.203 98.846 61.9298 98.8643 60.6602V60.6582C98.9578 51.092 98.7717 41.5946 98.9502 32.0527C101.106 31.9738 103.254 31.9518 105.394 32.0898C105.488 33.9865 105.485 35.8877 105.472 37.8018C105.457 39.8595 105.432 41.9355 105.507 44.0117L105.535 44.8096L106.24 44.4346C106.441 44.3279 106.831 44.1255 107.025 44.0303L107.247 43.9219L107.296 43.6797C107.46 42.864 107.588 42.0321 107.715 41.2129C107.843 40.3894 107.97 39.5769 108.137 38.7803C108.47 37.1875 108.954 35.6906 109.87 34.374L109.817 34.3301L109.874 34.3672Z" stroke="#F70075"/>
<g filter="url(#filter8_i_421_7108)">
<path d="M124.293 32.7563C128.023 30.5099 132.685 30.3986 136.852 31.2436C140.013 31.8454 142.643 34.2318 143.813 37.1912C145.54 41.4448 145.042 46.1189 145.108 50.5992C145.029 55.3845 145.297 60.1657 145.441 64.9428C142.907 64.9428 140.364 64.9469 137.829 64.9263C137.417 62.2142 137.404 59.4691 137.384 56.7364C136.23 56.6416 136.155 57.9812 135.768 58.7643C135.121 60.6892 134.07 62.5275 132.462 63.8176C128.971 66.7563 123.242 66.4431 120.073 63.1746C116.78 59.3043 117.179 52.4993 121.507 49.5275C125.254 46.7784 130.072 46.6465 134.255 44.9318C136.691 44.1034 136.897 40.6947 135.343 38.9636C134.111 37.4427 131.869 37.7229 130.179 38.0815C128.011 39.0749 127.253 41.5644 127.253 43.7777C124.495 43.8602 121.779 43.3408 119.084 42.8339C118.894 38.8935 120.835 34.7883 124.289 32.7604L124.293 32.7563ZM128.242 51.8069C126.42 52.862 126.482 55.2279 126.845 57.0291C128.345 59.6381 132.372 59.2507 134.103 57.0785C136.304 54.9888 136.559 51.8233 136.304 48.9752C133.55 49.6801 130.682 50.2983 128.242 51.8069Z" fill="#F70075" fill-opacity="0.5"/>
</g>
<path d="M124.602 33.1543C128.174 31.0271 132.669 30.9052 136.753 31.7334L136.759 31.7344C139.734 32.3008 142.234 34.5575 143.349 37.375L143.351 37.3789C144.184 39.4313 144.486 41.6 144.584 43.832C144.684 46.0956 144.574 48.3115 144.607 50.6064C144.532 55.2289 144.777 59.8563 144.924 64.4424C142.703 64.4428 140.48 64.4434 138.263 64.4277C137.917 61.8948 137.903 59.328 137.884 56.7324L137.88 56.2754L137.425 56.2383L137.279 56.2314C136.946 56.2298 136.655 56.3208 136.409 56.4951C136.141 56.6857 135.966 56.9495 135.842 57.1973C135.718 57.4437 135.626 57.7144 135.548 57.9434C135.465 58.1872 135.398 58.3832 135.319 58.543L135.305 58.5732L135.294 58.6055C134.706 60.3552 133.784 61.9974 132.427 63.1943L132.149 63.4277L132.141 63.4346C128.855 66.2005 123.43 65.9078 120.44 62.834C118.901 61.0152 118.211 58.4922 118.43 56.0586C118.648 53.6201 119.772 51.325 121.79 49.9395L121.797 49.9355L121.803 49.9307C123.598 48.6131 125.665 47.9115 127.848 47.3242C130.004 46.744 132.314 46.2667 134.444 45.3936C135.865 44.8972 136.611 43.6563 136.791 42.3545C136.959 41.1363 136.646 39.797 135.876 38.8203L135.716 38.6299C134.986 37.7426 133.976 37.4008 132.974 37.3193C131.972 37.238 130.93 37.4114 130.075 37.5928L130.021 37.6035L129.971 37.627C127.705 38.6652 126.873 41.1154 126.766 43.2852C124.364 43.2975 121.984 42.868 119.572 42.415C119.534 38.7619 121.381 35.0471 124.542 33.1914L124.598 33.1592L124.602 33.1543ZM136.18 48.4912C133.465 49.1862 130.509 49.821 127.991 51.374C126.917 51.996 126.416 53.0034 126.231 54.0518C126.049 55.0882 126.168 56.2001 126.354 57.1279L126.37 57.208L126.411 57.2783C127.275 58.7812 128.857 59.393 130.402 59.3467C131.927 59.3009 133.499 58.6162 134.47 57.418C136.826 55.1602 137.059 51.7976 136.802 48.9307L136.749 48.3447L136.18 48.4912Z" stroke="#F70075"/>
<g filter="url(#filter9_i_421_7108)">
<path d="M177.981 36.162C180.021 32.9841 183.652 31.084 187.378 30.8367C191.199 30.5235 195.456 31.3272 198.127 34.2825C201.841 38.2641 202.393 44.1705 201.791 49.3391C195.753 49.875 189.674 49.607 183.619 49.7348C183.528 52.1707 183.677 54.751 185.086 56.8365C186.5 59.256 190.094 60.068 192.324 58.2956C193.94 57.0715 193.94 54.8458 194.525 53.0817C197.043 53.4402 199.574 53.7535 202.121 53.9596C202.653 58.6707 199.652 63.5714 195.081 64.9975C190.63 66.3618 185.499 66.2258 181.389 63.9012C177.329 61.6713 175.438 57.0055 174.873 52.6159C174.341 47.0104 174.762 40.9679 177.985 36.1661L177.981 36.162ZM187.106 38.0992C184.617 39.4017 183.846 42.4394 183.561 45.0237C186.925 45.4853 190.284 44.8629 193.651 44.8712C193.861 42.7732 193.412 40.4156 191.858 38.8906C190.642 37.6211 188.676 37.6788 187.106 38.0992Z" fill="#F70075" fill-opacity="0.5"/>
</g>
<path d="M187.419 31.335C191.167 31.0277 195.235 31.8284 197.756 34.6182L197.762 34.623C201.229 38.3407 201.855 43.8589 201.336 48.873C195.455 49.3598 189.57 49.1095 183.608 49.2354L183.137 49.2451L183.119 49.7158C183.028 52.1648 183.166 54.8885 184.672 57.1162C186.239 59.7578 190.158 60.6554 192.635 58.6875L192.634 58.6865C193.56 57.9807 194.003 57.0017 194.29 56.0332C194.433 55.549 194.543 55.0485 194.649 54.5791C194.724 54.25 194.797 53.9346 194.88 53.6348C197.126 53.9497 199.385 54.2264 201.66 54.4209C201.947 58.6396 199.31 62.9245 195.334 64.3838L194.935 64.5195C190.583 65.8532 185.599 65.7081 181.636 63.4658L181.63 63.4629C177.779 61.3476 175.928 56.8828 175.37 52.5615C174.843 46.9994 175.275 41.1011 178.4 36.4443L178.629 36.1035L178.624 36.0986C180.604 33.2696 183.956 31.5652 187.411 31.3359L187.419 31.335ZM192.22 38.5449C190.802 37.0651 188.584 37.1858 186.977 37.6162L186.923 37.6309L186.874 37.6562C185.499 38.3758 184.618 39.5666 184.048 40.8818C183.48 42.1929 183.209 43.6547 183.064 44.9688L183.011 45.4531L183.493 45.5186C185.224 45.7562 186.945 45.7135 188.634 45.6162C190.337 45.5181 191.987 45.367 193.65 45.3711L194.104 45.3721L194.148 44.9209C194.366 42.7445 193.913 40.2162 192.219 38.5449H192.22Z" stroke="#F70075"/>
<g filter="url(#filter10_i_421_7108)">
<path d="M260.159 31.2405C264.792 30.173 270.121 30.7541 273.851 33.9155C276.901 36.5781 278.175 40.6834 278.604 44.5907C278.933 49.6399 278.884 55.0682 276.168 59.532C274.276 62.9984 270.546 65.1829 266.676 65.6528C262.035 66.2875 256.714 65.1623 253.643 61.3827C250.548 57.6072 249.711 52.5498 249.711 47.8016C249.826 43.2718 250.642 38.3917 253.791 34.9171C255.44 33.0293 257.756 31.8505 260.155 31.2364L260.159 31.2405ZM262.426 37.9919C258.935 39.8178 259.104 44.4176 258.803 47.8016C258.96 50.9506 258.799 54.4087 260.679 57.1208C261.874 59.1363 264.776 59.87 266.717 58.4686C269.046 56.8446 269.421 53.7575 269.68 51.1525C269.82 47.4595 269.911 43.515 268.172 40.1517C267.17 38.1114 264.532 36.9037 262.426 37.9919Z" fill="#F70075" fill-opacity="0.5"/>
</g>
<path d="M260.271 31.7275C264.662 30.7158 269.633 31.2337 273.188 34.0205L273.528 34.2969C276.433 36.8362 277.681 40.7837 278.104 44.6357C278.433 49.6773 278.366 54.9576 275.74 59.2725L275.729 59.292C273.926 62.5943 270.352 64.7025 266.615 65.1562L266.607 65.1572C262.066 65.7783 256.952 64.662 254.031 61.0674L254.029 61.0654C251.046 57.4269 250.212 52.5172 250.211 47.8145C250.326 43.313 251.139 38.5889 254.162 35.2529L254.168 35.2461C255.704 33.4877 257.868 32.3601 260.151 31.7549L260.271 31.7275ZM268.615 39.9219C267.514 37.6915 264.6 36.3062 262.196 37.5479L262.194 37.5488C260.27 38.5555 259.382 40.3228 258.933 42.1963C258.49 44.0448 258.451 46.1169 258.306 47.7568L258.302 47.792L258.304 47.8262C258.38 49.3661 258.382 51.0668 258.6 52.6914C258.82 54.3312 259.266 55.96 260.268 57.4053C261.612 59.6306 264.82 60.4529 267.009 58.873C268.288 57.9782 269.013 56.6934 269.45 55.3311C269.886 53.9736 270.048 52.5008 270.178 51.2021L270.18 51.1865V51.1719C270.319 47.4989 270.424 43.4201 268.615 39.9219Z" stroke="#F70075"/>
<g filter="url(#filter11_i_421_7108)">
<path d="M285.271 33.4662C288.828 30.7583 293.63 30.3956 297.912 31.0427C301.218 31.529 304.354 33.5652 305.681 36.71C307.952 41.788 306.873 47.4718 307.145 52.8425C307.021 56.89 307.59 60.9169 307.511 64.9562C304.964 64.9356 302.417 64.9603 299.874 64.9232C299.454 62.2359 299.342 59.5196 299.359 56.8034C299.107 56.824 298.6 56.8776 298.341 56.9023C297.838 59.4248 296.787 61.9267 294.751 63.6043C290.835 67.2355 283.354 66.4029 280.98 61.3991C279.311 57.7432 279.69 52.7889 282.901 50.0727C285.91 47.5419 289.933 46.936 293.589 45.8396C295.179 45.3368 297.113 45.0235 298.106 43.5274C298.448 41.99 298.563 40.1063 297.364 38.9028C295.588 37.0192 292.187 37.3489 290.617 39.3438C289.545 40.5556 289.422 42.2537 289.166 43.7829C286.446 43.8282 283.783 43.2677 281.125 42.8267C281.067 39.3067 282.415 35.6384 285.267 33.4621L285.271 33.4662ZM291.66 51.066C290.073 51.7584 288.465 53.1639 288.605 55.0599C288.309 57.1497 290.271 59.1157 292.364 58.8231C294.681 58.9508 296.457 57.0425 297.529 55.1918C298.658 53.3164 298.254 51.0413 298.3 48.9598C296.053 49.5616 293.803 50.1716 291.66 51.066Z" fill="#F70075" fill-opacity="0.5"/>
</g>
<path d="M285.574 33.8643C288.976 31.2742 293.616 30.8992 297.838 31.5371H297.839C300.907 31.9886 303.788 33.8303 305.099 36.6309L305.221 36.9043L305.225 36.9141C306.32 39.3625 306.616 41.9742 306.663 44.6748C306.687 46.0262 306.649 47.3865 306.621 48.7598C306.594 50.1173 306.576 51.4844 306.644 52.8359C306.582 54.8821 306.695 56.9192 306.812 58.9316C306.919 60.7876 307.028 62.6216 307.016 64.4541C304.766 64.4407 302.544 64.4536 300.308 64.4268C299.945 61.9119 299.843 59.3661 299.858 56.8066L299.862 56.2607L299.318 56.3047C299.064 56.3256 298.541 56.3807 298.293 56.4043L297.923 56.4395L297.851 56.8047C297.359 59.2692 296.344 61.6437 294.433 63.2188L294.422 63.2275L294.411 63.2373C292.582 64.9336 289.892 65.6072 287.358 65.2451C284.907 64.8948 282.676 63.5875 281.539 61.3994L281.433 61.1846C279.831 57.6698 280.234 52.9844 283.223 50.4551C284.658 49.2478 286.349 48.4888 288.158 47.8936C289.063 47.5959 289.991 47.3411 290.929 47.0908C291.862 46.8416 292.809 46.5952 293.732 46.3184L293.739 46.3164C294.48 46.0824 295.432 45.8565 296.26 45.5195C297.113 45.1721 297.948 44.6689 298.522 43.8037L298.574 43.7266L298.594 43.6357C298.936 42.096 299.119 39.9668 297.727 38.5596H297.728C296.716 37.4875 295.263 37.0645 293.875 37.1699C292.488 37.2753 291.108 37.911 290.224 39.0342C289.628 39.717 289.306 40.5198 289.101 41.3203C288.934 41.968 288.835 42.6551 288.738 43.2832C286.36 43.2689 284.025 42.8116 281.625 42.4043C281.676 39.2412 282.899 36.0485 285.321 34.0566L285.574 33.8643ZM298.17 48.4766C295.928 49.0772 293.646 49.6953 291.467 50.6045L291.46 50.6074C289.833 51.3175 287.971 52.8442 288.104 55.0449C287.804 57.4269 289.999 59.623 292.385 59.3232C294.983 59.4394 296.882 57.3071 297.962 55.4424L297.961 55.4414C298.583 54.4039 298.773 53.2744 298.82 52.1748C298.844 51.624 298.832 51.0701 298.818 50.5352C298.804 49.9947 298.789 49.4763 298.8 48.9707L298.813 48.3047L298.17 48.4766Z" stroke="#F70075"/>
<g filter="url(#filter12_i_421_7108)">
<path d="M321.939 33.8402C324.437 30.0482 330.908 29.5742 333.599 33.3786C335.499 36.0701 335.582 39.52 335.648 42.6854C335.887 42.6195 336.369 42.4752 336.604 42.4052C337.152 39.2438 337.742 35.8681 339.897 33.3539C342.111 30.7695 346.006 30.1801 349.109 31.2806C351.475 32.1173 353.111 34.273 353.849 36.6059C355.39 41.2923 354.945 46.3002 355.011 51.1515C354.933 55.7472 355.172 60.3553 354.871 64.9427C351.961 64.9263 349.051 64.9386 346.15 64.9304C346.092 58.4675 346.199 52.0088 346.104 45.5542C345.911 43.4397 345.837 41.0491 344.369 39.3674C342.766 37.9084 340.289 38.8852 339.316 40.5916C337.964 42.9245 337.676 45.6943 337.424 48.3322C337.334 53.8594 337.424 59.3949 337.395 64.9221C334.531 64.9427 331.666 64.9345 328.802 64.9345C328.612 57.7751 329.09 50.5909 328.418 43.448C328.266 41.9188 327.879 40.233 326.63 39.2108C325.084 37.9784 322.772 38.9141 321.894 40.5133C319.569 44.3836 319.986 49.07 319.94 53.3896C319.862 57.2434 320.126 61.1013 319.784 64.9427C316.853 64.9304 313.919 64.9551 310.996 64.9263C311.013 53.8471 311.025 42.772 310.992 31.6969C313.37 31.4166 315.777 31.4496 318.168 31.6062C318.353 35.3529 318.094 39.1078 318.25 42.8585C318.869 42.6731 319.215 42.265 319.285 41.6426C319.767 38.9305 320.361 36.1484 321.943 33.8402H321.939Z" fill="#F70075" fill-opacity="0.5"/>
</g>
<path d="M327.723 31.2598C329.86 31.1496 331.966 31.9361 333.19 33.666V33.667C334.987 36.2122 335.081 39.4984 335.147 42.6963L335.161 43.3379L335.781 43.167C336.027 43.0992 336.516 42.9538 336.747 42.8848L337.044 42.7959L337.097 42.4902C337.65 39.3013 338.226 36.0715 340.276 33.6797L340.277 33.6787C342.262 31.362 345.758 30.7415 348.663 31.6582L348.942 31.752C351.119 32.5218 352.667 34.5262 353.372 36.7568L353.374 36.7617C354.79 41.0652 354.492 45.6252 354.504 50.2354L354.512 51.1582C354.436 55.6429 354.654 60.0267 354.399 64.4414C351.813 64.4294 349.221 64.436 346.646 64.4307C346.598 58.161 346.697 51.8232 346.604 45.5469V45.5273L346.603 45.5088L346.455 43.8799C346.397 43.3196 346.321 42.7499 346.204 42.1953C345.968 41.0764 345.556 39.9675 344.746 39.0391L344.727 39.0166L344.706 38.998L344.523 38.8438C343.6 38.1145 342.473 38.0182 341.466 38.3125C340.404 38.6229 339.436 39.3741 338.884 40.3408C337.468 42.7832 337.177 45.6645 336.927 48.2852L336.925 48.3047L336.924 48.3242C336.836 53.6852 336.918 59.0766 336.896 64.4229C334.362 64.4382 331.829 64.4353 329.291 64.4346C329.215 61.0269 329.28 57.6182 329.291 54.1865C329.303 50.5989 329.254 46.9976 328.916 43.4014V43.3984L328.846 42.8057C328.647 41.3974 328.185 39.8384 326.946 38.8242L326.941 38.8203L326.765 38.6885C325.868 38.0703 324.801 38.0246 323.86 38.3232C322.926 38.6198 322.073 39.2661 321.555 40.1025L321.465 40.2559C320.249 42.2804 319.76 44.503 319.564 46.7393C319.37 48.9578 319.463 51.2563 319.44 53.3789C319.364 57.143 319.604 60.7716 319.321 64.4414C316.702 64.4336 314.1 64.4493 311.496 64.4287C311.512 53.6668 311.523 42.9077 311.492 32.1484C313.539 31.9408 315.611 31.9564 317.688 32.0781C317.756 33.7856 317.74 35.498 317.72 37.2246C317.698 39.0973 317.672 40.9886 317.751 42.8799L317.777 43.5225L318.395 43.3379C318.777 43.2232 319.108 43.0287 319.354 42.7383C319.595 42.455 319.73 42.1101 319.777 41.7305C320.26 39.0151 320.841 36.3324 322.355 34.123L322.48 33.9395C323.647 32.3101 325.656 31.3664 327.723 31.2598Z" stroke="#F70075"/>
<g filter="url(#filter13_i_421_7108)">
<path d="M145.5 31.7547C148.583 31.7712 151.67 31.5692 154.741 31.8289C155.384 32.2493 155.178 33.2014 155.429 33.8485C156.686 41.2017 158.31 48.4889 159.699 55.8173C159.963 56.4479 159.827 57.7174 160.787 57.7092C162.308 49.0494 164.472 40.5092 165.968 31.8453C169.006 31.6145 172.06 31.7341 175.11 31.7547C172.967 41.3995 169.776 50.797 167.46 60.4048C167.093 61.8226 166.797 63.2817 166.248 64.6501C165.577 65.0912 164.707 64.8727 163.961 64.9593C160.746 64.8768 157.527 65.0953 154.324 64.7903C152.28 56.1676 149.671 47.6934 147.367 39.1408C146.679 36.6966 145.846 34.2813 145.5 31.7547Z" fill="#F70075" fill-opacity="0.5"/>
</g>
<path d="M146.082 32.2529C148.955 32.2457 151.741 32.0921 154.546 32.3154C154.634 32.4115 154.695 32.5642 154.738 32.834C154.769 33.0218 154.779 33.1614 154.811 33.3887C154.836 33.568 154.873 33.7719 154.942 33.9707C156.199 41.3121 157.826 48.6201 159.208 55.9102L159.218 55.9619L159.237 56.0098C159.28 56.1116 159.314 56.2592 159.354 56.4736C159.391 56.6674 159.434 56.9183 159.503 57.1475C159.572 57.3763 159.683 57.6449 159.894 57.8574C160.122 58.0879 160.426 58.212 160.791 58.209L161.208 58.2051L161.279 57.7959C162.038 53.4766 162.957 49.1852 163.876 44.8828C164.766 40.7121 165.654 36.5307 166.392 32.3193C169.07 32.1415 171.757 32.2186 174.483 32.2471C173.439 36.8483 172.168 41.3993 170.869 45.957C169.516 50.7063 168.136 55.4661 166.976 60.2793C166.615 61.673 166.337 63.0208 165.845 64.3018C165.65 64.392 165.415 64.429 165.118 64.4375C164.933 64.4428 164.752 64.438 164.542 64.4365C164.359 64.4352 164.16 64.4384 163.96 64.458C162.347 64.4171 160.727 64.4519 159.136 64.458C157.653 64.4637 156.185 64.4439 154.726 64.3223C152.692 55.813 150.116 47.422 147.85 39.0107L147.849 39.0049L147.312 37.1641C146.827 35.5241 146.358 33.9124 146.082 32.2529Z" stroke="#F70075"/>
<defs>
<filter id="filter0_i_421_7108" x="0" y="0" width="60.4727" height="23.2422" filterUnits="userSpaceOnUse" color-interpolation-filters="sRGB">
<feFlood flood-opacity="0" result="BackgroundImageFix"/>
<feBlend mode="normal" in="SourceGraphic" in2="BackgroundImageFix" result="shape"/>
<feColorMatrix in="SourceAlpha" type="matrix" values="0 0 0 0 0 0 0 0 0 0 0 0 0 0 0 0 0 0 127 0" result="hardAlpha"/>
<feOffset dy="4"/>
<feGaussianBlur stdDeviation="2"/>
<feComposite in2="hardAlpha" operator="arithmetic" k2="-1" k3="1"/>
<feColorMatrix type="matrix" values="0 0 0 0 0 0 0 0 0 0 0 0 0 0 0 0 0 0 0.25 0"/>
<feBlend mode="normal" in2="shape" result="effect1_innerShadow_421_7108"/>
</filter>
<filter id="filter1_i_421_7108" x="10.8984" y="16.0078" width="38.7266" height="17.4844" filterUnits="userSpaceOnUse" color-interpolation-filters="sRGB">
<feFlood flood-opacity="0" result="BackgroundImageFix"/>
<feBlend mode="normal" in="SourceGraphic" in2="BackgroundImageFix" result="shape"/>
<feColorMatrix in="SourceAlpha" type="matrix" values="0 0 0 0 0 0 0 0 0 0 0 0 0 0 0 0 0 0 127 0" result="hardAlpha"/>
<feOffset dy="4"/>
<feGaussianBlur stdDeviation="2"/>
<feComposite in2="hardAlpha" operator="arithmetic" k2="-1" k3="1"/>
<feColorMatrix type="matrix" values="0 0 0 0 0 0 0 0 0 0 0 0 0 0 0 0 0 0 0.25 0"/>
<feBlend mode="normal" in2="shape" result="effect1_innerShadow_421_7108"/>
</filter>
<filter id="filter2_i_421_7108" x="204.992" y="20.6641" width="8.88281" height="48.3008" filterUnits="userSpaceOnUse" color-interpolation-filters="sRGB">
<feFlood flood-opacity="0" result="BackgroundImageFix"/>
<feBlend mode="normal" in="SourceGraphic" in2="BackgroundImageFix" result="shape"/>
<feColorMatrix in="SourceAlpha" type="matrix" values="0 0 0 0 0 0 0 0 0 0 0 0 0 0 0 0 0 0 127 0" result="hardAlpha"/>
<feOffset dy="4"/>
<feGaussianBlur stdDeviation="2"/>
<feComposite in2="hardAlpha" operator="arithmetic" k2="-1" k3="1"/>
<feColorMatrix type="matrix" values="0 0 0 0 0 0 0 0 0 0 0 0 0 0 0 0 0 0 0.25 0"/>
<feBlend mode="normal" in2="shape" result="effect1_innerShadow_421_7108"/>
</filter>
<filter id="filter3_i_421_7108" x="69.4766" y="23.0547" width="28.7969" height="45.8926" filterUnits="userSpaceOnUse" color-interpolation-filters="sRGB">
<feFlood flood-opacity="0" result="BackgroundImageFix"/>
<feBlend mode="normal" in="SourceGraphic" in2="BackgroundImageFix" result="shape"/>
<feColorMatrix in="SourceAlpha" type="matrix" values="0 0 0 0 0 0 0 0 0 0 0 0 0 0 0 0 0 0 127 0" result="hardAlpha"/>
<feOffset dy="4"/>
<feGaussianBlur stdDeviation="2"/>
<feComposite in2="hardAlpha" operator="arithmetic" k2="-1" k3="1"/>
<feColorMatrix type="matrix" values="0 0 0 0 0 0 0 0 0 0 0 0 0 0 0 0 0 0 0.25 0"/>
<feBlend mode="normal" in2="shape" result="effect1_innerShadow_421_7108"/>
</filter>
<filter id="filter4_i_421_7108" x="218.305" y="23.0508" width="30.5312" height="45.9062" filterUnits="userSpaceOnUse" color-interpolation-filters="sRGB">
<feFlood flood-opacity="0" result="BackgroundImageFix"/>
<feBlend mode="normal" in="SourceGraphic" in2="BackgroundImageFix" result="shape"/>
<feColorMatrix in="SourceAlpha" type="matrix" values="0 0 0 0 0 0 0 0 0 0 0 0 0 0 0 0 0 0 127 0" result="hardAlpha"/>
<feOffset dy="4"/>
<feGaussianBlur stdDeviation="2"/>
<feComposite in2="hardAlpha" operator="arithmetic" k2="-1" k3="1"/>
<feColorMatrix type="matrix" values="0 0 0 0 0 0 0 0 0 0 0 0 0 0 0 0 0 0 0.25 0"/>
<feBlend mode="normal" in2="shape" result="effect1_innerShadow_421_7108"/>
</filter>
<filter id="filter5_i_421_7108" x="3.24219" y="29.9453" width="54.0938" height="60.3516" filterUnits="userSpaceOnUse" color-interpolation-filters="sRGB">
<feFlood flood-opacity="0" result="BackgroundImageFix"/>
<feBlend mode="normal" in="SourceGraphic" in2="BackgroundImageFix" result="shape"/>
<feColorMatrix in="SourceAlpha" type="matrix" values="0 0 0 0 0 0 0 0 0 0 0 0 0 0 0 0 0 0 127 0" result="hardAlpha"/>
<feOffset dy="4"/>
<feGaussianBlur stdDeviation="2"/>
<feComposite in2="hardAlpha" operator="arithmetic" k2="-1" k3="1"/>
<feColorMatrix type="matrix" values="0 0 0 0 0 0 0 0 0 0 0 0 0 0 0 0 0 0 0.25 0"/>
<feBlend mode="normal" in2="shape" result="effect1_innerShadow_421_7108"/>
</filter>
<filter id="filter6_i_421_7108" x="16.9453" y="29.7031" width="26.6562" height="30.5254" filterUnits="userSpaceOnUse" color-interpolation-filters="sRGB">
<feFlood flood-opacity="0" result="BackgroundImageFix"/>
<feBlend mode="normal" in="SourceGraphic" in2="BackgroundImageFix" result="shape"/>
<feColorMatrix in="SourceAlpha" type="matrix" values="0 0 0 0 0 0 0 0 0 0 0 0 0 0 0 0 0 0 127 0" result="hardAlpha"/>
<feOffset dy="4"/>
<feGaussianBlur stdDeviation="2"/>
<feComposite in2="hardAlpha" operator="arithmetic" k2="-1" k3="1"/>
<feColorMatrix type="matrix" values="0 0 0 0 0 0 0 0 0 0 0 0 0 0 0 0 0 0 0.25 0"/>
<feBlend mode="normal" in2="shape" result="effect1_innerShadow_421_7108"/>
</filter>
<filter id="filter7_i_421_7108" x="98.3594" y="30.9531" width="19.6602" height="38.0156" filterUnits="userSpaceOnUse" color-interpolation-filters="sRGB">
<feFlood flood-opacity="0" result="BackgroundImageFix"/>
<feBlend mode="normal" in="SourceGraphic" in2="BackgroundImageFix" result="shape"/>
<feColorMatrix in="SourceAlpha" type="matrix" values="0 0 0 0 0 0 0 0 0 0 0 0 0 0 0 0 0 0 127 0" result="hardAlpha"/>
<feOffset dy="4"/>
<feGaussianBlur stdDeviation="2"/>
<feComposite in2="hardAlpha" operator="arithmetic" k2="-1" k3="1"/>
<feColorMatrix type="matrix" values="0 0 0 0 0 0 0 0 0 0 0 0 0 0 0 0 0 0 0.25 0"/>
<feBlend mode="normal" in2="shape" result="effect1_innerShadow_421_7108"/>
</filter>
<filter id="filter8_i_421_7108" x="117.891" y="30.7578" width="27.5508" height="39.0801" filterUnits="userSpaceOnUse" color-interpolation-filters="sRGB">
<feFlood flood-opacity="0" result="BackgroundImageFix"/>
<feBlend mode="normal" in="SourceGraphic" in2="BackgroundImageFix" result="shape"/>
<feColorMatrix in="SourceAlpha" type="matrix" values="0 0 0 0 0 0 0 0 0 0 0 0 0 0 0 0 0 0 127 0" result="hardAlpha"/>
<feOffset dy="4"/>
<feGaussianBlur stdDeviation="2"/>
<feComposite in2="hardAlpha" operator="arithmetic" k2="-1" k3="1"/>
<feColorMatrix type="matrix" values="0 0 0 0 0 0 0 0 0 0 0 0 0 0 0 0 0 0 0.25 0"/>
<feBlend mode="normal" in2="shape" result="effect1_innerShadow_421_7108"/>
</filter>
<filter id="filter9_i_421_7108" x="174.68" y="30.7734" width="27.5039" height="39.0977" filterUnits="userSpaceOnUse" color-interpolation-filters="sRGB">
<feFlood flood-opacity="0" result="BackgroundImageFix"/>
<feBlend mode="normal" in="SourceGraphic" in2="BackgroundImageFix" result="shape"/>
<feColorMatrix in="SourceAlpha" type="matrix" values="0 0 0 0 0 0 0 0 0 0 0 0 0 0 0 0 0 0 127 0" result="hardAlpha"/>
<feOffset dy="4"/>
<feGaussianBlur stdDeviation="2"/>
<feComposite in2="hardAlpha" operator="arithmetic" k2="-1" k3="1"/>
<feColorMatrix type="matrix" values="0 0 0 0 0 0 0 0 0 0 0 0 0 0 0 0 0 0 0.25 0"/>
<feBlend mode="normal" in2="shape" result="effect1_innerShadow_421_7108"/>
</filter>
<filter id="filter10_i_421_7108" x="249.711" y="30.75" width="29.0312" height="39.0703" filterUnits="userSpaceOnUse" color-interpolation-filters="sRGB">
<feFlood flood-opacity="0" result="BackgroundImageFix"/>
<feBlend mode="normal" in="SourceGraphic" in2="BackgroundImageFix" result="shape"/>
<feColorMatrix in="SourceAlpha" type="matrix" values="0 0 0 0 0 0 0 0 0 0 0 0 0 0 0 0 0 0 127 0" result="hardAlpha"/>
<feOffset dy="4"/>
<feGaussianBlur stdDeviation="2"/>
<feComposite in2="hardAlpha" operator="arithmetic" k2="-1" k3="1"/>
<feColorMatrix type="matrix" values="0 0 0 0 0 0 0 0 0 0 0 0 0 0 0 0 0 0 0.25 0"/>
<feBlend mode="normal" in2="shape" result="effect1_innerShadow_421_7108"/>
</filter>
<filter id="filter11_i_421_7108" x="280.008" y="30.7656" width="27.5117" height="39.0742" filterUnits="userSpaceOnUse" color-interpolation-filters="sRGB">
<feFlood flood-opacity="0" result="BackgroundImageFix"/>
<feBlend mode="normal" in="SourceGraphic" in2="BackgroundImageFix" result="shape"/>
<feColorMatrix in="SourceAlpha" type="matrix" values="0 0 0 0 0 0 0 0 0 0 0 0 0 0 0 0 0 0 127 0" result="hardAlpha"/>
<feOffset dy="4"/>
<feGaussianBlur stdDeviation="2"/>
<feComposite in2="hardAlpha" operator="arithmetic" k2="-1" k3="1"/>
<feColorMatrix type="matrix" values="0 0 0 0 0 0 0 0 0 0 0 0 0 0 0 0 0 0 0.25 0"/>
<feBlend mode="normal" in2="shape" result="effect1_innerShadow_421_7108"/>
</filter>
<filter id="filter12_i_421_7108" x="310.992" y="30.75" width="44.0352" height="38.1934" filterUnits="userSpaceOnUse" color-interpolation-filters="sRGB">
<feFlood flood-opacity="0" result="BackgroundImageFix"/>
<feBlend mode="normal" in="SourceGraphic" in2="BackgroundImageFix" result="shape"/>
<feColorMatrix in="SourceAlpha" type="matrix" values="0 0 0 0 0 0 0 0 0 0 0 0 0 0 0 0 0 0 127 0" result="hardAlpha"/>
<feOffset dy="4"/>
<feGaussianBlur stdDeviation="2"/>
<feComposite in2="hardAlpha" operator="arithmetic" k2="-1" k3="1"/>
<feColorMatrix type="matrix" values="0 0 0 0 0 0 0 0 0 0 0 0 0 0 0 0 0 0 0.25 0"/>
<feBlend mode="normal" in2="shape" result="effect1_innerShadow_421_7108"/>
</filter>
<filter id="filter13_i_421_7108" x="145.5" y="31.6953" width="29.6094" height="37.2637" filterUnits="userSpaceOnUse" color-interpolation-filters="sRGB">
<feFlood flood-opacity="0" result="BackgroundImageFix"/>
<feBlend mode="normal" in="SourceGraphic" in2="BackgroundImageFix" result="shape"/>
<feColorMatrix in="SourceAlpha" type="matrix" values="0 0 0 0 0 0 0 0 0 0 0 0 0 0 0 0 0 0 127 0" result="hardAlpha"/>
<feOffset dy="4"/>
<feGaussianBlur stdDeviation="2"/>
<feComposite in2="hardAlpha" operator="arithmetic" k2="-1" k3="1"/>
<feColorMatrix type="matrix" values="0 0 0 0 0 0 0 0 0 0 0 0 0 0 0 0 0 0 0.25 0"/>
<feBlend mode="normal" in2="shape" result="effect1_innerShadow_421_7108"/>
</filter>
</defs>
</svg>
