<svg width="22" height="25" viewBox="0 0 22 25" fill="none" xmlns="http://www.w3.org/2000/svg">
<path d="M16.4063 0H7.03125C5.37811 0 3.90626 1.51642 3.90626 3.12502L3.00313 3.14611C1.35078 3.14611 0 4.6414 0 6.25V21.875C0 23.4836 1.47188 25 3.12502 25H14.8438C16.4969 25 17.9688 23.4836 17.9688 21.875H18.75C20.4031 21.875 21.875 20.3586 21.875 18.75V6.26877L16.4063 0ZM14.8438 23.4375H3.12502C2.3047 23.4375 1.56253 22.6712 1.56253 21.875V6.25C1.56253 5.45392 2.2305 4.71328 3.05081 4.71328L3.90626 4.68751V18.75C3.90626 20.3586 5.37811 21.875 7.03125 21.875H16.4063C16.4063 22.6711 15.6641 23.4375 14.8438 23.4375ZM20.3125 18.75C20.3125 19.5461 19.5703 20.3125 18.75 20.3125H7.03125C6.21093 20.3125 5.46875 19.5461 5.46875 18.75V3.12502C5.46875 2.32894 6.21093 1.56253 7.03125 1.56253H14.8438C14.8312 3.36175 14.8438 4.70706 14.8438 4.70706C14.8438 6.33049 16.3047 7.81253 17.9688 7.81253H20.3125V18.75ZM17.9688 6.25C17.1368 6.25 16.4063 4.7383 16.4063 3.92735V1.58515L20.3125 6.25H17.9688ZM16.4063 10.9516H9.37502C8.94377 10.9516 8.59377 11.3008 8.59377 11.7321C8.59377 12.1633 8.94377 12.5125 9.37502 12.5125H16.4063C16.8375 12.5125 17.1875 12.1633 17.1875 11.7321C17.1875 11.3008 16.8375 10.9516 16.4063 10.9516ZM16.4063 14.8539H9.37502C8.94377 14.8539 8.59377 15.2031 8.59377 15.6343C8.59377 16.0656 8.94377 16.4148 9.37502 16.4148H16.4063C16.8375 16.4148 17.1875 16.0656 17.1875 15.6343C17.1875 15.2031 16.8375 14.8539 16.4063 14.8539Z" fill="#25123C"/>
</svg>
