<svg width="35" height="25" viewBox="0 0 35 25" fill="none" xmlns="http://www.w3.org/2000/svg">
<path d="M27.4995 15.0405C31.6418 15.0405 35 15.9003 35 20.0534C35 20.3857 34.8684 20.7043 34.634 20.9393C34.3997 21.1742 34.0819 21.3062 33.7505 21.3062H32.4992V22.559C32.482 23.2123 32.2111 23.833 31.7441 24.2889C31.2772 24.7449 30.6512 25 29.9994 25C29.3476 25 28.7216 24.7449 28.2546 24.2889C27.7877 23.833 27.5167 23.2123 27.4995 22.559V21.3062H7.5005V22.559C7.48326 23.2123 7.21232 23.833 6.74538 24.2889C6.27844 24.7449 5.65241 25 5.00063 25C4.34884 25 3.72281 24.7449 3.25587 24.2889C2.78893 23.833 2.51799 23.2123 2.50075 22.559V21.3062H1.2495C0.918112 21.3062 0.600297 21.1742 0.36597 20.9393C0.131643 20.7043 0 20.3857 0 20.0534C0 19.9867 0.0174999 19.9236 0.0192499 19.8587C0.0174999 19.8236 0 19.7955 0 19.7621V11.1628C0 9.84861 1.07275 8.77304 2.3835 8.77304H2.61625C3.927 8.77304 4.99975 9.84861 4.99975 11.1628V15.0405H27.4995ZM2.61625 6.26746H2.3835C1.56108 6.29156 0.751339 6.47694 0 6.81314C0.994 2.95476 4.75125 0 10.5997 0C16.2015 0 19.712 2.65297 21.2502 6.26746H27.937C29.147 6.26746 30.3074 6.74939 31.163 7.60723C32.0186 8.46507 32.4992 9.62855 32.4992 10.8417V11.3892C32.4997 11.5395 32.4705 11.6885 32.4133 11.8275C32.3562 11.9665 32.2721 12.0928 32.1661 12.1991C32.06 12.3054 31.9341 12.3897 31.7954 12.447C31.6568 12.5044 31.5082 12.5336 31.3582 12.5332H7.5005V11.1628C7.49911 9.86461 6.98402 8.62 6.0683 7.7022C5.15257 6.78439 3.91105 6.26839 2.61625 6.26746Z" fill="#F70075"/>
</svg>
