<svg width="22" height="22" viewBox="0 0 22 22" fill="none" xmlns="http://www.w3.org/2000/svg">
<path d="M13.5209 0H20.3959C21.2804 0 22 0.719555 22 1.60411V5.72911C22 6.61384 21.2804 7.33339 20.3959 7.33339H13.5209C12.6362 7.33339 11.9166 6.61384 11.9166 5.72911V1.60411C11.9166 0.719555 12.6362 0 13.5209 0ZM13.5209 9.16661H20.3959C21.2804 9.16661 22 9.88616 22 10.7709V20.3959C22 21.2804 21.2804 22 20.3959 22H13.5209C12.6362 22 11.9166 21.2804 11.9166 20.3959V10.7709C11.9166 9.88616 12.6362 9.16661 13.5209 9.16661ZM1.60411 14.6666H8.47911C9.36384 14.6666 10.0834 15.3862 10.0834 16.2709V20.3959C10.0834 21.2804 9.36384 22 8.47911 22H1.60411C0.719555 22 0 21.2804 0 20.3959V16.2709C0 15.3862 0.719555 14.6666 1.60411 14.6666ZM1.60411 0H8.47911C9.36384 0 10.0834 0.719555 10.0834 1.60411V11.2291C10.0834 12.1138 9.36384 12.8334 8.47911 12.8334H1.60411C0.719555 12.8334 0 12.1138 0 11.2291V1.60411C0 0.719555 0.719555 0 1.60411 0Z" fill="#25123C"/>
</svg>
