<svg width="16" height="20" viewBox="0 0 16 20" fill="none" xmlns="http://www.w3.org/2000/svg">
<path d="M15.6436 16.189L11.4885 12.0339H7.4449V9.70466H11.5198C12.155 9.70466 12.67 9.18972 12.67 8.55448C12.67 7.91927 12.155 7.40429 11.5198 7.40429H7.4449V6.30694C7.4449 5.68021 6.9535 5.15043 6.32703 5.13326C5.67703 5.11543 5.14453 5.63704 5.14453 6.28302V13.5675C5.14453 13.991 5.48782 14.3343 5.91132 14.3343H10.5357L14.017 17.8156C14.4662 18.2647 15.1944 18.2647 15.6436 17.8156C16.0927 17.3664 16.0927 16.6382 15.6436 16.189Z" fill="white"/>
<path d="M8.13255 2.60926C8.36376 1.63115 7.75829 0.65081 6.78018 0.419597C5.80208 0.188383 4.82174 0.793856 4.59052 1.77196C4.35931 2.75006 4.96478 3.7304 5.94289 3.96162C6.92099 4.19283 7.90133 3.58736 8.13255 2.60926Z" fill="white"/>
<path d="M10.8263 16.2458C9.93068 17.8003 8.25172 18.8492 6.33241 18.8492C3.47493 18.8492 1.15018 16.5244 1.15018 13.667C1.15018 11.6494 2.30922 9.8977 3.99627 9.04204V7.78125C1.65741 8.7129 0 11 0 13.667C0 17.1587 2.84072 19.9993 6.33241 19.9993C8.5673 19.9993 10.5354 18.8355 11.6627 17.0822L10.8263 16.2458Z" fill="white"/>
</svg>
