<svg width="14" height="20" viewBox="0 0 14 20" fill="none" xmlns="http://www.w3.org/2000/svg">
<path d="M1.18209 6.36656L2.21271 19.4606C2.2367 19.7652 2.4877 20 2.78933 20H10.2069C10.5085 20 10.7595 19.7652 10.7835 19.4606L11.8141 6.36656H1.18209ZM13.4216 0H11.8847C11.7847 1.41861e-06 11.6864 0.0262657 11.5994 0.0762296C11.5124 0.126194 11.4397 0.198151 11.3883 0.285078L9.9147 2.77984H0.578436C0.258985 2.77984 0 3.04219 0 3.36578V5.19465H1.15687L12.9962 5.19469V3.36582C12.9962 3.04223 12.7372 2.77988 12.4178 2.77988H11.2629L11.3899 2.56488L12.2127 1.17188H13.4216C13.741 1.17188 14 0.909531 14 0.585938C14 0.262344 13.741 0 13.4216 0Z" fill="white"/>
</svg>
