<svg width="17" height="17" viewBox="0 0 17 17" fill="none" xmlns="http://www.w3.org/2000/svg">
<path d="M14.5035 2.49654C12.8938 0.886523 10.7615 0 8.5 0C6.23854 0 4.10623 0.886523 2.49654 2.49654C0.886523 4.10623 0 6.23854 0 8.5C0 10.7615 0.886523 12.8938 2.49654 14.5035C4.10656 16.1135 6.23854 17 8.5 17C10.7615 17 12.8938 16.1135 14.5035 14.5035C16.1135 12.8934 17 10.7615 17 8.5C17 6.23854 16.1135 4.10623 14.5035 2.49654ZM1.01303 8.99805H4.02522C4.06174 10.2305 4.23439 11.4156 4.52824 12.4844H2.14426C1.50045 11.4614 1.09703 10.2727 1.01303 8.99805ZM8.99805 3.51953V1.08143C9.6807 1.31285 10.3438 2.00945 10.8714 3.07063C10.9434 3.21539 11.0121 3.36547 11.0776 3.51986H8.99805V3.51953ZM11.4362 4.51563C11.7529 5.56418 11.9392 6.75352 11.9784 8.00195H8.99805V4.51563H11.4362ZM8.00195 1.08143V3.51953H5.92244C5.98785 3.36514 6.05658 3.21539 6.12863 3.07029C6.65623 2.00912 7.3193 1.31252 8.00195 1.08109V1.08143ZM8.00195 4.51563V8.00195H5.02164C5.06082 6.75352 5.24709 5.56418 5.56385 4.51563H8.00195ZM4.02522 8.00195H1.01303C1.09703 6.72729 1.50045 5.53861 2.14426 4.51563H4.52824C4.23439 5.58443 4.06174 6.76945 4.02522 8.00195ZM5.02164 8.99805H8.00195V12.4844H5.56385C5.24709 11.4358 5.06082 10.2465 5.02164 8.99805ZM8.00195 13.4805V15.9186C7.3193 15.6871 6.65623 14.9905 6.12863 13.9294C6.05658 13.7846 5.98785 13.6345 5.92244 13.4801H8.00195V13.4805ZM8.99805 15.9186V13.4805H11.0776C11.0121 13.6349 10.9434 13.7846 10.8714 13.9297C10.3438 14.9909 9.6807 15.6875 8.99805 15.9189V15.9186ZM8.99805 12.4844V8.99805H11.9784C11.9392 10.2465 11.7529 11.4358 11.4362 12.4844H8.99805ZM12.9748 8.99805H15.987C15.903 10.2727 15.4996 11.4614 14.8557 12.4844H12.4718C12.7656 11.4156 12.9383 10.2305 12.9748 8.99805ZM12.9748 8.00195C12.9383 6.76945 12.7656 5.58443 12.4718 4.51563H14.8557C15.4996 5.53861 15.903 6.72729 15.987 8.00195H12.9748ZM14.1077 3.51953H12.1497C12.0325 3.20742 11.9037 2.90893 11.7632 2.62703C11.5374 2.17281 11.2887 1.77404 11.0214 1.43271C12.2197 1.86137 13.2776 2.58686 14.1073 3.51986L14.1077 3.51953ZM5.97822 1.43238C5.71094 1.77371 5.46225 2.17281 5.23647 2.6267C5.09635 2.90893 4.96752 3.20709 4.84998 3.5192H2.89199C3.72174 2.58619 4.77959 1.86104 5.97789 1.43205L5.97822 1.43238ZM2.89232 13.4805H4.85031C4.96752 13.7926 5.09635 14.0911 5.2368 14.373C5.46258 14.8272 5.71127 15.226 5.97855 15.5673C4.78025 15.1386 3.7224 14.4131 2.89266 13.4801L2.89232 13.4805ZM11.0218 15.5676C11.2891 15.2263 11.5378 14.8272 11.7635 14.3733C11.9037 14.0911 12.0325 13.7929 12.15 13.4808H14.108C13.2783 14.4138 12.2204 15.139 11.0221 15.568L11.0218 15.5676Z" fill="white"/>
</svg>
