<svg width="20" height="20" viewBox="0 0 20 20" fill="none" xmlns="http://www.w3.org/2000/svg">
<path d="M19.375 16.25H4.375C4.20924 16.25 4.05027 16.3158 3.93306 16.4331C3.81585 16.5503 3.75 16.7092 3.75 16.875C3.75 17.0408 3.81585 17.1997 3.93306 17.3169C4.05027 17.4342 4.20924 17.5 4.375 17.5H18.75V18.125C18.75 18.2908 18.6842 18.4497 18.5669 18.5669C18.4497 18.6842 18.2908 18.75 18.125 18.75H1.875C1.70924 18.75 1.55027 18.6842 1.43306 18.5669C1.31585 18.4497 1.25 18.2908 1.25 18.125V17.5H1.875C2.04076 17.5 2.19973 17.4342 2.31694 17.3169C2.43415 17.1997 2.5 17.0408 2.5 16.875V6.875C2.5 6.70924 2.56585 6.55027 2.68306 6.43306C2.80027 6.31585 2.95924 6.25 3.125 6.25H3.75V6.875C3.75 7.04076 3.81585 7.19973 3.93306 7.31694C4.05027 7.43415 4.20924 7.5 4.375 7.5H8.125V8.98875L7.22063 9.44062C7.11673 9.49254 7.02936 9.57238 6.96831 9.67119C6.90726 9.76999 6.87495 9.88385 6.875 10V11.875C6.875 11.97 6.89666 12.0638 6.93834 12.1491C6.98001 12.2345 7.04059 12.3093 7.11549 12.3677C7.19039 12.4262 7.27762 12.4668 7.37057 12.4864C7.46351 12.5061 7.55972 12.5043 7.65188 12.4812L10 11.8944L12.3481 12.4812C12.4403 12.5043 12.5365 12.5061 12.6294 12.4864C12.7224 12.4668 12.8096 12.4262 12.8845 12.3677C12.9594 12.3093 13.02 12.2345 13.0617 12.1491C13.1033 12.0638 13.125 11.97 13.125 11.875V10C13.1251 9.88385 13.0927 9.76999 13.0317 9.67119C12.9706 9.57238 12.8833 9.49254 12.7794 9.44062L11.875 8.98875V7.5H15.625C15.7908 7.5 15.9497 7.43415 16.0669 7.31694C16.1842 7.19973 16.25 7.04076 16.25 6.875V6.25H16.875C17.0408 6.25 17.1997 6.31585 17.3169 6.43306C17.4342 6.55027 17.5 6.70924 17.5 6.875V14.375C17.5 14.5408 17.5658 14.6997 17.6831 14.8169C17.8003 14.9342 17.9592 15 18.125 15C18.2908 15 18.4497 14.9342 18.5669 14.8169C18.6842 14.6997 18.75 14.5408 18.75 14.375V6.875C18.75 6.37772 18.5525 5.90081 18.2008 5.54917C17.8492 5.19754 17.3723 5 16.875 5H15.7137L11.875 3.90375V1.875C11.875 1.37772 11.6775 0.900805 11.3258 0.549175C10.9742 0.197544 10.4973 0 10 0C9.50272 0 9.02581 0.197544 8.67417 0.549175C8.32254 0.900805 8.125 1.37772 8.125 1.875V3.90375L4.28625 5H3.125C2.62772 5 2.15081 5.19754 1.79917 5.54917C1.44754 5.90081 1.25 6.37772 1.25 6.875V16.25H0.625C0.45924 16.25 0.300269 16.3158 0.183058 16.4331C0.065848 16.5503 0 16.7092 0 16.875L0 18.125C0 18.6223 0.197544 19.0992 0.549175 19.4508C0.900805 19.8025 1.37772 20 1.875 20H18.125C18.6223 20 19.0992 19.8025 19.4508 19.4508C19.8025 19.0992 20 18.6223 20 18.125V16.875C20 16.7092 19.9342 16.5503 19.8169 16.4331C19.6997 16.3158 19.5408 16.25 19.375 16.25ZM8.92188 4.97625C9.05248 4.93889 9.16737 4.86 9.24913 4.75151C9.33089 4.64302 9.37508 4.51085 9.375 4.375V1.875C9.375 1.70924 9.44085 1.55027 9.55806 1.43306C9.67527 1.31585 9.83424 1.25 10 1.25C10.1658 1.25 10.3247 1.31585 10.4419 1.43306C10.5592 1.55027 10.625 1.70924 10.625 1.875V4.375C10.6249 4.51085 10.6691 4.64302 10.7509 4.75151C10.8326 4.86 10.9475 4.93889 11.0781 4.97625L15 6.09625V6.25H11.25C11.0842 6.25 10.9253 6.31585 10.8081 6.43306C10.6908 6.55027 10.625 6.70924 10.625 6.875V9.375C10.6249 9.49115 10.6573 9.60501 10.7183 9.70381C10.7794 9.80262 10.8667 9.88246 10.9706 9.93438L11.875 10.3862V11.0738L10.1519 10.6431C10.0522 10.6181 9.94783 10.6181 9.84813 10.6431L8.125 11.0744V10.3869L9.02938 9.935C9.13337 9.88304 9.2208 9.8031 9.28186 9.70417C9.34291 9.60525 9.37517 9.49125 9.375 9.375V6.875C9.375 6.70924 9.30915 6.55027 9.19194 6.43306C9.07473 6.31585 8.91576 6.25 8.75 6.25H5V6.09625L8.92188 4.97625Z" fill="white"/>
</svg>
