<svg width="49" height="20" viewBox="0 0 49 20" fill="none" xmlns="http://www.w3.org/2000/svg">
<path d="M22.6296 9.2517V14.8607H20.8496V1.00977H25.5685C26.7645 1.00977 27.7843 1.40846 28.6187 2.20576C29.4717 3.00306 29.8981 3.9765 29.8981 5.12609C29.8981 6.30353 29.4717 7.27697 28.6187 8.06499C27.7936 8.85301 26.7738 9.24242 25.5685 9.24242H22.6296V9.2517ZM22.6296 2.71564V7.54583H25.6057C26.3102 7.54583 26.9036 7.30481 27.3671 6.83196C27.84 6.35912 28.081 5.78437 28.081 5.13537C28.081 4.49566 27.84 3.9301 27.3671 3.45735C26.9035 2.96594 26.3195 2.72492 25.6057 2.72492H22.6296V2.71564ZM34.5522 5.0705C35.8686 5.0705 36.907 5.4228 37.6672 6.12738C38.4275 6.83197 38.8075 7.79613 38.8075 9.01997V14.8607H37.1109V13.5443H37.0368C36.3044 14.629 35.3216 15.1667 34.0979 15.1667C33.0503 15.1667 32.1787 14.8607 31.4742 14.2396C30.7696 13.6184 30.4173 12.8489 30.4173 11.9218C30.4173 10.9391 30.7881 10.1604 31.5298 9.58553C32.2716 9.0015 33.2636 8.71408 34.4966 8.71408C35.5535 8.71408 36.425 8.90878 37.1017 9.29811V8.89022C37.1017 8.26907 36.8607 7.74991 36.3693 7.31419C35.8779 6.87846 35.3032 6.66519 34.6449 6.66519C33.6529 6.66519 32.8649 7.08236 32.29 7.92606L30.7232 6.94334C31.5854 5.69166 32.8649 5.0705 34.5522 5.0705ZM32.253 11.9496C32.253 12.4131 32.4477 12.8026 32.8463 13.1085C33.2357 13.4144 33.6993 13.572 34.2277 13.572C34.9787 13.572 35.6462 13.2939 36.2303 12.7376C36.8144 12.1813 37.111 11.5323 37.111 10.7814C36.5547 10.3457 35.7853 10.1232 34.7933 10.1232C34.0701 10.1232 33.4675 10.2993 32.9854 10.6423C32.494 11.0039 32.253 11.4397 32.253 11.9496ZM48.4866 5.37639L42.5531 19.0234H40.7174L42.9239 14.2488L39.0115 5.37639H40.9491L43.7676 12.1813H43.8047L46.5489 5.37639H48.4866Z" fill="white"/>
<path d="M15.4027 6.45117H7.94141V9.51062L12.2385 9.51157C12.0643 10.5295 11.5033 11.3973 10.6439 11.9758V11.9764L10.6449 11.9758L10.5675 13.8044L13.2028 13.9598L13.2017 13.9608C14.6953 12.5785 15.5511 10.5351 15.5511 8.12096C15.5516 7.56105 15.5019 7.00222 15.4027 6.45117Z" fill="#0085F7"/>
<path d="M10.6447 11.9759L10.6438 11.9765C9.93191 12.4563 9.01529 12.737 7.94316 12.737C5.87108 12.737 4.11331 11.3408 3.48382 9.45879H3.48354L3.48382 9.45974L1.2838 9.11133L0.845703 11.5064C2.15307 14.1001 4.83958 15.8799 7.94326 15.8799C10.088 15.8799 11.8899 15.1747 13.2017 13.9607C13.2021 13.9605 13.2024 13.9602 13.2027 13.9598L10.6447 11.9759Z" fill="#00A94B"/>
<path d="M3.23465 7.93963C3.23465 7.41119 3.32272 6.90037 3.48315 6.42013L2.79618 4.37305H0.844555C0.304089 5.44574 0 6.65651 0 7.93963C0 9.22275 0.305036 10.4335 0.844555 11.5062L0.844933 11.5059L3.48315 9.45913C3.31887 8.96935 3.23495 8.45622 3.23465 7.93963Z" fill="#FFBB00"/>
<path d="M7.94168 0C4.83867 0 2.15102 1.78002 0.84375 4.37411L3.48225 6.42119C4.11174 4.53917 5.8695 3.14298 7.94159 3.14298C9.11249 3.14298 10.1611 3.54632 10.989 4.33433L13.2558 2.06943C11.8791 0.787071 10.0842 0 7.94168 0Z" fill="#FF4031"/>
</svg>
