<svg width="40" height="44" viewBox="0 0 40 44" fill="none" xmlns="http://www.w3.org/2000/svg">
<rect x="0.5" y="0.5" width="39" height="43" rx="7.5" fill="white"/>
<rect x="0.5" y="0.5" width="39" height="43" rx="7.5" stroke="white"/>
<path d="M28.991 20.8128H28.2526V20.7747H20.0026V24.4414H25.1831C24.4274 26.5759 22.3965 28.1081 20.0026 28.1081C16.9652 28.1081 14.5026 25.6454 14.5026 22.6081C14.5026 19.5707 16.9652 17.1081 20.0026 17.1081C21.4046 17.1081 22.6802 17.637 23.6514 18.5009L26.2442 15.9082C24.607 14.3824 22.4171 13.4414 20.0026 13.4414C14.9403 13.4414 10.8359 17.5458 10.8359 22.6081C10.8359 27.6704 14.9403 31.7747 20.0026 31.7747C25.0649 31.7747 29.1693 27.6704 29.1693 22.6081C29.1693 21.9934 29.106 21.3935 28.991 20.8128Z" fill="#FFC107"/>
<path d="M11.8906 18.3414L14.9023 20.5502C15.7172 18.5326 17.6908 17.1081 20.0004 17.1081C21.4024 17.1081 22.678 17.637 23.6492 18.5009L26.242 15.9082C24.6048 14.3824 22.4149 13.4414 20.0004 13.4414C16.4795 13.4414 13.426 15.4292 11.8906 18.3414Z" fill="#FF3D00"/>
<path d="M20.0005 31.7773C22.3682 31.7773 24.5196 30.8712 26.1463 29.3977L23.3092 26.9969C22.3888 27.694 21.2448 28.1107 20.0005 28.1107C17.6162 28.1107 15.5918 26.5904 14.8291 24.4688L11.8398 26.7719C13.3569 29.7405 16.4378 31.7773 20.0005 31.7773Z" fill="#4CAF50"/>
<path d="M28.9884 20.8154H28.25V20.7773H20V24.444H25.1805C24.8175 25.4693 24.158 26.3534 23.3073 26.9974L23.3087 26.9965L26.1458 29.3972C25.945 29.5796 29.1667 27.194 29.1667 22.6107C29.1667 21.9961 29.1034 21.3961 28.9884 20.8154Z" fill="#1976D2"/>
</svg>
