<svg width="17" height="13" viewBox="0 0 17 13" fill="none" xmlns="http://www.w3.org/2000/svg">
<path d="M15.7756 5.14924C15.87 3.66425 14.3973 2.28999 14.3973 2.28999C14.3973 2.28999 11.667 5.64687 9.67686 10.056C9.66661 10.079 9.66274 10.1176 9.68626 10.138C9.69693 10.1466 9.70981 10.1519 9.72337 10.1533C9.73692 10.1546 9.75057 10.152 9.76268 10.1456C10.5084 9.76996 13.6095 8.14899 14.9155 6.88429C14.9155 6.88429 15.7324 6.2181 15.7756 5.14924ZM12.2948 1.79884C12.2948 1.79884 11.9532 0.504929 10.5683 0.163258C10.5683 0.163258 10.1693 0.0604124 9.74554 0C9.74554 0 8.19726 2.02306 8.94994 9.65675C8.95354 9.69663 8.97512 9.71096 8.99283 9.71602C9.02133 9.7236 9.04821 9.7132 9.06674 9.68623C9.56308 8.95822 11.8267 5.55215 12.2865 3.48077C12.2865 3.48077 12.5356 2.47825 12.2948 1.79884ZM10.1724 11.2243C10.1641 11.2409 10.1569 11.2822 10.1882 11.3052C10.6881 11.6691 12.2043 12.7453 12.9348 12.954C12.9348 12.954 14.2855 13.4213 15.4587 11.3758C15.4587 11.3758 11.533 11.237 10.2275 11.1909C10.2095 11.1901 10.1829 11.203 10.1724 11.2243ZM16.8494 6.68648C16.8494 6.68648 12.4081 9.10742 10.1121 10.6778C10.0952 10.6893 10.0738 10.7121 10.0852 10.7537C10.0885 10.7657 10.0956 10.7763 10.1054 10.7839C10.1152 10.7914 10.1272 10.7955 10.1395 10.7956C10.9614 10.797 14.0737 10.8009 14.1521 10.786C14.1521 10.786 14.5543 10.77 15.0517 10.5761C15.0517 10.5761 16.1585 10.219 16.7335 8.94306C16.7335 8.94306 17.2461 7.90231 16.8494 6.68648ZM6.88784 10.6778C4.59212 9.10742 0.150721 6.68648 0.150721 6.68648C-0.246231 7.90228 0.266434 8.94303 0.266434 8.94303C0.8414 10.219 1.94817 10.5761 1.94817 10.5761C2.44563 10.77 2.84784 10.786 2.84784 10.786C2.9262 10.8009 6.03853 10.7969 6.86043 10.7955C6.88812 10.7955 6.90861 10.7759 6.91469 10.7536C6.92605 10.7121 6.90474 10.6893 6.88784 10.6778ZM6.7724 11.1909C5.46716 11.237 1.54124 11.3758 1.54124 11.3758C2.71442 13.4213 4.06507 12.954 4.06507 12.954C4.79562 12.7453 6.31179 11.6691 6.81173 11.3052C6.84329 11.2822 6.83582 11.2409 6.82751 11.2243C6.81699 11.203 6.79042 11.1901 6.7724 11.1909ZM6.43164 0.163258C5.04669 0.504929 4.70508 1.79884 4.70508 1.79884C4.46426 2.47825 4.7134 3.48077 4.7134 3.48077C5.17319 5.55215 7.43682 8.95822 7.93316 9.68623C7.95172 9.7132 7.97883 9.7236 8.00707 9.71602C8.02505 9.71096 8.04636 9.69663 8.05026 9.65675C8.80267 2.02306 7.25436 0 7.25436 0C6.83053 0.0604124 6.43164 0.163258 6.43164 0.163258ZM2.60257 2.28999C2.60257 2.28999 1.13014 3.66428 1.22427 5.14924C1.26743 6.2181 2.08407 6.88429 2.08407 6.88429C3.39068 8.14899 6.4914 9.76996 7.23719 10.1456C7.2493 10.1519 7.26294 10.1546 7.27649 10.1532C7.29005 10.1519 7.30293 10.1466 7.31361 10.138C7.33743 10.1175 7.33325 10.079 7.32301 10.056C5.33292 5.64687 2.60257 2.28999 2.60257 2.28999Z" fill="black"/>
</svg>
