<svg width="18" height="18" viewBox="0 0 18 18" fill="none" xmlns="http://www.w3.org/2000/svg">
<path d="M17.9509 5.29207C17.9087 4.33563 17.754 3.67815 17.5324 3.10836C17.3039 2.50359 16.9522 1.96214 16.4916 1.51202C16.0414 1.0549 15.4964 0.699678 14.8986 0.474704C14.3256 0.253175 13.6715 0.0984571 12.7151 0.0563315C11.7515 0.010549 11.4456 0 9.00179 0C6.55795 0 6.25206 0.010549 5.29207 0.0527449C4.33566 0.0949408 3.67815 0.249729 3.10854 0.471117C2.50359 0.699678 1.96214 1.05131 1.51202 1.51202C1.0549 1.96211 0.699854 2.50714 0.474704 3.10492C0.253175 3.67815 0.0984923 4.33211 0.0563315 5.28848C0.0105841 6.25206 0 6.55795 0 9.00179C0 11.4456 0.0105841 11.7516 0.0527449 12.7115C0.0949408 13.668 0.249729 14.3254 0.471293 14.8952C0.699854 15.5 1.0549 16.0414 1.51202 16.4916C1.96214 16.9487 2.50718 17.3039 3.10495 17.5289C3.67811 17.7504 4.33208 17.9051 5.28866 17.9473C6.24848 17.9896 6.55454 18 8.99838 18C11.4422 18 11.7481 17.9896 12.7081 17.9473C13.6645 17.9051 14.322 17.7504 14.8916 17.5289C15.4899 17.2976 16.0332 16.9438 16.4868 16.4903C16.9403 16.0368 17.2941 15.4935 17.5255 14.8952C17.7469 14.322 17.9017 13.6679 17.9438 12.7115C17.986 11.7516 17.9966 11.4456 17.9966 9.00179C17.9966 6.55795 17.993 6.25203 17.9509 5.29207ZM16.3299 12.6412C16.2912 13.5203 16.1435 13.995 16.0205 14.3114C15.718 15.0956 15.0956 15.718 14.3114 16.0204C13.995 16.1435 13.5169 16.2912 12.6412 16.3297C11.6918 16.3721 11.4071 16.3825 9.00538 16.3825C6.60369 16.3825 6.31539 16.3721 5.36939 16.3297C4.49031 16.2912 4.01561 16.1435 3.69914 16.0204C3.30893 15.8762 2.95375 15.6476 2.66541 15.3488C2.36652 15.0569 2.13796 14.7053 1.99372 14.315C1.87065 13.9986 1.723 13.5203 1.68443 12.6448C1.64209 11.6954 1.63168 11.4105 1.63168 9.00879C1.63168 6.60711 1.64209 6.3188 1.68443 5.37298C1.723 4.4939 1.87065 4.0192 1.99372 3.70273C2.13796 3.31234 2.36652 2.95723 2.669 2.66882C2.96071 2.36993 3.31234 2.14137 3.70273 1.99731C4.0192 1.87424 4.49749 1.72655 5.37298 1.68784C6.32239 1.64564 6.60728 1.63509 9.00879 1.63509C11.4141 1.63509 11.6988 1.64564 12.6448 1.68784C13.5239 1.72659 13.9986 1.8742 14.315 1.99727C14.7052 2.14137 15.0605 2.36993 15.3488 2.66882C15.6476 2.96071 15.8762 3.31234 16.0205 3.70273C16.1435 4.0192 16.2912 4.49731 16.3299 5.37298C16.3721 6.32239 16.3826 6.60711 16.3826 9.00879C16.3826 11.4105 16.3721 11.6918 16.3299 12.6412Z" fill="white"/>
<path d="M9.00092 4.37753C6.44814 4.37753 4.37695 6.44857 4.37695 9.00149C4.37695 11.5544 6.44814 13.6255 9.00092 13.6255C11.5538 13.6255 13.6249 11.5544 13.6249 9.00149C13.6249 6.44857 11.5538 4.37753 9.00092 4.37753ZM9.00092 12.0009C7.3448 12.0009 6.00143 10.6578 6.00143 9.00149C6.00143 7.34523 7.3448 6.00207 9.00089 6.00207C10.6571 6.00207 12.0003 7.34523 12.0003 9.00149C12.0003 10.6578 10.6571 12.0009 9.00092 12.0009ZM14.8873 4.19468C14.8873 4.79083 14.4039 5.27419 13.8077 5.27419C13.2115 5.27419 12.7282 4.79083 12.7282 4.19468C12.7282 3.59845 13.2115 3.11523 13.8077 3.11523C14.4039 3.11523 14.8873 3.59841 14.8873 4.19468Z" fill="white"/>
</svg>
