<svg width="16" height="16" viewBox="0 0 16 16" fill="none" xmlns="http://www.w3.org/2000/svg">
<path d="M6.89948 8.97122C7.08358 8.97122 7.23281 8.82196 7.23281 8.63789C7.23281 7.84676 6.58918 7.20316 5.79805 7.20316C5.00691 7.20316 4.36328 7.84679 4.36328 8.63789C4.36328 8.82196 4.51251 8.97122 4.69661 8.97122C4.88071 8.97122 5.02995 8.82196 5.02995 8.63789C5.02995 8.21436 5.37451 7.86982 5.79805 7.86982C6.22158 7.86982 6.56615 8.21436 6.56615 8.63789C6.56615 8.82196 6.71538 8.97122 6.89948 8.97122ZM9.10238 10.232C8.91831 10.232 8.76905 10.3813 8.76905 10.5654C8.76905 10.9889 8.42445 11.3335 8.00091 11.3335C7.57738 11.3335 7.23281 10.9889 7.23281 10.5654C7.23281 10.3813 7.08358 10.232 6.89948 10.232C6.71538 10.232 6.56615 10.3813 6.56615 10.5654C6.56615 11.3565 7.20978 12.0001 8.00091 12.0001C8.79205 12.0001 9.43572 11.3565 9.43572 10.5654C9.43572 10.3813 9.28645 10.232 9.10238 10.232ZM10.4792 7.20312C9.68805 7.20312 9.04441 7.84676 9.04441 8.63786C9.04441 8.82192 9.19368 8.97119 9.37775 8.97119C9.56181 8.97119 9.71108 8.82192 9.71108 8.63786C9.71108 8.21432 10.0556 7.86979 10.4792 7.86979C10.9027 7.86979 11.2473 8.21432 11.2473 8.63786C11.2473 8.82192 11.3966 8.97119 11.5806 8.97119C11.7647 8.97119 11.914 8.82192 11.914 8.63786C11.914 7.84676 11.2703 7.20312 10.4792 7.20312Z" fill="black"/>
<mask id="path-2-inside-1_332_12735" fill="white">
<path d="M14.4571 7.67149C13.7719 5.00443 11.4717 2.96099 8.6215 2.69609C8.6138 2.39062 8.68453 2.15169 8.83343 1.98439C9.1244 1.65752 9.64427 1.66642 9.6553 1.66679C9.74339 1.66988 9.82912 1.63792 9.89368 1.57791C9.95825 1.5179 9.99638 1.43474 9.99973 1.34666C10.0069 1.16269 9.8636 1.00776 9.67963 1.00059C9.64587 0.999158 8.84507 0.974758 8.34047 1.53552C8.3137 1.56557 8.28822 1.59675 8.2641 1.62896C8.17297 1.33459 8.02833 1.07389 7.829 0.849258C7.04097 -0.038842 5.7109 -0.00134207 5.6546 0.000724601C5.47063 0.00739127 5.32687 0.161891 5.33353 0.345891C5.3402 0.529858 5.49463 0.673525 5.6787 0.666958C5.68933 0.666625 6.74867 0.636125 7.33037 1.29172C7.62427 1.62296 7.74903 2.08739 7.703 2.67452C4.67857 2.80916 2.2452 4.93109 1.5423 7.67153C0.6812 7.73539 0 8.45642 0 9.33359C0 10.2109 0.681467 10.9321 1.54283 10.9957C2.2914 13.905 4.9266 16.0001 8 16.0001C11.0765 16.0001 13.7094 13.9018 14.4572 10.9957C15.3186 10.9321 16 10.2109 16 9.33359C16 8.45622 15.3185 7.73502 14.4571 7.67149ZM14.2282 10.3281C14.0588 10.3101 13.9034 10.4235 13.8678 10.5901C13.2822 13.3386 10.8145 15.3334 8 15.3334C5.18553 15.3334 2.71777 13.3386 2.13217 10.5901C2.11627 10.5155 2.07526 10.4486 2.01599 10.4006C1.95671 10.3525 1.88276 10.3263 1.80647 10.3262C1.77273 10.3262 1.7405 10.3336 1.6667 10.3336C1.1153 10.3336 0.6667 9.88496 0.6667 9.33359C0.6667 8.74772 1.17467 8.27772 1.77163 8.33909C1.85344 8.34754 1.93547 8.32545 2.00197 8.27707C2.06847 8.22868 2.11473 8.15742 2.13187 8.07699C2.70427 5.39109 5.0748 3.33406 8.00113 3.33379C10.9135 3.33432 13.2919 5.37712 13.8677 8.07712C13.8849 8.15757 13.9312 8.22883 13.9977 8.2772C14.0642 8.32557 14.1463 8.34764 14.2281 8.33916C14.8243 8.27713 15.3333 8.74596 15.3333 9.33359C15.3333 9.92009 14.8259 10.3897 14.2282 10.3281Z"/>
</mask>
<path d="M14.4571 7.67149C13.7719 5.00443 11.4717 2.96099 8.6215 2.69609C8.6138 2.39062 8.68453 2.15169 8.83343 1.98439C9.1244 1.65752 9.64427 1.66642 9.6553 1.66679C9.74339 1.66988 9.82912 1.63792 9.89368 1.57791C9.95825 1.5179 9.99638 1.43474 9.99973 1.34666C10.0069 1.16269 9.8636 1.00776 9.67963 1.00059C9.64587 0.999158 8.84507 0.974758 8.34047 1.53552C8.3137 1.56557 8.28822 1.59675 8.2641 1.62896C8.17297 1.33459 8.02833 1.07389 7.829 0.849258C7.04097 -0.038842 5.7109 -0.00134207 5.6546 0.000724601C5.47063 0.00739127 5.32687 0.161891 5.33353 0.345891C5.3402 0.529858 5.49463 0.673525 5.6787 0.666958C5.68933 0.666625 6.74867 0.636125 7.33037 1.29172C7.62427 1.62296 7.74903 2.08739 7.703 2.67452C4.67857 2.80916 2.2452 4.93109 1.5423 7.67153C0.6812 7.73539 0 8.45642 0 9.33359C0 10.2109 0.681467 10.9321 1.54283 10.9957C2.2914 13.905 4.9266 16.0001 8 16.0001C11.0765 16.0001 13.7094 13.9018 14.4572 10.9957C15.3186 10.9321 16 10.2109 16 9.33359C16 8.45622 15.3185 7.73502 14.4571 7.67149ZM14.2282 10.3281C14.0588 10.3101 13.9034 10.4235 13.8678 10.5901C13.2822 13.3386 10.8145 15.3334 8 15.3334C5.18553 15.3334 2.71777 13.3386 2.13217 10.5901C2.11627 10.5155 2.07526 10.4486 2.01599 10.4006C1.95671 10.3525 1.88276 10.3263 1.80647 10.3262C1.77273 10.3262 1.7405 10.3336 1.6667 10.3336C1.1153 10.3336 0.6667 9.88496 0.6667 9.33359C0.6667 8.74772 1.17467 8.27772 1.77163 8.33909C1.85344 8.34754 1.93547 8.32545 2.00197 8.27707C2.06847 8.22868 2.11473 8.15742 2.13187 8.07699C2.70427 5.39109 5.0748 3.33406 8.00113 3.33379C10.9135 3.33432 13.2919 5.37712 13.8677 8.07712C13.8849 8.15757 13.9312 8.22883 13.9977 8.2772C14.0642 8.32557 14.1463 8.34764 14.2281 8.33916C14.8243 8.27713 15.3333 8.74596 15.3333 9.33359C15.3333 9.92009 14.8259 10.3897 14.2282 10.3281Z" fill="black"/>
<path d="M14.4571 7.67149L13.4885 7.9203L13.6672 8.61595L14.3835 8.66878L14.4571 7.67149ZM8.6215 2.69609L7.62182 2.72129L7.64421 3.60957L8.52896 3.6918L8.6215 2.69609ZM8.83343 1.98439L8.0865 1.31949L8.08644 1.31956L8.83343 1.98439ZM9.6553 1.66679L9.69036 0.667404L9.68851 0.667343L9.6553 1.66679ZM9.99973 1.34666L9.0005 1.30755L9.00046 1.30863L9.99973 1.34666ZM9.67963 1.00059L9.63722 1.9997L9.64071 1.99983L9.67963 1.00059ZM8.34047 1.53552L7.5971 0.866617L7.59376 0.870373L8.34047 1.53552ZM8.2641 1.62896L7.30883 1.9247L7.8889 3.79835L9.06455 2.22836L8.2641 1.62896ZM7.829 0.849258L7.08101 1.51297L7.08103 1.51299L7.829 0.849258ZM5.6546 0.000724601L5.69081 1.00007L5.69128 1.00005L5.6546 0.000724601ZM5.33353 0.345891L4.33419 0.382099L4.33419 0.382106L5.33353 0.345891ZM5.6787 0.666958L5.64737 -0.33256L5.64305 -0.332406L5.6787 0.666958ZM7.33037 1.29172L6.58236 1.95542L6.58236 1.95542L7.33037 1.29172ZM7.703 2.67452L7.74747 3.67354L8.63083 3.63421L8.69994 2.75269L7.703 2.67452ZM1.5423 7.67153L1.61627 8.66879L2.33251 8.61566L2.51094 7.91997L1.5423 7.67153ZM1.54283 10.9957L2.51129 10.7465L2.33241 10.0512L1.61647 9.99837L1.54283 10.9957ZM14.4572 10.9957L14.3836 9.99837L13.6676 10.0512L13.4887 10.7465L14.4572 10.9957ZM14.2282 10.3281L14.1225 11.3225L14.1256 11.3228L14.2282 10.3281ZM13.8678 10.5901L12.8898 10.3815L12.8898 10.3817L13.8678 10.5901ZM2.13217 10.5901L1.15412 10.7985L1.15412 10.7985L2.13217 10.5901ZM1.80647 10.3262L1.80751 9.32623H1.80647V10.3262ZM1.77163 8.33909L1.87438 7.34438L1.87389 7.34433L1.77163 8.33909ZM2.13187 8.07699L1.15383 7.86856L1.15381 7.86866L2.13187 8.07699ZM8.00113 3.33379L8.00132 2.33379H8.00104L8.00113 3.33379ZM13.8677 8.07712L12.8897 8.28569V8.2857L13.8677 8.07712ZM14.2281 8.33916L14.3312 9.33383L14.3316 9.33379L14.2281 8.33916ZM14.4571 7.67149L15.4256 7.42268C14.6378 4.35591 11.994 2.00523 8.71404 1.70038L8.6215 2.69609L8.52896 3.6918C10.9494 3.91675 12.9061 5.65294 13.4885 7.9203L14.4571 7.67149ZM8.6215 2.69609L9.62118 2.67089C9.62031 2.63607 9.62188 2.61105 9.62378 2.59464C9.62568 2.57829 9.62772 2.5719 9.62727 2.57344C9.62674 2.57522 9.62369 2.58476 9.6158 2.59934C9.60776 2.61419 9.59612 2.63159 9.58042 2.64923L8.83343 1.98439L8.08644 1.31956C7.71436 1.73762 7.61014 2.25787 7.62182 2.72129L8.6215 2.69609ZM8.83343 1.98439L9.58037 2.64929C9.56665 2.66469 9.55416 2.67521 9.5454 2.68167C9.54107 2.68486 9.53766 2.68706 9.53541 2.68843C9.53318 2.68978 9.53197 2.69039 9.53195 2.6904C9.53193 2.69041 9.5329 2.68992 9.53496 2.68907C9.53702 2.68821 9.53992 2.68708 9.54372 2.68578C9.55153 2.68309 9.56154 2.68018 9.57356 2.67742C9.59867 2.67164 9.62302 2.66865 9.6399 2.66735C9.64767 2.66675 9.65192 2.66666 9.65147 2.66667C9.65121 2.66667 9.64952 2.66671 9.64622 2.66671C9.64458 2.6667 9.64232 2.66669 9.63941 2.66665C9.63798 2.66663 9.63612 2.6666 9.63389 2.66656C9.63246 2.66653 9.62799 2.66644 9.62209 2.66624L9.6553 1.66679L9.68851 0.667343C9.62483 0.665227 9.401 0.664868 9.12512 0.72834C8.85991 0.78936 8.42729 0.936657 8.0865 1.31949L8.83343 1.98439ZM9.6553 1.66679L9.62024 2.66618C9.97287 2.67855 10.316 2.5506 10.5745 2.31038L9.89368 1.57791L9.21288 0.845437C9.34221 0.725235 9.51391 0.661216 9.69036 0.667406L9.6553 1.66679ZM9.89368 1.57791L10.5745 2.31038C10.8329 2.07016 10.9856 1.73727 10.999 1.38468L9.99973 1.34666L9.00046 1.30863C9.00717 1.13221 9.08356 0.965639 9.21288 0.845437L9.89368 1.57791ZM9.99973 1.34666L10.999 1.38577C11.0278 0.649688 10.4543 0.0300104 9.71856 0.00134921L9.67963 1.00059L9.64071 1.99983C9.27291 1.98551 8.98609 1.67569 9.0005 1.30755L9.99973 1.34666ZM9.67963 1.00059L9.72204 0.00149099C9.64872 -0.00162158 9.34112 -0.0076926 8.95455 0.084531C8.57073 0.176101 8.03176 0.383598 7.59711 0.866626L8.34047 1.53552L9.08382 2.20442C9.15377 2.12668 9.26751 2.066 9.41867 2.02993C9.5671 1.99453 9.67678 2.00137 9.63722 1.99969L9.67963 1.00059ZM8.34047 1.53552L7.59376 0.870373C7.54814 0.921579 7.50474 0.974689 7.46365 1.02956L8.2641 1.62896L9.06455 2.22836C9.07171 2.2188 9.07925 2.20957 9.08717 2.20068L8.34047 1.53552ZM8.2641 1.62896L9.21937 1.33322C9.08802 0.90894 8.87497 0.521352 8.57697 0.185528L7.829 0.849258L7.08103 1.51299C7.18169 1.62643 7.25792 1.76024 7.30883 1.9247L8.2641 1.62896ZM7.829 0.849258L8.57699 0.185548C7.99329 -0.472273 7.24043 -0.756351 6.69287 -0.883071C6.13819 -1.01144 5.69582 -1.00146 5.61792 -0.998602L5.6546 0.000724601L5.69128 1.00005C5.66968 1.00084 5.92049 0.991039 6.24193 1.06543C6.57049 1.14147 6.87668 1.28269 7.08101 1.51297L7.829 0.849258ZM5.6546 0.000724601L5.61839 -0.998619C4.88272 -0.97196 4.30752 -0.354047 4.33419 0.382099L5.33353 0.345891L6.33288 0.309683C6.34622 0.677829 6.05854 0.986743 5.69081 1.00007L5.6546 0.000724601ZM5.33353 0.345891L4.33419 0.382106C4.36086 1.11815 4.97895 1.69256 5.71435 1.66632L5.6787 0.666958L5.64305 -0.332406C6.01032 -0.345509 6.31954 -0.0584346 6.33288 0.309677L5.33353 0.345891ZM5.6787 0.666958L5.71003 1.66647C5.67076 1.6677 5.84804 1.66015 6.07626 1.71017C6.31894 1.76337 6.49184 1.85339 6.58236 1.95542L7.33037 1.29172L8.07837 0.628034C7.5872 0.0744586 6.93958 -0.14807 6.50451 -0.243441C6.05497 -0.341981 5.69727 -0.334115 5.64737 -0.332551L5.6787 0.666958ZM7.33037 1.29172L6.58236 1.95542C6.64177 2.02238 6.73822 2.18614 6.70606 2.59636L7.703 2.67452L8.69994 2.75269C8.75984 1.98864 8.60676 1.22354 8.07837 0.628029L7.33037 1.29172ZM7.703 2.67452L7.65853 1.67551C4.17848 1.83043 1.38187 4.27203 0.573655 7.42308L1.5423 7.67153L2.51094 7.91997C3.10853 5.59015 5.17865 3.78789 7.74747 3.67354L7.703 2.67452ZM1.5423 7.67153L1.46833 6.67426C0.0894115 6.77654 -1 7.9285 -1 9.33359H0H1C1 8.98435 1.27299 8.69425 1.61627 8.66879L1.5423 7.67153ZM0 9.33359H-1C-1 10.7389 0.089844 11.8911 1.4692 11.9929L1.54283 10.9957L1.61647 9.99837C1.27309 9.97302 1 9.68287 1 9.33359H0ZM1.54283 10.9957L0.574376 11.2448C1.43519 14.5905 4.46448 17.0001 8 17.0001V16.0001V15.0001C5.38872 15.0001 3.14761 13.2196 2.51129 10.7465L1.54283 10.9957ZM8 16.0001V17.0001C11.5392 17.0001 14.5657 14.5867 15.4257 11.2449L14.4572 10.9957L13.4887 10.7465C12.8531 13.2169 10.6138 15.0001 8 15.0001V16.0001ZM14.4572 10.9957L14.5308 11.9929C15.9102 11.8911 17 10.7389 17 9.33359H16H15C15 9.68289 14.7269 9.97302 14.3836 9.99837L14.4572 10.9957ZM16 9.33359H17C17 7.92821 15.9101 6.77594 14.5306 6.6742L14.4571 7.67149L14.3835 8.66878C14.7269 8.69411 15 8.98424 15 9.33359H16ZM14.2282 10.3281L14.3339 9.33366C13.6519 9.2612 13.0314 9.71756 12.8898 10.3815L13.8678 10.5901L14.8458 10.7987C14.7753 11.1295 14.4657 11.3589 14.1225 11.3225L14.2282 10.3281ZM13.8678 10.5901L12.8898 10.3817C12.4028 12.6675 10.3436 14.3334 8 14.3334V15.3334V16.3334C11.2854 16.3334 14.1617 14.0096 14.8459 10.7985L13.8678 10.5901ZM8 15.3334V14.3334C5.65644 14.3334 3.59724 12.6675 3.11021 10.3817L2.13217 10.5901L1.15412 10.7985C1.8383 14.0096 4.71462 16.3334 8 16.3334V15.3334ZM2.13217 10.5901L3.11021 10.3817C3.04663 10.0833 2.88261 9.81571 2.64553 9.62361L2.01599 10.4006L1.38644 11.1775C1.26791 11.0815 1.18591 10.9477 1.15412 10.7985L2.13217 10.5901ZM2.01599 10.4006L2.64553 9.62361C2.40844 9.43151 2.11265 9.32654 1.80751 9.32623L1.80647 10.3262L1.80542 11.3262C1.65287 11.3261 1.50498 11.2736 1.38644 11.1775L2.01599 10.4006ZM1.80647 10.3262V9.32623C1.76215 9.32623 1.72563 9.32866 1.70391 9.33033C1.69322 9.33115 1.68367 9.332 1.67832 9.33247C1.67146 9.33308 1.66963 9.33325 1.66664 9.33351C1.66365 9.33376 1.6669 9.33356 1.6667 9.33356V10.3336V11.3336C1.7403 11.3336 1.79657 11.3297 1.83658 11.3263C1.84434 11.3256 1.85263 11.3249 1.85544 11.3246C1.85976 11.3242 1.85942 11.3243 1.85764 11.3244C1.85376 11.3247 1.83391 11.3262 1.80647 11.3262V10.3262ZM1.6667 10.3336V9.33356L1.6667 9.33359H0.6667H-0.3333C-0.3333 10.4373 0.563036 11.3336 1.6667 11.3336V10.3336ZM0.6667 9.33359H1.6667C1.6667 9.33282 1.66676 9.33305 1.66658 9.33391C1.66641 9.33468 1.66618 9.33531 1.66602 9.33566C1.66581 9.33612 1.66617 9.33521 1.66753 9.33397C1.66881 9.33281 1.66927 9.3329 1.6681 9.3333C1.66745 9.33352 1.6668 9.33365 1.66639 9.3337C1.66591 9.33375 1.66676 9.33358 1.66937 9.33385L1.77163 8.33909L1.87389 7.34433C0.681308 7.22174 -0.3333 8.16104 -0.3333 9.33359H0.6667ZM1.77163 8.33909L1.66888 9.3338C1.99612 9.3676 2.32429 9.27923 2.59031 9.08568L2.00197 8.27707L1.41364 7.46845C1.54665 7.37167 1.71075 7.32748 1.87438 7.34438L1.77163 8.33909ZM2.00197 8.27707L2.59031 9.08568C2.85632 8.89214 3.04139 8.60708 3.10993 8.28532L2.13187 8.07699L1.15381 7.86866C1.18808 7.70777 1.28062 7.56523 1.41364 7.46845L2.00197 8.27707ZM2.13187 8.07699L3.1099 8.28542C3.58736 6.04503 5.56304 4.33401 8.00123 4.33379L8.00113 3.33379L8.00104 2.33379C4.58656 2.3341 1.82117 4.73716 1.15383 7.86856L2.13187 8.07699ZM8.00113 3.33379L8.00095 4.33379C10.4275 4.33424 12.4094 6.03331 12.8897 8.28569L13.8677 8.07712L14.8457 7.86856C14.1745 4.72094 11.3996 2.33441 8.00132 2.33379L8.00113 3.33379ZM13.8677 8.07712L12.8897 8.2857C12.9583 8.60746 13.1435 8.8925 13.4096 9.08599L13.9977 8.2772L14.5858 7.46841C14.7189 7.56515 14.8114 7.70767 14.8457 7.86855L13.8677 8.07712ZM13.9977 8.2772L13.4096 9.08599C13.6757 9.27947 14.0039 9.36775 14.3312 9.33383L14.2281 8.33916L14.125 7.34449C14.2886 7.32753 14.4528 7.37167 14.5858 7.46841L13.9977 8.2772ZM14.2281 8.33916L14.3316 9.33379C14.3341 9.33353 14.3349 9.3337 14.3343 9.33364C14.3339 9.33358 14.3332 9.33344 14.3325 9.33321C14.3312 9.33278 14.3315 9.33262 14.3327 9.33366C14.3339 9.33476 14.3342 9.33554 14.3339 9.33501C14.3338 9.33463 14.3336 9.33403 14.3334 9.33335C14.3332 9.33258 14.3333 9.33253 14.3333 9.33359H15.3333H16.3333C16.3333 8.15834 15.3164 7.22052 14.1246 7.34453L14.2281 8.33916ZM15.3333 9.33359H14.3333C14.3333 9.33461 14.3332 9.33455 14.3334 9.33381C14.3336 9.33314 14.3338 9.33256 14.3339 9.3322C14.3341 9.33171 14.3339 9.33246 14.3327 9.33351C14.3316 9.33448 14.3314 9.3343 14.3326 9.33387C14.3333 9.33364 14.3339 9.33352 14.3342 9.33349C14.3346 9.33345 14.3336 9.33363 14.3308 9.33333L14.2282 10.3281L14.1256 11.3228C15.3193 11.4459 16.3333 10.5067 16.3333 9.33359H15.3333Z" fill="black" mask="url(#path-2-inside-1_332_12735)"/>
</svg>
