<svg width="18" height="14" viewBox="0 0 18 14" fill="none" xmlns="http://www.w3.org/2000/svg">
<path d="M15.6015 1.80712e-06H2.40079C2.24867 -0.000371317 2.10209 0.0570486 1.99069 0.160645C1.8793 0.264242 1.81141 0.406282 1.80076 0.558031V7.84241C1.81141 7.99416 1.8793 8.1362 1.99069 8.23979C2.10209 8.34339 2.24867 8.40081 2.40079 8.40044H15.6015C15.7536 8.40081 15.9002 8.34339 16.0116 8.23979C16.123 8.1362 16.1909 7.99416 16.2015 7.84241V0.558031C16.1909 0.406282 16.123 0.264242 16.0116 0.160645C15.9002 0.0570486 15.7536 -0.000371317 15.6015 1.80712e-06ZM17.9536 12.5527L16.1535 9.28848C16.0966 9.19457 16.0151 9.11805 15.9178 9.06727C15.8204 9.01649 15.711 8.99338 15.6015 9.00047H2.40079C2.29182 8.99277 2.18282 9.01497 2.08554 9.06467C1.98826 9.11437 1.90639 9.18968 1.84876 9.28248L0.0486714 12.5467C0.00987445 12.6155 -0.00636042 12.6948 0.00225009 12.7734C0.0108606 12.852 0.0438832 12.9258 0.0966738 12.9847C0.160296 13.0547 0.23823 13.1102 0.325192 13.1475C0.412155 13.1848 0.506114 13.2029 0.6007 13.2007H17.4016C17.4947 13.2028 17.5872 13.1852 17.6731 13.149C17.7589 13.1128 17.8361 13.0588 17.8996 12.9907C17.9533 12.9325 17.9875 12.859 17.9972 12.7804C18.0068 12.7018 17.9916 12.6221 17.9536 12.5527ZM10.2012 12.0006H7.80107C7.64194 12.0006 7.48932 11.9374 7.37679 11.8249C7.26426 11.7124 7.20104 11.5597 7.20104 11.4006C7.20104 11.2415 7.26426 11.0888 7.37679 10.9763C7.48932 10.8638 7.64194 10.8006 7.80107 10.8006H10.2012C10.3603 10.8006 10.513 10.8638 10.6255 10.9763C10.738 11.0888 10.8012 11.2415 10.8012 11.4006C10.8012 11.5597 10.738 11.7124 10.6255 11.8249C10.513 11.9374 10.3603 12.0006 10.2012 12.0006Z" fill="black"/>
</svg>
