<svg width="178" height="44" viewBox="0 0 178 44" fill="none" xmlns="http://www.w3.org/2000/svg">
<path d="M12.2976 0.225929C18.7099 -0.768034 25.4672 1.56912 29.9659 6.22277C30.123 6.42115 30.5053 6.72905 30.2098 6.98529C29.3832 7.93379 28.4243 8.75417 27.5399 9.64688C26.6699 8.87196 25.8681 8.01438 24.9341 7.31386C20.8135 4.28237 15.2526 3.35454 10.3654 4.85478C7.49303 5.69169 4.97607 7.42751 2.91786 9.57249C1.84743 8.70251 0.859653 7.72715 0 6.65053C3.21957 3.21195 7.59223 0.79007 12.2997 0.225929H12.2976Z" fill="white"/>
<path d="M5.46582 12.1923C10.3096 6.61285 20.0303 6.65211 24.8824 12.2005C24.1033 13.1449 23.2499 14.0211 22.2952 14.7836C20.2452 12.9073 17.5526 11.5579 14.7112 11.7748C12.1777 11.8513 9.86534 13.0602 8.00345 14.7154C7.11693 13.9178 6.27588 13.0726 5.46789 12.1923H5.46582Z" fill="white"/>
<path d="M102.894 10.3613C104.301 10.4068 105.711 10.3923 107.118 10.3696C107.285 11.5371 107.207 12.715 107.215 13.8888V29.0069C107.213 30.191 107.269 31.3813 107.137 32.5633C105.715 32.5612 104.293 32.5488 102.869 32.5716C102.718 31.3895 102.793 30.1951 102.785 29.0069C102.776 23.2167 102.793 17.4286 102.776 11.6343C102.778 11.2065 102.83 10.7829 102.892 10.3613H102.894Z" fill="white"/>
<path d="M34.9461 11.6377C38.2814 11.4806 41.6209 11.6129 44.9541 11.5736C46.3593 11.584 47.7686 11.5034 49.1676 11.6521C49.304 12.859 49.2875 14.0802 49.1821 15.2891C47.5744 15.4255 45.9605 15.347 44.3465 15.3532C44.2887 15.8884 44.2536 16.4257 44.2577 16.965C44.2866 22.1621 44.2474 27.3551 44.2763 32.5502C42.7636 32.5667 41.2489 32.5646 39.7383 32.5502C39.7011 26.8199 39.8334 21.0793 39.6742 15.3511C38.0934 15.3449 36.5084 15.4193 34.9296 15.2932C34.7808 14.0782 34.8036 12.8528 34.9461 11.6377Z" fill="white"/>
<path d="M109.45 11.6765C111.461 11.4492 113.488 11.6269 115.505 11.5649C117.896 11.5587 120.556 11.7447 122.44 13.3958C125.036 15.6151 125.073 20.5292 121.952 22.3042C121.099 22.918 119.911 22.7837 119.113 23.4635C120.045 23.6536 121.06 23.7384 121.841 24.3397C123.143 25.2469 123.587 26.8752 123.926 28.3424C124.195 29.7476 124.62 31.1259 124.757 32.5559C123.192 32.5621 121.63 32.5704 120.068 32.5476C119.665 30.8532 119.524 29.1049 119.01 27.4414C118.704 26.4103 117.91 25.4143 116.792 25.2551C115.844 25.1497 114.885 25.2159 113.935 25.2055C113.881 27.6584 114.04 30.1196 113.854 32.5662C112.385 32.5559 110.918 32.5683 109.448 32.5559C109.463 25.5961 109.457 18.6363 109.45 11.6785V11.6765ZM113.939 15.1419C113.924 17.4068 113.945 19.6695 113.928 21.9344C114.999 21.9447 116.073 22.0108 117.138 21.8848C118.289 21.7484 119.38 20.8991 119.586 19.7232C119.857 18.3986 119.799 16.6938 118.64 15.7949C117.266 14.8382 115.505 15.2411 113.939 15.1419Z" fill="white"/>
<path d="M3.1514 15.0385C4.31895 15.5406 4.97609 16.7288 5.90601 17.5451C5.01536 19.9546 4.96163 22.736 6.03413 25.0959C6.54454 26.2882 7.29054 27.3545 8.03241 28.4105C10.2642 31.4957 12.6303 34.4838 15.0708 37.4057C15.9863 36.5606 16.6868 35.5253 17.47 34.5644C19.3112 32.1983 21.2103 29.8673 22.9172 27.3979C24.2294 25.6042 25.1325 23.4345 24.9444 21.1738C25.0209 19.9587 24.3431 18.8552 24.3431 17.6629C25.1345 16.6916 26.0769 15.8485 27.0109 15.0137C28.8873 18.2973 29.3295 22.4302 27.9326 25.9721C27.3105 27.6521 26.2504 29.111 25.2131 30.5555C22.0472 34.9219 18.59 39.0692 15.1989 43.2662C12.3741 40.3153 9.92943 37.0152 7.3856 33.8225C5.19101 30.8489 2.58518 27.9187 1.88051 24.1722C1.23164 21.0725 1.92184 17.9046 3.14933 15.0405L3.1514 15.0385Z" fill="white"/>
<path d="M13.1617 15.2063C15.0939 14.5822 17.3071 14.9129 18.9665 16.0907C21.2478 17.6158 22.4133 20.6679 21.6074 23.3109C20.7953 26.3775 17.5881 28.5845 14.4264 28.1382C10.8369 27.8798 7.97695 24.1871 8.57829 20.6493C8.89653 18.1531 10.7584 15.9523 13.1638 15.2063H13.1617ZM14.2652 18.7875C12.9613 19.2049 12.0396 20.6101 12.2917 21.9822C12.5129 23.9681 15.0484 25.086 16.6975 23.9928C18.4023 23.0629 18.4974 20.3373 16.9268 19.24C16.2098 18.5849 15.1538 18.6428 14.2652 18.7895V18.7875Z" fill="white"/>
<path d="M54.8789 17.0898C55.7882 15.7032 57.6253 15.2775 59.171 15.6371C59.1855 17.2696 59.0904 18.8959 59.0863 20.5242C57.9476 20.3982 56.6416 20.1585 55.6828 20.9603C54.2941 22.0658 53.9862 23.9731 53.885 25.6408C53.8044 27.9449 53.8994 30.251 53.8395 32.5551C52.3578 32.5613 50.8803 32.5468 49.4028 32.5696C49.3263 31.8505 49.3077 31.1251 49.3181 30.406C49.3656 25.5457 49.2685 20.6854 49.3656 15.8251C50.6034 15.7755 51.8433 15.7569 53.0811 15.8499C53.201 17.9164 53.0749 19.9849 53.1493 22.0534C53.2506 21.9997 53.4489 21.8964 53.5502 21.8468C53.8746 20.237 53.9077 18.4867 54.881 17.0877L54.8789 17.0898Z" fill="white"/>
<path d="M62.3205 16.4258C64.1906 15.2995 66.5278 15.2438 68.617 15.6674C70.202 15.9691 71.5204 17.1655 72.1073 18.6493C72.9731 20.7818 72.7231 23.1252 72.7562 25.3714C72.7169 27.7706 72.8512 30.1677 72.9236 32.5627C71.6527 32.5627 70.3777 32.5647 69.1068 32.5544C68.9001 31.1947 68.8939 29.8184 68.8836 28.4484C68.305 28.4008 68.2678 29.0724 68.0735 29.4651C67.7491 30.4301 67.2221 31.3517 66.4162 31.9985C64.6659 33.4719 61.7935 33.3149 60.2044 31.6762C58.5533 29.7358 58.7537 26.3241 60.9235 24.8342C62.802 23.4558 65.2177 23.3897 67.3151 22.5301C68.5364 22.1147 68.6397 20.4057 67.8607 19.5378C67.2428 18.7753 66.1186 18.9158 65.2714 19.0956C64.1844 19.5936 63.8042 20.8418 63.8042 21.9515C62.4217 21.9928 61.0599 21.7324 59.7084 21.4782C59.6134 19.5027 60.5867 17.4445 62.3184 16.4278L62.3205 16.4258ZM64.3002 25.9769C63.3868 26.5059 63.4178 27.6921 63.5996 28.5951C64.3518 29.9032 66.3708 29.7089 67.2387 28.6199C68.3422 27.5722 68.4703 25.9852 68.3422 24.5572C66.9618 24.9106 65.5235 25.2206 64.3002 25.9769Z" fill="white"/>
<path d="M89.2283 18.1293C90.2512 16.5361 92.0717 15.5834 93.9398 15.4595C95.8554 15.3024 97.9901 15.7054 99.3292 17.187C101.191 19.1832 101.468 22.1444 101.166 24.7358C98.1389 25.0044 95.0908 24.8701 92.0552 24.9341C92.0097 26.1554 92.0841 27.449 92.7909 28.4946C93.4997 29.7076 95.3016 30.1147 96.4196 29.2262C97.2297 28.6124 97.2296 27.4965 97.5231 26.6121C98.7857 26.7919 100.055 26.9489 101.332 27.0523C101.598 29.4142 100.094 31.8712 97.8021 32.5862C95.5703 33.2702 92.9975 33.202 90.9372 32.0365C88.9018 30.9186 87.9532 28.5794 87.6701 26.3786C87.4036 23.5682 87.6143 20.5388 89.2303 18.1314L89.2283 18.1293ZM93.8034 19.1005C92.5553 19.7535 92.1689 21.2765 92.0263 22.5722C93.7125 22.8036 95.3967 22.4916 97.085 22.4957C97.1904 21.4439 96.9651 20.2619 96.1861 19.4973C95.5765 18.8608 94.5908 18.8898 93.8034 19.1005Z" fill="white"/>
<path d="M130.442 15.6639C132.764 15.1287 135.436 15.42 137.306 17.005C138.836 18.3399 139.474 20.3981 139.689 22.3571C139.854 24.8885 139.83 27.61 138.468 29.848C137.519 31.5859 135.649 32.6811 133.709 32.9167C131.382 33.2349 128.714 32.6708 127.175 30.7758C125.623 28.883 125.203 26.3474 125.203 23.9669C125.261 21.6959 125.67 19.2492 127.249 17.5072C128.076 16.5607 129.237 15.9697 130.44 15.6618L130.442 15.6639ZM131.578 19.0487C129.828 19.9642 129.913 22.2703 129.762 23.9669C129.84 25.5457 129.76 27.2794 130.702 28.6391C131.301 29.6496 132.756 30.0175 133.729 29.3149C134.897 28.5007 135.085 26.9529 135.215 25.6469C135.285 23.7954 135.331 21.8178 134.459 20.1315C133.957 19.1087 132.634 18.5032 131.578 19.0487Z" fill="white"/>
<path d="M143.027 16.7817C144.81 15.424 147.217 15.2422 149.364 15.5666C151.022 15.8105 152.594 16.8313 153.26 18.408C154.398 20.9539 153.857 23.8035 153.993 26.4961C153.931 28.5253 154.216 30.5443 154.177 32.5694C152.9 32.5591 151.623 32.5715 150.348 32.5529C150.137 31.2055 150.081 29.8437 150.09 28.4819C149.964 28.4923 149.71 28.5191 149.579 28.5315C149.327 29.7962 148.8 31.0505 147.779 31.8916C145.816 33.7121 142.066 33.2947 140.875 30.786C140.038 28.9531 140.229 26.4692 141.838 25.1074C143.347 23.8386 145.364 23.5349 147.197 22.9852C147.994 22.7331 148.964 22.576 149.462 21.8259C149.633 21.0551 149.691 20.1108 149.09 19.5074C148.199 18.563 146.494 18.7283 145.707 19.7285C145.169 20.336 145.107 21.1874 144.979 21.954C143.615 21.9768 142.281 21.6957 140.948 21.4746C140.919 19.7099 141.594 17.8707 143.024 16.7796L143.027 16.7817ZM146.23 25.6054C145.434 25.9526 144.628 26.6573 144.698 27.6078C144.55 28.6555 145.533 29.6412 146.583 29.4945C147.744 29.5586 148.635 28.6018 149.172 27.674C149.738 26.7337 149.536 25.5931 149.559 24.5495C148.432 24.8512 147.304 25.157 146.23 25.6054Z" fill="white"/>
<path d="M161.41 16.9673C162.663 15.0661 165.907 14.8285 167.256 16.7358C168.209 18.0852 168.25 19.8148 168.284 21.4019C168.403 21.3688 168.645 21.2965 168.763 21.2614C169.038 19.6764 169.333 17.984 170.414 16.7234C171.524 15.4278 173.477 15.1323 175.033 15.684C176.219 16.1035 177.039 17.1842 177.409 18.3539C178.182 20.7034 177.959 23.2142 177.992 25.6464C177.953 27.9505 178.072 30.2608 177.922 32.5607C176.463 32.5524 175.004 32.5586 173.549 32.5545C173.52 29.3143 173.574 26.0762 173.526 22.8401C173.429 21.78 173.392 20.5815 172.656 19.7384C171.852 19.0069 170.61 19.4966 170.123 20.3521C169.445 21.5217 169.3 22.9104 169.174 24.2329C169.129 27.004 169.174 29.7793 169.16 32.5504C167.724 32.5607 166.287 32.5566 164.851 32.5566C164.756 28.9672 164.996 25.3653 164.659 21.7842C164.582 21.0175 164.388 20.1723 163.762 19.6599C162.987 19.042 161.828 19.5111 161.388 20.3129C160.222 22.2533 160.431 24.6028 160.408 26.7684C160.369 28.7006 160.501 30.6348 160.33 32.5607C158.86 32.5545 157.389 32.5669 155.924 32.5524C155.932 26.9978 155.938 21.4453 155.922 15.8927C157.114 15.7522 158.321 15.7687 159.52 15.8473C159.613 17.7257 159.482 19.6082 159.561 21.4887C159.871 21.3957 160.044 21.1911 160.08 20.8791C160.321 19.5193 160.619 18.1245 161.412 16.9673H161.41Z" fill="white"/>
<path d="M72.9502 15.9204C74.4959 15.9286 76.0437 15.8274 77.5832 15.9576C77.9056 16.1684 77.8023 16.6457 77.9283 16.9701C78.5586 20.6567 79.3728 24.3102 80.0692 27.9843C80.2014 28.3005 80.1333 28.937 80.6147 28.9328C81.3773 24.5912 82.4622 20.3095 83.2123 15.9658C84.7353 15.8501 86.2666 15.91 87.7957 15.9204C86.7212 20.7559 85.1217 25.4674 83.9604 30.2843C83.7765 30.9951 83.6277 31.7267 83.3528 32.4127C83.016 32.6338 82.58 32.5243 82.2059 32.5677C80.5941 32.5264 78.9802 32.6359 77.3745 32.483C76.3495 28.16 75.0415 23.9114 73.8863 19.6235C73.5412 18.3981 73.1238 17.1871 72.9502 15.9204Z" fill="white"/>
</svg>
