<svg width="330" height="81" viewBox="0 0 330 81" fill="none" xmlns="http://www.w3.org/2000/svg">
<path d="M22.7989 0.418869C34.6868 -1.42392 47.2145 2.90913 55.5548 11.5369C55.846 11.9047 56.5547 12.4756 56.0069 12.9506C54.4745 14.7091 52.6968 16.2301 51.0571 17.8852C49.4442 16.4485 47.9578 14.8585 46.2261 13.5598C38.5869 7.93945 28.2774 6.21926 19.2168 9.00069C13.8916 10.5523 9.2253 13.7705 5.40952 17.7472C3.425 16.1343 1.59374 14.326 0 12.33C5.96886 5.95491 14.0755 1.46478 22.8027 0.418869H22.7989Z" fill="#F70075"/>
<path d="M10.1338 22.6059C19.1139 12.2617 37.1354 12.3345 46.1308 22.6212C44.6865 24.3721 43.1043 25.9965 41.3343 27.4102C37.5338 23.9315 32.5419 21.4297 27.2741 21.832C22.5772 21.9738 18.2902 24.215 14.8384 27.2838C13.1948 25.8049 11.6356 24.238 10.1376 22.6059H10.1338Z" fill="#F70075"/>
<path d="M190.759 19.2109C193.368 19.2952 195.981 19.2684 198.59 19.2263C198.9 21.3909 198.754 23.5746 198.77 25.7507V53.7796C198.766 55.9748 198.869 58.1816 198.624 60.373C195.988 60.3692 193.353 60.3462 190.713 60.3884C190.433 58.1969 190.571 55.9825 190.556 53.7796C190.541 43.0446 190.571 32.3135 190.541 21.5709C190.544 20.7779 190.64 19.9925 190.755 19.2109H190.759Z" fill="#F70075"/>
<path d="M64.7881 21.5744C70.9715 21.2832 77.1626 21.5284 83.3422 21.4556C85.9473 21.4748 88.5601 21.3253 91.1538 21.6012C91.4067 23.8386 91.376 26.1028 91.1806 28.344C88.2 28.5969 85.2079 28.4513 82.2158 28.4628C82.1086 29.4551 82.0434 30.4512 82.0511 31.4511C82.1047 41.0865 82.0319 50.7142 82.0856 60.3458C79.2812 60.3765 76.473 60.3726 73.6725 60.3458C73.6035 49.722 73.8487 39.079 73.5537 28.459C70.6229 28.4475 67.6845 28.5854 64.7575 28.3517C64.4817 26.099 64.5238 23.8271 64.7881 21.5744Z" fill="#F70075"/>
<path d="M202.915 21.646C206.643 21.2246 210.401 21.5541 214.14 21.4391C218.573 21.4276 223.503 21.7724 226.997 24.8335C231.809 28.9482 231.878 38.0587 226.093 41.3497C224.511 42.4876 222.308 42.2386 220.829 43.499C222.557 43.8515 224.438 44.0086 225.886 45.1234C228.3 46.8053 229.124 49.8243 229.752 52.5444C230.25 55.1496 231.039 57.705 231.292 60.3562C228.392 60.3676 225.495 60.383 222.599 60.3408C221.852 57.1993 221.592 53.9581 220.638 50.874C220.071 48.9623 218.599 47.1156 216.527 46.8206C214.768 46.6252 212.991 46.7478 211.228 46.7287C211.129 51.2763 211.424 55.8392 211.079 60.3753C208.355 60.3562 205.635 60.3791 202.911 60.3562C202.938 47.4528 202.926 34.5494 202.915 21.6498V21.646ZM211.236 28.0709C211.209 32.2698 211.248 36.465 211.217 40.6639C213.201 40.6831 215.194 40.8057 217.167 40.572C219.301 40.3191 221.323 38.7445 221.707 36.5646C222.208 34.1088 222.101 30.9481 219.952 29.2815C217.404 27.5077 214.14 28.2548 211.236 28.0709Z" fill="#F70075"/>
<path d="M5.84255 27.88C8.00712 28.8109 9.22542 31.0139 10.9494 32.5272C9.29821 36.9943 9.1986 42.1511 11.1869 46.5263C12.1332 48.7368 13.5162 50.7137 14.8916 52.6715C19.0292 58.3914 23.4158 63.9313 27.9404 69.3485C29.6375 67.7816 30.9363 65.8622 32.3883 64.0807C35.8018 59.694 39.3226 55.3724 42.487 50.7942C44.9198 47.4687 46.594 43.446 46.2454 39.2547C46.3871 37.002 45.1305 34.9561 45.1305 32.7455C46.5978 30.9449 48.3448 29.3818 50.0765 27.834C53.5551 33.9217 54.375 41.5841 51.7851 48.1507C50.632 51.2654 48.6666 53.9702 46.7434 56.6482C40.8742 64.7435 34.4647 72.4326 28.1779 80.2137C22.9408 74.7428 18.4086 68.6245 13.6925 62.7053C9.62385 57.1922 4.79283 51.7596 3.48642 44.8137C2.28346 39.067 3.56305 33.1938 5.83872 27.8838L5.84255 27.88Z" fill="#F70075"/>
<path d="M24.4001 28.1916C27.9821 27.0346 32.0853 27.6476 35.1616 29.8313C39.3912 32.6587 41.5519 38.3174 40.0578 43.2174C38.5522 48.9029 32.6063 52.9946 26.7447 52.167C20.0901 51.6881 14.7878 44.8418 15.9027 38.2829C16.4927 33.6548 19.9445 29.5746 24.4039 28.1916H24.4001ZM26.4459 34.831C24.0284 35.6049 22.3198 38.2101 22.7872 40.754C23.1971 44.4357 27.8979 46.5084 30.9551 44.4817C34.1157 42.7577 34.292 37.7044 31.3803 35.67C30.0509 34.4555 28.0932 34.5628 26.4459 34.8348V34.831Z" fill="#F70075"/>
<path d="M101.742 31.6861C103.428 29.1153 106.834 28.3261 109.699 28.9927C109.726 32.0194 109.55 35.0345 109.542 38.0535C107.431 37.8198 105.01 37.3753 103.232 38.8618C100.658 40.9115 100.087 44.4477 99.8993 47.5394C99.7499 51.8112 99.9262 56.0868 99.8151 60.3585C97.0682 60.37 94.3289 60.3432 91.5897 60.3854C91.4479 59.0521 91.4134 57.7074 91.4326 56.3741C91.5207 47.3632 91.3407 38.3523 91.5207 29.3414C93.8155 29.2494 96.1142 29.215 98.409 29.3874C98.6312 33.2185 98.3975 37.0535 98.5355 40.8885C98.7232 40.7889 99.091 40.5974 99.2787 40.5054C99.8802 37.5209 99.9415 34.2759 101.746 31.6822L101.742 31.6861Z" fill="#F70075"/>
<path d="M115.539 30.4513C119.006 28.3633 123.339 28.2599 127.213 29.0453C130.151 29.6046 132.595 31.8229 133.683 34.5737C135.289 38.5274 134.825 42.872 134.886 47.0364C134.814 51.4844 135.063 55.9286 135.197 60.3689C132.84 60.3689 130.477 60.3728 128.121 60.3536C127.737 57.8327 127.726 55.2811 127.707 52.7411C126.634 52.6529 126.565 53.8981 126.205 54.626C125.604 56.4152 124.627 58.1239 123.132 59.323C119.888 62.0546 114.562 61.7635 111.616 58.7254C108.555 55.1279 108.927 48.8026 112.949 46.0403C116.432 43.485 120.91 43.3624 124.799 41.7686C127.063 40.9985 127.255 37.8301 125.81 36.2211C124.665 34.8074 122.581 35.0679 121.01 35.4012C118.995 36.3245 118.29 38.6385 118.29 40.6959C115.727 40.7725 113.202 40.2898 110.697 39.8185C110.52 36.1559 112.325 32.3401 115.535 30.4551L115.539 30.4513ZM119.209 48.159C117.516 49.1398 117.574 51.3389 117.911 53.0131C119.305 55.4382 123.048 55.0781 124.657 53.059C126.703 51.1166 126.941 48.1743 126.703 45.527C124.144 46.1821 121.477 46.7568 119.209 48.159Z" fill="#F70075"/>
<path d="M165.424 33.6122C167.32 30.6584 170.695 28.8922 174.159 28.6623C177.71 28.3712 181.668 29.1182 184.15 31.8652C187.602 35.5661 188.115 41.0562 187.556 45.8605C181.943 46.3585 176.293 46.1095 170.665 46.2283C170.58 48.4925 170.718 50.8908 172.029 52.8294C173.343 55.0783 176.683 55.833 178.756 54.1856C180.258 53.0477 180.258 50.9789 180.802 49.3392C183.143 49.6725 185.495 49.9636 187.863 50.1552C188.357 54.5342 185.568 59.0895 181.319 60.4151C177.181 61.6832 172.412 61.5568 168.592 59.396C164.818 57.3233 163.06 52.9864 162.535 48.9062C162.041 43.6958 162.432 38.0794 165.428 33.616L165.424 33.6122ZM173.906 35.4129C171.592 36.6235 170.875 39.4471 170.611 41.8492C173.737 42.2783 176.86 41.6998 179.99 41.7075C180.185 39.7574 179.767 37.566 178.323 36.1484C177.193 34.9684 175.365 35.0221 173.906 35.4129Z" fill="#F70075"/>
<path d="M241.831 29.0418C246.137 28.0496 251.091 28.5898 254.558 31.5283C257.393 34.0032 258.577 37.8191 258.975 41.451C259.282 46.1442 259.236 51.1898 256.711 55.339C254.953 58.561 251.485 60.5915 247.888 61.0283C243.574 61.6183 238.628 60.5724 235.774 57.0592C232.897 53.5498 232.119 48.849 232.119 44.4355C232.226 40.225 232.985 35.6889 235.912 32.4593C237.444 30.7046 239.597 29.6089 241.827 29.038L241.831 29.0418ZM243.938 35.3173C240.693 37.0145 240.85 41.2901 240.571 44.4355C240.716 47.3625 240.567 50.5769 242.314 53.0978C243.425 54.9712 246.122 55.6532 247.926 54.3506C250.091 52.8411 250.439 49.9715 250.681 47.5502C250.811 44.1175 250.895 40.4511 249.279 37.3248C248.348 35.4284 245.896 34.3059 243.938 35.3173Z" fill="#F70075"/>
<path d="M265.163 31.1098C268.469 28.5928 272.932 28.2556 276.913 28.8571C279.985 29.3092 282.901 31.2018 284.134 34.125C286.245 38.845 285.242 44.1282 285.494 49.1202C285.379 52.8824 285.908 56.6254 285.835 60.38C283.468 60.3608 281.1 60.3838 278.736 60.3493C278.346 57.8514 278.242 55.3267 278.257 52.8019C278.024 52.8211 277.553 52.8709 277.311 52.8939C276.844 55.2386 275.867 57.5641 273.974 59.1234C270.335 62.4986 263.381 61.7247 261.175 57.0737C259.623 53.6754 259.975 49.0704 262.96 46.5456C265.757 44.1933 269.496 43.6301 272.894 42.611C274.373 42.1436 276.17 41.8524 277.093 40.4617C277.411 39.0327 277.518 37.2819 276.403 36.1632C274.752 34.4123 271.591 34.7188 270.132 36.5731C269.136 37.6995 269.021 39.2779 268.783 40.6993C266.255 40.7414 263.78 40.2204 261.309 39.8104C261.255 36.5386 262.508 33.1289 265.159 31.106L265.163 31.1098ZM271.101 47.4689C269.626 48.1126 268.132 49.419 268.262 51.1813C267.986 53.1237 269.81 54.9512 271.756 54.6792C273.909 54.798 275.56 53.0241 276.556 51.3039C277.606 49.5608 277.231 47.446 277.273 45.5112C275.185 46.0706 273.093 46.6376 271.101 47.4689Z" fill="#F70075"/>
<path d="M299.244 31.4564C301.565 27.9317 307.58 27.4911 310.082 31.0273C311.848 33.529 311.925 36.7357 311.986 39.6781C312.208 39.6168 312.656 39.4827 312.875 39.4175C313.384 36.479 313.932 33.3413 315.936 31.0043C317.993 28.6021 321.614 28.0543 324.498 29.0772C326.697 29.8549 328.218 31.8586 328.904 34.0271C330.337 38.3831 329.923 43.038 329.985 47.5473C329.912 51.819 330.134 56.1023 329.854 60.3664C327.15 60.3511 324.445 60.3625 321.748 60.3549C321.694 54.3476 321.794 48.3442 321.706 42.3445C321.525 40.3792 321.457 38.1571 320.093 36.594C318.602 35.2377 316.3 36.1457 315.396 37.7318C314.139 39.9003 313.871 42.4748 313.637 44.9268C313.553 50.0644 313.637 55.2096 313.61 60.3472C310.948 60.3664 308.285 60.3587 305.623 60.3587C305.446 53.704 305.891 47.0262 305.266 40.3868C305.125 38.9655 304.764 37.3985 303.604 36.4484C302.167 35.3029 300.018 36.1725 299.202 37.659C297.041 41.2565 297.428 45.6125 297.386 49.6276C297.313 53.2097 297.558 56.7957 297.24 60.3664C294.516 60.3549 291.788 60.3779 289.072 60.351C289.087 50.0529 289.099 39.7585 289.068 29.4642C291.279 29.2036 293.516 29.2343 295.738 29.3799C295.911 32.8624 295.669 36.3526 295.815 39.839C296.39 39.6666 296.711 39.2873 296.777 38.7088C297.225 36.1879 297.776 33.6018 299.248 31.4564H299.244Z" fill="#F70075"/>
<path d="M135.246 29.5161C138.112 29.5314 140.981 29.3437 143.835 29.5851C144.433 29.9759 144.242 30.8608 144.475 31.4623C145.644 38.2971 147.153 45.0707 148.444 51.8825C148.689 52.4686 148.563 53.6486 149.456 53.641C150.869 45.5917 152.881 37.6535 154.271 29.6004C157.095 29.3858 159.934 29.497 162.769 29.5161C160.777 38.481 157.811 47.2161 155.658 56.1466C155.317 57.4645 155.041 58.8207 154.532 60.0927C153.907 60.5026 153.099 60.2996 152.406 60.38C149.417 60.3034 146.425 60.5064 143.448 60.2229C141.548 52.2081 139.123 44.3312 136.982 36.3816C136.342 34.1097 135.568 31.8646 135.246 29.5161Z" fill="#F70075"/>
</svg>
