<svg width="21" height="23" viewBox="0 0 21 23" fill="none" xmlns="http://www.w3.org/2000/svg">
<path fill-rule="evenodd" clip-rule="evenodd" d="M10.1129 19.3368V20.483C10.1129 21.4022 9.65477 22.1958 8.85871 22.6553C8.47571 22.8764 8.04823 22.9998 7.60503 23C7.16143 23.0002 6.73409 22.8766 6.35082 22.6553L1.25417 19.7128C0.458023 19.2531 0 18.4598 0 17.5405V2.50834C0 1.12516 1.1252 0 2.50834 0H13.733C15.1162 0 16.2415 1.12507 16.2415 2.50834V5.67708C16.2415 6.13164 15.8724 6.50072 15.4179 6.50072C14.9632 6.50072 14.5944 6.13169 14.5944 5.67708V2.50834C14.5944 2.03338 14.208 1.64692 13.733 1.64692H3.89728L8.85871 4.5119C9.6545 4.97145 10.1129 5.76477 10.1129 6.68373V17.6897H13.733C14.2079 17.6897 14.5944 17.3035 14.5944 16.8285V14.0507C14.5944 13.5958 14.963 13.227 15.4179 13.227C15.8726 13.227 16.2415 13.5959 16.2415 14.0507V16.8285C16.2415 18.2117 15.1162 19.3368 13.733 19.3368H10.1129ZM17.7443 10.4918L16.8373 11.3989C16.5157 11.7205 16.5158 12.2418 16.8373 12.5635C16.9137 12.64 17.0045 12.7007 17.1044 12.742C17.2044 12.7834 17.3115 12.8046 17.4196 12.8044C17.5278 12.8046 17.635 12.7835 17.735 12.7421C17.8349 12.7007 17.9258 12.64 18.0022 12.5635L20.3147 10.2505C20.6362 9.92897 20.6363 9.40788 20.3147 9.08633L18.0022 6.77376C17.6805 6.45212 17.1591 6.45225 16.8374 6.77371C16.5159 7.09499 16.5159 7.61658 16.8374 7.93795L17.7443 8.84474H11.6682C11.2132 8.84474 10.8448 9.21346 10.8448 9.66843C10.8448 10.1234 11.2132 10.4919 11.6682 10.4919H17.7443V10.4918Z" fill="#25123C"/>
</svg>
