<svg width="63" height="63" viewBox="0 0 63 63" fill="none" xmlns="http://www.w3.org/2000/svg">
<path d="M13.7489 37.4906L11.5895 45.5521L3.69671 45.7191C1.33793 41.3441 0 36.3385 0 31.0192C0 25.8755 1.25094 21.0249 3.46831 16.7539H3.47L10.4968 18.0422L13.5749 25.0268C12.9307 26.905 12.5795 28.9212 12.5795 31.0192C12.5798 33.2962 12.9922 35.4778 13.7489 37.4906Z" fill="#FBBB00"/>
<path d="M61.4962 25.2246C61.8524 27.101 62.0382 29.0389 62.0382 31.0193C62.0382 33.2401 61.8047 35.4063 61.3599 37.4959C59.8499 44.6064 55.9043 50.8152 50.4386 55.209L50.4369 55.2073L41.5863 54.7557L40.3337 46.9362C43.9604 44.8092 46.7948 41.4806 48.2878 37.4959H31.7012V25.2246H61.4962Z" fill="#518EF8"/>
<path d="M50.437 55.2068L50.4387 55.2085C45.123 59.4812 38.3703 62.0377 31.0195 62.0377C19.2067 62.0377 8.93644 55.4352 3.69727 45.7187L13.7495 37.4902C16.369 44.4814 23.1131 49.4581 31.0195 49.4581C34.4179 49.4581 37.6017 48.5394 40.3337 46.9356L50.437 55.2068Z" fill="#28B446"/>
<path d="M50.8187 7.14115L40.7699 15.368C37.9425 13.6006 34.6002 12.5796 31.0194 12.5796C22.934 12.5796 16.0638 17.7846 13.5755 25.0265L3.47045 16.7536H3.46875C8.63123 6.8003 19.0311 0 31.0194 0C38.5457 0 45.4466 2.68096 50.8187 7.14115Z" fill="#F14336"/>
</svg>
