<svg width="41" height="52" viewBox="0 0 41 52" fill="none" xmlns="http://www.w3.org/2000/svg">
<path d="M20.3822 0C9.14666 0 0 9.14665 0 20.3822C0 28.6 4.9288 36.2991 9.68935 42.0332C14.4499 47.7673 19.2187 51.5917 19.2187 51.5917C19.5489 51.856 19.9592 52 20.3822 52C20.8051 52 21.2154 51.856 21.5456 51.5917C21.5456 51.5917 26.3144 47.7673 31.075 42.0332C35.8355 36.2991 40.7643 28.6 40.7643 20.3822C40.7643 9.14665 31.6177 -1.86152e-07 20.3822 0ZM20.3822 3.72304C29.6056 3.72304 37.0413 11.1587 37.0413 20.3822C37.0413 27.0565 32.7105 34.2346 28.21 39.6554C24.6421 43.953 21.7058 46.533 20.3822 47.6578C19.0586 46.533 16.1223 43.953 12.5543 39.6554C8.05384 34.2346 3.72304 27.0565 3.72304 20.3822C3.72304 11.1587 11.1587 3.72304 20.3822 3.72304Z" fill="#2D2F66"/>
<path d="M20.384 9.21484C18.0588 9.21484 15.8815 9.93307 14.0904 11.1563C13.6833 11.4348 13.4034 11.8634 13.312 12.3481C13.2207 12.8327 13.3254 13.3339 13.6032 13.7414C13.7411 13.9435 13.9175 14.1164 14.1222 14.2503C14.327 14.3841 14.5562 14.4763 14.7966 14.5216C15.037 14.5668 15.284 14.5642 15.5234 14.514C15.7628 14.4637 15.99 14.3667 16.1919 14.2286C17.3871 13.4123 18.8199 12.9379 20.384 12.9379C24.5183 12.9379 27.83 16.2496 27.83 20.384C27.83 24.5184 24.5183 27.83 20.384 27.83C16.2496 27.83 12.9379 24.5184 12.9379 20.384C12.9379 20.1075 12.9528 19.8369 12.9814 19.5695C13.0082 19.3262 12.9867 19.08 12.9182 18.845C12.8497 18.6101 12.7355 18.3909 12.5822 18.2001C12.4288 18.0093 12.2394 17.8506 12.0247 17.7331C11.8099 17.6156 11.5742 17.5416 11.3308 17.5153C10.84 17.4623 10.3482 17.6065 9.96368 17.916C9.57913 18.2255 9.33329 18.6752 9.28022 19.166C9.23675 19.5666 9.21484 19.973 9.21484 20.384C9.21484 26.5304 14.2375 31.5531 20.384 31.5531C26.5304 31.5531 31.5531 26.5304 31.5531 20.384C31.5531 14.2375 26.5304 9.21484 20.384 9.21484Z" fill="#2D2F66"/>
</svg>
