<svg width="45" height="45" viewBox="0 0 45 45" fill="none" xmlns="http://www.w3.org/2000/svg">
<path d="M39.375 13.125C39.375 17.2688 31.8188 20.625 22.5 20.625C13.1813 20.625 5.625 17.2688 5.625 13.125C5.625 8.98125 13.1813 5.625 22.5 5.625C31.8188 5.625 39.375 8.98125 39.375 13.125Z" fill="#25123C"/>
<path d="M22.5 5.625C31.8188 5.625 39.375 8.98125 39.375 13.125V22.5V31.875C39.375 36.0187 31.8188 39.375 22.5 39.375C13.1813 39.375 5.625 36.0187 5.625 31.875V22.5V13.125C5.625 8.98125 13.1813 5.625 22.5 5.625Z" fill="#25123C"/>
<path d="M39.375 13.125C39.375 17.2688 31.8187 20.625 22.5 20.625C13.1813 20.625 5.625 17.2688 5.625 13.125M39.375 13.125C39.375 8.98125 31.8187 5.625 22.5 5.625C13.1813 5.625 5.625 8.98125 5.625 13.125M39.375 13.125V22.5M5.625 13.125V22.5M39.375 22.5C39.375 26.6438 31.8187 30 22.5 30C13.1813 30 5.625 26.6438 5.625 22.5M39.375 22.5V31.875C39.375 36.0188 31.8187 39.375 22.5 39.375C13.1813 39.375 5.625 36.0188 5.625 31.875V22.5" stroke="white" stroke-width="2" stroke-linecap="round" stroke-linejoin="round"/>
</svg>
