<svg width="20" height="26" viewBox="0 0 20 26" fill="none" xmlns="http://www.w3.org/2000/svg">
<path fill-rule="evenodd" clip-rule="evenodd" d="M10 0C4.48765 0 0 4.57339 0 10.1909C0 14.3003 2.41823 18.1497 4.75378 21.0165C7.08952 23.8833 9.42923 25.7961 9.42923 25.7961C9.59117 25.9277 9.79257 26 10 26C10.2074 26 10.4088 25.9277 10.5708 25.7961C10.5708 25.7961 12.9105 23.8833 15.2462 21.0165C17.5818 18.1497 20 14.3003 20 10.1909C20 4.57339 15.5125 0 10 0ZM6.9121 5.57747C7.79091 4.96579 8.85921 4.60647 10 4.60647C13.0156 4.60647 15.4799 7.11784 15.4799 10.1909C15.4799 13.2639 13.0156 15.7753 10 15.7753C6.98439 15.7753 4.52011 13.2639 4.52011 10.1909C4.52011 10.0862 4.52294 9.98236 4.52842 9.87926C4.5337 9.78001 4.54163 9.68075 4.5522 9.58227C4.57825 9.33683 4.69885 9.11216 4.8876 8.95674C5.07616 8.80208 5.31738 8.73053 5.55822 8.75669C5.6777 8.76977 5.7934 8.8067 5.89872 8.86594C5.95534 8.89749 6.00819 8.93442 6.0567 8.97751C6.0986 9.01444 6.13729 9.05522 6.17221 9.09908C6.20789 9.14447 6.23922 9.19295 6.26602 9.24373C6.29546 9.29989 6.31944 9.35991 6.33699 9.42146C6.37059 9.53918 6.38116 9.66229 6.36813 9.78385C6.357 9.88926 6.3502 9.99621 6.34775 10.1039L6.3468 10.1909C6.3468 12.2583 7.97154 13.9141 10 13.9141C12.0285 13.9141 13.6532 12.2583 13.6532 10.1909C13.6532 8.12346 12.0285 6.46768 10 6.46768C9.23256 6.46768 8.52966 6.70543 7.94322 7.11322C7.84413 7.18247 7.73277 7.23094 7.61518 7.25633C7.49778 7.28095 7.37661 7.28249 7.25864 7.26018C7.14067 7.2371 7.02818 7.19093 6.92777 7.12399C6.85114 7.07321 6.78281 7.01089 6.72449 6.93933C6.70637 6.91702 6.68919 6.89394 6.67315 6.87009C6.53687 6.66619 6.48553 6.41536 6.53027 6.173C6.55612 6.03374 6.61275 5.90371 6.69429 5.79137C6.75412 5.70904 6.82754 5.63672 6.9121 5.57747Z" fill="#F70075"/>
</svg>
