<svg width="23" height="20" viewBox="0 0 23 20" fill="none" xmlns="http://www.w3.org/2000/svg">
<path d="M22.5503 6.17752L21.2736 1.06791C21.117 0.440143 20.5527 0 19.9052 0H2.66766C2.02014 0 1.45586 0.440143 1.29786 1.06791L0.0211607 6.17752C0.00705357 6.23254 0 6.29037 0 6.34821C0 8.29218 1.50241 9.875 3.35045 9.875C4.424 9.875 5.38188 9.34034 5.99554 8.51084C6.6092 9.34034 7.56707 9.875 8.64062 9.875C9.71418 9.875 10.6721 9.34034 11.2857 8.51084C11.8994 9.34034 12.8558 9.875 13.9308 9.875C15.0058 9.875 15.9622 9.34034 16.5759 8.51084C17.1896 9.34034 18.146 9.875 19.221 9.875C21.069 9.875 22.5714 8.29218 22.5714 6.34821C22.5714 6.29037 22.5644 6.23254 22.5503 6.17752ZM19.221 11.2857C18.2603 11.2857 17.3476 10.9923 16.5759 10.4562C15.0326 11.5298 12.829 11.5298 11.2857 10.4562C9.74239 11.5298 7.53886 11.5298 5.99554 10.4562C5.22388 10.9923 4.31114 11.2857 3.35045 11.2857C2.65779 11.2857 2.00463 11.1235 1.41071 10.847V18.3393C1.41071 19.118 2.04271 19.75 2.82143 19.75H8.46429V14.1071H14.1071V19.75H19.75C20.5287 19.75 21.1607 19.118 21.1607 18.3393V10.847C20.5668 11.1235 19.9136 11.2857 19.221 11.2857Z" fill="white" fill-opacity="0.5"/>
</svg>
