<svg width="25" height="28" viewBox="0 0 25 28" fill="none" xmlns="http://www.w3.org/2000/svg">
<path d="M13.24 26.5721L13.2262 26.5746L13.1375 26.6183L13.1125 26.6233L13.095 26.6183L13.0062 26.5746C12.9929 26.5704 12.9829 26.5725 12.9762 26.5808L12.9713 26.5933L12.95 27.1283L12.9562 27.1533L12.9688 27.1696L13.0987 27.2621L13.1175 27.2671L13.1325 27.2621L13.2625 27.1696L13.2775 27.1496L13.2825 27.1283L13.2612 26.5946C13.2579 26.5812 13.2508 26.5737 13.24 26.5721ZM13.5712 26.4308L13.555 26.4333L13.3237 26.5496L13.3112 26.5621L13.3075 26.5758L13.33 27.1133L13.3362 27.1283L13.3463 27.1371L13.5975 27.2533C13.6133 27.2575 13.6254 27.2541 13.6337 27.2433L13.6387 27.2258L13.5963 26.4583C13.5921 26.4433 13.5837 26.4341 13.5712 26.4308ZM12.6775 26.4333C12.672 26.43 12.6654 26.4289 12.6591 26.4303C12.6528 26.4317 12.6473 26.4354 12.6437 26.4408L12.6362 26.4583L12.5938 27.2258C12.5946 27.2408 12.6017 27.2508 12.615 27.2558L12.6337 27.2533L12.885 27.1371L12.8975 27.1271L12.9025 27.1133L12.9237 26.5758L12.92 26.5608L12.9075 26.5483L12.6775 26.4333Z" fill="#F70075"/>
<path d="M12.5 0C19.4037 0 25 5.59625 25 12.5C25 19.4037 19.4037 25 12.5 25C5.59625 25 0 19.4037 0 12.5C0 5.59625 5.59625 0 12.5 0ZM12.4875 10H11.25C10.9314 10.0004 10.625 10.1223 10.3933 10.3411C10.1616 10.5598 10.0222 10.8587 10.0035 11.1767C9.98486 11.4948 10.0883 11.808 10.2928 12.0523C10.4973 12.2966 10.7874 12.4536 11.1038 12.4913L11.25 12.5V18.7375C11.25 19.3875 11.7425 19.925 12.375 19.9925L12.5125 20H13.125C13.3879 20 13.6441 19.9171 13.8572 19.7631C14.0702 19.6092 14.2294 19.3919 14.3119 19.1423C14.3944 18.8927 14.3961 18.6234 14.3168 18.3728C14.2374 18.1222 14.0811 17.9029 13.87 17.7463L13.75 17.6675V11.2625C13.75 10.6125 13.2575 10.075 12.625 10.0075L12.4875 10ZM12.5 6.25C12.1685 6.25 11.8505 6.3817 11.6161 6.61612C11.3817 6.85054 11.25 7.16848 11.25 7.5C11.25 7.83152 11.3817 8.14946 11.6161 8.38388C11.8505 8.6183 12.1685 8.75 12.5 8.75C12.8315 8.75 13.1495 8.6183 13.3839 8.38388C13.6183 8.14946 13.75 7.83152 13.75 7.5C13.75 7.16848 13.6183 6.85054 13.3839 6.61612C13.1495 6.3817 12.8315 6.25 12.5 6.25Z" fill="#F70075"/>
</svg>
