<svg width="70" height="28" viewBox="0 0 70 28" fill="none" xmlns="http://www.w3.org/2000/svg">
<path d="M42.1719 2.62109C48.6004 2.62134 53.8115 7.77101 53.8115 14.123C53.8114 20.4749 48.6003 25.6238 42.1719 25.624C39.2894 25.624 36.6531 24.5868 34.6201 22.8721C32.5873 24.5864 29.9523 25.6239 27.0703 25.624C20.6417 25.624 15.4299 20.4751 15.4297 14.123C15.4297 7.77086 20.6416 2.62109 27.0703 2.62109C29.952 2.6212 32.5874 3.65805 34.6201 5.37207C36.653 3.65765 39.2897 2.62109 42.1719 2.62109Z" fill="#ED0006"/>
<path d="M42.1714 2.62109C48.6001 2.62109 53.812 7.77086 53.812 14.123C53.8118 20.4751 48.6 25.624 42.1714 25.624C39.289 25.624 36.6536 24.5867 34.6206 22.8721C37.1218 20.7625 38.7104 17.6271 38.7104 14.123C38.7104 10.6186 37.1223 7.48167 34.6206 5.37207C36.6535 3.65781 39.2894 2.62109 42.1714 2.62109Z" fill="#F9A000"/>
<path d="M34.6201 5.37305C37.1217 7.48265 38.71 10.6186 38.71 14.123C38.7099 17.6272 37.1215 20.7625 34.6201 22.8721C32.1191 20.7625 30.5313 17.627 30.5312 14.123C30.5312 10.6189 32.1188 7.48264 34.6201 5.37305Z" fill="#FF5E00"/>
</svg>
