<svg width="44" height="44" viewBox="0 0 44 44" fill="none" xmlns="http://www.w3.org/2000/svg">
<path fill-rule="evenodd" clip-rule="evenodd" d="M15.4064 3.93647C14.9637 4.96313 14.3605 6.48205 13.9718 7.99547C10.6544 8.1788 8.24633 8.46297 6.5615 8.73155C3.93892 9.14955 2.1615 11.2707 1.9085 13.798C1.65458 16.3344 1.375 20.2577 1.375 25.2077C1.375 30.1586 1.65458 34.0811 1.9085 36.6175C2.16058 39.1438 3.93892 41.265 6.5615 41.6839C9.38483 42.1349 14.2377 42.6244 22 42.6244C29.7623 42.6244 34.6143 42.1349 37.4385 41.6839C40.0611 41.2659 41.8385 39.1447 42.0915 36.6175C42.3454 34.0801 42.625 30.1586 42.625 25.2077C42.625 20.2568 42.3454 16.3344 42.0915 13.798C41.8394 11.2716 40.0611 9.15047 37.4385 8.73155C35.7537 8.46205 33.3456 8.17972 30.0291 7.99547C29.6404 6.48205 29.0373 4.96222 28.5945 3.93647C27.9913 2.53947 26.7383 1.40738 25.0818 1.14705C24.062 0.991335 23.0317 0.914109 22 0.916051C20.7552 0.916051 19.7138 1.02238 18.9191 1.14705C17.2627 1.40738 16.0096 2.54038 15.4064 3.93647ZM22 4.58272C20.9642 4.58272 20.1135 4.67072 19.4883 4.76972C19.2243 4.81097 18.9402 5.00164 18.7733 5.3903C18.4243 6.19296 18.1114 7.01083 17.8356 7.84147C19.1189 7.80847 20.5071 7.79166 22 7.79105C23.4929 7.79166 24.8814 7.80847 26.1653 7.84147C25.8898 7.01085 25.5772 6.19297 25.2285 5.3903C25.0607 5.00164 24.7766 4.81097 24.5117 4.76972C23.6804 4.64348 22.8408 4.58097 22 4.58272ZM19.8917 34.2461C19.03 34.1296 18.4754 33.3908 18.4433 32.5209C18.4131 31.6913 18.3792 30.4813 18.3572 28.8515C17.1337 28.8367 15.9105 28.8079 14.6878 28.7653C13.8178 28.7332 13.079 28.1786 12.9626 27.317C12.8718 26.6176 12.8286 25.9129 12.8333 25.2077C12.8333 24.3296 12.8893 23.632 12.9617 23.0985C13.0781 22.2368 13.8169 21.6822 14.6868 21.6501C15.5164 21.6199 16.7264 21.586 18.3563 21.564C18.3783 19.9341 18.4122 18.7241 18.4424 17.8946C18.4745 17.0246 19.0291 16.2858 19.8907 16.1694C20.4242 16.097 21.1218 16.0411 22 16.0411C22.8782 16.0411 23.5758 16.097 24.1093 16.1694C24.9709 16.2858 25.5255 17.0246 25.5576 17.8946C25.5878 18.7241 25.6218 19.9341 25.6438 21.564C27.2736 21.586 28.4836 21.6199 29.3132 21.6501C30.1831 21.6822 30.9219 22.2368 31.0383 23.0985C31.1108 23.632 31.1667 24.3296 31.1667 25.2077C31.1667 26.0859 31.1108 26.7835 31.0383 27.317C30.9219 28.1786 30.1831 28.7332 29.3132 28.7653C28.4836 28.7956 27.2736 28.8295 25.6438 28.8515C25.6289 30.0749 25.6002 31.2981 25.5576 32.5209C25.5255 33.3908 24.9709 34.1296 24.1093 34.2461C23.5758 34.3185 22.8782 34.3744 22 34.3744C21.1218 34.3744 20.4242 34.3185 19.8907 34.2461H19.8917Z" fill="white"/>
</svg>
