<svg width="42" height="44" viewBox="0 0 42 44" fill="none" xmlns="http://www.w3.org/2000/svg">
<rect x="0.5" y="0.5" width="41" height="43" rx="7.5" fill="#1877F2"/>
<rect x="0.5" y="0.5" width="41" height="43" rx="7.5" stroke="#1877F2"/>
<path d="M28.9438 21C28.9438 24.875 26.1 28.0938 22.3813 28.6562V23.25H24.1938L24.5375 21H22.3813V19.5625C22.3813 18.9375 22.6938 18.3438 23.6625 18.3438H24.6313V16.4375C24.6313 16.4375 23.7563 16.2812 22.8813 16.2812C21.1313 16.2812 19.975 17.375 19.975 19.3125V21H18.0063V23.25H19.975V28.6562C16.2563 28.0938 13.4438 24.875 13.4438 21C13.4438 16.7188 16.9125 13.25 21.1938 13.25C25.475 13.25 28.9438 16.7188 28.9438 21Z" fill="white"/>
</svg>
