<svg width="22" height="19" viewBox="0 0 22 19" fill="none" xmlns="http://www.w3.org/2000/svg">
<path d="M20.2024 2.96695H18.204V1.79685C18.2034 1.32048 18.0139 0.863781 17.6771 0.526933C17.3402 0.190085 16.8835 0.000586068 16.4072 0H1.79685C1.32048 0.000586068 0.863781 0.190085 0.526933 0.526933C0.190085 0.863781 0.000586068 1.32048 0 1.79685V15.2732C0.000977373 16.1778 0.360803 17.0451 1.00051 17.6846C1.64021 18.3242 2.50752 18.6838 3.4121 18.6846H19.4383C19.4502 18.6846 19.4597 18.6787 19.4716 18.678C20.1446 18.6689 20.787 18.3954 21.26 17.9167C21.7331 17.4379 21.9989 16.7923 22 16.1193V4.76306C21.999 4.28675 21.8093 3.83024 21.4723 3.49357C21.1354 3.15691 20.6787 2.96753 20.2024 2.96695ZM3.4121 17.3558C2.85995 17.3552 2.33059 17.1356 1.94016 16.7452C1.54974 16.3548 1.33014 15.8254 1.32955 15.2732V1.79685C1.32955 1.53847 1.53921 1.32881 1.79759 1.32881H16.4079C16.6663 1.32881 16.8752 1.53847 16.8752 1.79685V16.1215C16.8752 16.5688 16.9904 16.9896 17.1934 17.3558H3.4121ZM20.6704 16.1193C20.6704 16.7992 20.1175 17.3521 19.4376 17.3521C19.4339 17.3521 19.431 17.3543 19.4273 17.3543C19.102 17.3512 18.7911 17.2199 18.5621 16.989C18.3331 16.758 18.2044 16.446 18.204 16.1207V4.29576H20.2024C20.4608 4.29576 20.6704 4.50542 20.6704 4.7638V16.1193Z" fill="white"/>
<path d="M4.18436 8.44233H6.98447C7.56767 8.44233 8.04309 7.96765 8.04309 7.38371V5.03909C8.04309 4.45515 7.56767 3.98047 6.98447 3.98047H4.18436C3.60042 3.98047 3.125 4.45515 3.125 5.03909V7.38371C3.125 7.96765 3.60042 8.44233 4.18436 8.44233ZM4.45455 5.30928H6.71354V7.11352H4.45455V5.30928ZM9.9588 5.31224H14.4103C14.5865 5.31224 14.7555 5.24224 14.8801 5.11764C15.0047 4.99303 15.0747 4.82404 15.0747 4.64783C15.0747 4.47162 15.0047 4.30262 14.8801 4.17802C14.7555 4.05342 14.5865 3.98342 14.4103 3.98342H9.9588C9.78259 3.98342 9.61359 4.05342 9.48899 4.17802C9.36439 4.30262 9.29439 4.47162 9.29439 4.64783C9.29439 4.82404 9.36439 4.99303 9.48899 5.11764C9.61359 5.24224 9.78259 5.31224 9.9588 5.31224ZM9.9588 8.44233H14.4103C14.5865 8.44233 14.7555 8.37233 14.8801 8.24773C15.0047 8.12313 15.0747 7.95414 15.0747 7.77793C15.0747 7.60171 15.0047 7.43272 14.8801 7.30812C14.7555 7.18352 14.5865 7.11352 14.4103 7.11352H9.9588C9.78259 7.11352 9.61359 7.18352 9.48899 7.30812C9.36439 7.43272 9.29439 7.60171 9.29439 7.77793C9.29439 7.95414 9.36439 8.12313 9.48899 8.24773C9.61359 8.37233 9.78259 8.44233 9.9588 8.44233ZM14.414 10.2444H3.78941C3.6132 10.2444 3.4442 10.3144 3.3196 10.439C3.195 10.5636 3.125 10.7325 3.125 10.9088C3.125 11.085 3.195 11.254 3.3196 11.3786C3.4442 11.5032 3.6132 11.5732 3.78941 11.5732H14.414C14.5902 11.5732 14.7592 11.5032 14.8838 11.3786C15.0084 11.254 15.0784 11.085 15.0784 10.9088C15.0784 10.7325 15.0084 10.5636 14.8838 10.439C14.7592 10.3144 14.5902 10.2444 14.414 10.2444ZM14.414 13.3767H3.78941C3.6132 13.3767 3.4442 13.4467 3.3196 13.5713C3.195 13.6959 3.125 13.8649 3.125 14.0411C3.125 14.2173 3.195 14.3863 3.3196 14.5109C3.4442 14.6355 3.6132 14.7055 3.78941 14.7055H14.414C14.5902 14.7055 14.7592 14.6355 14.8838 14.5109C15.0084 14.3863 15.0784 14.2173 15.0784 14.0411C15.0784 13.8649 15.0084 13.6959 14.8838 13.5713C14.7592 13.4467 14.5902 13.3767 14.414 13.3767Z" fill="white"/>
</svg>
