<svg width="23" height="26" viewBox="0 0 23 26" fill="none" xmlns="http://www.w3.org/2000/svg">
<path d="M21.8356 17.951C21.7393 17.835 21.6447 17.7189 21.5518 17.6069C20.275 16.0625 19.5026 15.1305 19.5026 10.7587C19.5026 8.49527 18.9611 6.63812 17.8938 5.24527C17.1069 4.21629 16.0431 3.43571 14.6409 2.85884C14.6229 2.8488 14.6068 2.83564 14.5933 2.81996C14.089 1.13112 12.7089 0 11.1524 0C9.59588 0 8.21637 1.13112 7.71204 2.81821C7.69858 2.83332 7.68269 2.84607 7.66503 2.85594C4.39298 4.20295 2.8028 6.78728 2.8028 10.7569C2.8028 15.1305 2.03151 16.0625 0.753561 17.6051C0.660704 17.7171 0.566106 17.8309 0.469766 17.9493C0.22091 18.2494 0.0632385 18.6145 0.0154126 19.0015C-0.0324133 19.3884 0.0316081 19.7809 0.1999 20.1326C0.557981 20.8871 1.32115 21.3554 2.19227 21.3554H20.1189C20.986 21.3554 21.7439 20.8876 22.1032 20.1367C22.2722 19.7849 22.3368 19.392 22.2894 19.0047C22.242 18.6173 22.0845 18.2516 21.8356 17.951ZM11.1524 26C11.991 25.9993 12.8139 25.7717 13.5336 25.3412C14.2533 24.9107 14.8431 24.2935 15.2404 23.555C15.2592 23.5196 15.2684 23.4799 15.2673 23.4399C15.2661 23.3999 15.2547 23.3608 15.234 23.3265C15.2133 23.2923 15.1841 23.2639 15.1493 23.2442C15.1144 23.2246 15.075 23.2142 15.035 23.2143H7.27097C7.23088 23.2141 7.19144 23.2244 7.15649 23.244C7.12153 23.2636 7.09226 23.292 7.07152 23.3263C7.05077 23.3606 7.03926 23.3997 7.03811 23.4398C7.03696 23.4798 7.0462 23.5195 7.06495 23.555C7.46222 24.2934 8.05193 24.9106 8.77155 25.3411C9.49116 25.7715 10.3139 25.9992 11.1524 26Z" fill="#25123C"/>
</svg>
