<svg width="21" height="5" viewBox="0 0 21 5" fill="none" xmlns="http://www.w3.org/2000/svg">
<path d="M5.33937 2.58754V0.175117H6.09058V0.334562C6.09058 0.422275 6.09192 0.494029 6.09353 0.494029C6.09518 0.494029 6.14258 0.465121 6.1989 0.429796C6.86328 0.0130406 7.82909 -0.112465 8.69528 0.105407C9.47568 0.301704 10.0414 0.767651 10.2425 1.37979C10.3601 1.7375 10.3536 2.13529 10.2246 2.48123C10.0641 2.91157 9.73429 3.25756 9.25852 3.49459C8.84216 3.702 8.36679 3.80586 7.83383 3.80586C7.39201 3.80586 6.97996 3.73206 6.61723 3.58801C6.4733 3.53085 6.2888 3.43703 6.17689 3.36405L6.09058 3.30778V5H5.33937V2.58754ZM8.1972 3.16451C8.61974 3.10448 8.94758 2.97021 9.19337 2.75652C9.37944 2.59477 9.509 2.37013 9.5581 2.1242C9.57819 2.0236 9.57823 1.78608 9.55822 1.6858C9.50042 1.39636 9.33481 1.14353 9.08693 0.966251C8.987 0.894802 8.78404 0.792964 8.65447 0.749319C8.28862 0.626069 7.84502 0.589569 7.43874 0.64929C6.73334 0.752962 6.25658 1.10337 6.12866 1.61207C6.07223 1.83652 6.08232 2.07884 6.1569 2.2906C6.32628 2.77163 6.82583 3.09174 7.53174 3.17163C7.67367 3.18771 8.06334 3.18352 8.19722 3.16451H8.1972ZM10.6876 2.58754V0.175117H11.4388V0.334562C11.4388 0.422275 11.4404 0.494029 11.4424 0.494029C11.4444 0.494029 11.4857 0.468106 11.5343 0.436447C11.6466 0.363118 11.8682 0.253453 12.0104 0.200924C12.6239 -0.0258803 13.373 -0.0624745 14.0286 0.102375C15.0973 0.371085 15.7266 1.10727 15.6672 2.01919C15.6219 2.71527 15.1594 3.28705 14.3987 3.58754C14.1506 3.68555 13.8963 3.74736 13.578 3.78701C13.41 3.80793 12.9573 3.80793 12.782 3.78696C12.2857 3.72767 11.85 3.58007 11.5102 3.35615L11.4388 3.30908V5H10.6876V2.58754ZM13.5636 3.16096C14.1488 3.07344 14.5612 2.83732 14.7779 2.46574C14.9038 2.24989 14.9509 1.96275 14.9042 1.69616C14.8072 1.14205 14.321 0.758626 13.5765 0.649173C13.0852 0.576948 12.5304 0.648891 12.1533 0.833742C11.7683 1.02245 11.5366 1.30418 11.4575 1.6798C11.4368 1.77842 11.4368 2.03192 11.4576 2.12857C11.5137 2.38875 11.6403 2.60401 11.8324 2.76578C12.097 2.98854 12.4413 3.12119 12.8881 3.17248C13.0359 3.18942 13.4166 3.18294 13.5636 3.16096ZM2.23655 3.80088C1.83808 3.76562 1.49797 3.68701 1.20877 3.56329C0.550937 3.28188 0.135452 2.80694 0.0226928 2.20747C0.00115004 2.09298 -0.00706344 1.83504 0.00689948 1.71179C0.0883303 0.993092 0.61695 0.423826 1.45271 0.154834C1.89745 0.0117009 2.4449 -0.03507 2.9363 0.028106C3.83656 0.143882 4.51756 0.561976 4.81688 1.18271C5.06061 1.68812 5.02968 2.30204 4.73671 2.77403C4.60474 2.98664 4.38748 3.20606 4.16358 3.35282C3.81523 3.58112 3.39918 3.72315 2.89387 3.78626C2.79265 3.7989 2.33045 3.80917 2.23655 3.80088ZM2.76945 3.17241C3.1613 3.13076 3.49094 3.0187 3.73896 2.8429C3.94172 2.69915 4.10219 2.48729 4.17418 2.26827C4.21633 2.14009 4.22469 2.07989 4.22469 1.9047C4.22469 1.73003 4.21645 1.67033 4.17463 1.54205C4.03718 1.12038 3.63519 0.806713 3.07351 0.682899C2.58103 0.574316 2.00669 0.612061 1.58119 0.78093C1.27419 0.90277 1.0319 1.10001 0.889778 1.34369C0.738697 1.60281 0.704388 1.95573 0.800791 2.25988C0.904656 2.58761 1.17826 2.86186 1.55477 3.01569C1.75984 3.09948 2.01376 3.15788 2.26514 3.17903C2.36159 3.18714 2.6687 3.1831 2.76945 3.17241ZM18.265 3.80116C18.2493 3.79937 18.1941 3.79387 18.1425 3.78898C17.7278 3.74962 17.2919 3.61847 16.9723 3.43693C16.5402 3.19151 16.2393 2.84268 16.1019 2.42807C16.0089 2.14749 15.9931 1.83215 16.0573 1.54203C16.1545 1.10334 16.4211 0.730846 16.8351 0.455343C17.3812 0.0920342 18.184 -0.0693374 18.959 0.0284821C19.6029 0.109732 20.1334 0.345584 20.5025 0.714723C20.7837 0.995842 20.9452 1.32526 20.992 1.71231C21.0041 1.8129 21.0022 2.01632 20.9881 2.12305C20.8869 2.89162 20.2785 3.47905 19.3469 3.7079C19.0644 3.77728 18.8871 3.79829 18.5548 3.80172C18.4111 3.8032 18.2807 3.80295 18.265 3.80116ZM18.759 3.17621C19.255 3.13052 19.6592 2.9668 19.9188 2.70655C20.0945 2.53035 20.1965 2.33638 20.2367 2.10194C20.2532 2.00534 20.253 1.80395 20.2362 1.70375C20.1458 1.16431 19.6709 0.773268 18.9672 0.658879C18.7982 0.631404 18.6859 0.62245 18.5099 0.62245C17.721 0.62245 17.1088 0.920397 16.8734 1.41897C16.8032 1.56758 16.7708 1.72093 16.7708 1.9047C16.7708 2.14718 16.8272 2.33951 16.9546 2.53113C17.1884 2.88292 17.6319 3.10766 18.2189 3.17187C18.3399 3.1851 18.6367 3.1875 18.759 3.17624L18.759 3.17621Z" fill="black"/>
</svg>
