<svg width="22" height="22" viewBox="0 0 22 22" fill="none" xmlns="http://www.w3.org/2000/svg">
<path d="M18.6591 2.87711C18.3959 2.69559 18.0511 2.66837 17.7606 2.8045L2.33206 10.0741C2.00534 10.2284 1.80567 10.5551 1.81475 10.909C1.81475 11.263 2.03256 11.5897 2.35929 11.7258L5.4087 13.06L14.5206 7.26064L8.16769 14.5211V19.9665L13.123 16.427L16.8803 18.0697C16.9983 18.1242 17.1163 18.1423 17.2433 18.1423C17.4067 18.1423 17.57 18.0969 17.7153 18.0062C17.8407 17.9311 17.946 17.8266 18.0219 17.7017C18.0978 17.5767 18.1421 17.4351 18.1509 17.2892L19.0584 3.67576C19.0766 3.35812 18.9314 3.04954 18.6682 2.86803L18.6591 2.87711Z" fill="white"/>
</svg>
