<svg width="22" height="22" viewBox="0 0 22 22" fill="none" xmlns="http://www.w3.org/2000/svg">
<path d="M20.4997 18H16.9997C14.7942 18 12.9998 16.2056 12.9998 14.0001C12.9998 11.7946 14.7942 10.0002 16.9997 10.0002H20.4997C20.5654 10.0002 20.6304 9.98733 20.6911 9.96222C20.7518 9.93711 20.8069 9.90028 20.8534 9.85384C20.8998 9.8074 20.9366 9.75226 20.9617 9.69158C20.9868 9.6309 20.9997 9.56586 20.9997 9.50019V8.00021C20.9997 6.95173 20.1864 6.09904 19.1589 6.01635L16.2874 1.00081C16.0213 0.536941 15.5916 0.2054 15.0774 0.0677302C14.5657 -0.0690019 14.0306 0.00280941 13.5726 0.269383L3.72885 6.00023H1.99998C0.896985 6.00023 0 6.89717 0 8.00021V20C0 21.103 0.896939 22 1.99998 22H18.9997C20.1027 22 20.9997 21.1031 20.9997 20V18.5C20.9997 18.4344 20.9868 18.3693 20.9617 18.3086C20.9366 18.248 20.8998 18.1928 20.8534 18.1464C20.8069 18.0999 20.7518 18.0631 20.6911 18.038C20.6304 18.0129 20.5654 18 20.4997 18ZM16.9075 4.09732L17.9969 6.00023H13.639L16.9075 4.09732ZM5.71631 6.00023L14.076 1.1336C14.302 1.00128 14.5662 0.966122 14.8186 1.03353C15.074 1.10187 15.2869 1.26691 15.4192 1.49786L15.4203 1.49969L7.69023 6.00023H5.71631Z" fill="#25123C"/>
<path d="M20.4999 11H17C15.3457 11 14 12.3457 14 14C14 15.6542 15.3457 16.9999 17 16.9999H20.4999C21.3271 16.9999 21.9999 16.3271 21.9999 15.4999V12.5C21.9999 11.6728 21.3271 11 20.4999 11ZM17 14.9999C16.4487 14.9999 16 14.5512 16 14C16 13.4487 16.4487 13 17 13C17.5512 13 17.9999 13.4487 17.9999 14C18 14.5512 17.5512 14.9999 17 14.9999Z" fill="#25123C"/>
</svg>
