<svg width="12" height="20" viewBox="0 0 12 20" fill="none" xmlns="http://www.w3.org/2000/svg">
<path d="M10.2674 0H1.35086C0.992866 0.000905166 0.649796 0.143518 0.396657 0.396657C0.143518 0.649796 0.000905166 0.992866 0 1.35086V18.6486C0.000904505 19.0066 0.143499 19.3497 0.396621 19.603C0.649744 19.8562 0.992813 19.9989 1.35086 20H10.2674C10.6254 19.9991 10.9685 19.8565 11.2216 19.6033C11.4748 19.3502 11.6174 19.0071 11.6183 18.6491V1.35086C11.6174 0.992866 11.4748 0.649796 11.2216 0.396657C10.9685 0.143518 10.6254 0.000905166 10.2674 0ZM4.38286 0.973714H7.23543C7.27885 0.973714 7.32049 0.990963 7.35119 1.02167C7.38189 1.05237 7.39914 1.09401 7.39914 1.13743C7.39914 1.18085 7.38189 1.22249 7.35119 1.25319C7.32049 1.28389 7.27885 1.30114 7.23543 1.30114H4.38286C4.33944 1.30114 4.2978 1.28389 4.26709 1.25319C4.23639 1.22249 4.21914 1.18085 4.21914 1.13743C4.21914 1.09401 4.23639 1.05237 4.26709 1.02167C4.2978 0.990963 4.33944 0.973714 4.38286 0.973714ZM5.80914 19.3246C5.63001 19.3246 5.45821 19.2534 5.33154 19.1267C5.20488 19.0001 5.13372 18.8283 5.13372 18.6491C5.13372 18.47 5.20488 18.2982 5.33154 18.1715C5.45821 18.0449 5.63001 17.9737 5.80914 17.9737C5.98828 17.9737 6.16008 18.0449 6.28674 18.1715C6.41341 18.2982 6.48457 18.47 6.48457 18.6491C6.48457 18.8283 6.41341 19.0001 6.28674 19.1267C6.16008 19.2534 5.98828 19.3246 5.80914 19.3246ZM10.6783 17.5H0.94V2.14229H10.6783V17.5Z" fill="white"/>
</svg>
