<svg width="16" height="16" viewBox="0 0 16 16" fill="none" xmlns="http://www.w3.org/2000/svg">
<path d="M8 16C3.58853 16 0 12.4115 0 8C0 3.58853 3.58853 0 8 0C12.4115 0 16 3.58916 16 8C16 12.4108 12.4115 16 8 16ZM8 1.23934C4.27266 1.23934 1.23934 4.27203 1.23934 8C1.23934 11.728 4.27266 14.7607 8 14.7607C11.7273 14.7607 14.7607 11.728 14.7607 8C14.7607 4.27203 11.728 1.23934 8 1.23934Z" fill="#F70075"/>
<path d="M11.0977 8.67506H8.619V11.1538C8.619 11.4958 8.342 11.7734 7.99931 11.7734C7.65662 11.7734 7.37962 11.4958 7.37962 11.1538V8.67506H4.90094C4.55825 8.67506 4.28125 8.39744 4.28125 8.05538C4.28125 7.71331 4.55825 7.43569 4.90094 7.43569H7.37962V4.957C7.37962 4.61494 7.65662 4.33731 7.99931 4.33731C8.342 4.33731 8.619 4.61494 8.619 4.957V7.43569H11.0977C11.4404 7.43569 11.7174 7.71331 11.7174 8.05538C11.7174 8.39744 11.4404 8.67506 11.0977 8.67506Z" fill="#F70075"/>
</svg>
