<svg width="20" height="20" viewBox="0 0 20 20" fill="none" xmlns="http://www.w3.org/2000/svg">
<path d="M5.83398 14.1654V14.1737M5.83398 5.83203V5.84036M14.1673 5.83203V5.84036M14.1673 11.6654H11.6673V14.1654M16.6673 11.6654V11.6737M11.6673 16.6654H14.1673M14.1673 14.1654H16.6673V16.6654M3.33398 4.16536C3.33398 3.94435 3.42178 3.73239 3.57806 3.57611C3.73434 3.41983 3.9463 3.33203 4.16732 3.33203H7.50065C7.72166 3.33203 7.93363 3.41983 8.08991 3.57611C8.24619 3.73239 8.33398 3.94435 8.33398 4.16536V7.4987C8.33398 7.71971 8.24619 7.93167 8.08991 8.08795C7.93363 8.24423 7.72166 8.33203 7.50065 8.33203H4.16732C3.9463 8.33203 3.73434 8.24423 3.57806 8.08795C3.42178 7.93167 3.33398 7.71971 3.33398 7.4987V4.16536ZM11.6673 4.16536C11.6673 3.94435 11.7551 3.73239 11.9114 3.57611C12.0677 3.41983 12.2796 3.33203 12.5007 3.33203H15.834C16.055 3.33203 16.267 3.41983 16.4232 3.57611C16.5795 3.73239 16.6673 3.94435 16.6673 4.16536V7.4987C16.6673 7.71971 16.5795 7.93167 16.4232 8.08795C16.267 8.24423 16.055 8.33203 15.834 8.33203H12.5007C12.2796 8.33203 12.0677 8.24423 11.9114 8.08795C11.7551 7.93167 11.6673 7.71971 11.6673 7.4987V4.16536ZM3.33398 12.4987C3.33398 12.2777 3.42178 12.0657 3.57806 11.9094C3.73434 11.7532 3.9463 11.6654 4.16732 11.6654H7.50065C7.72166 11.6654 7.93363 11.7532 8.08991 11.9094C8.24619 12.0657 8.33398 12.2777 8.33398 12.4987V15.832C8.33398 16.053 8.24619 16.265 8.08991 16.4213C7.93363 16.5776 7.72166 16.6654 7.50065 16.6654H4.16732C3.9463 16.6654 3.73434 16.5776 3.57806 16.4213C3.42178 16.265 3.33398 16.053 3.33398 15.832V12.4987Z" stroke="white" stroke-width="2" stroke-linecap="round" stroke-linejoin="round"/>
</svg>
