<svg width="25" height="25" viewBox="0 0 25 25" fill="none" xmlns="http://www.w3.org/2000/svg">
<path d="M12.5 7.28906V21.8766" stroke="#E11D48" stroke-width="2.5" stroke-linecap="round" stroke-linejoin="round"/>
<path d="M20.8266 11.4648V19.7948C20.8266 20.945 19.8941 21.8773 18.7438 21.8773H6.24688C5.09657 21.8773 4.16406 20.945 4.16406 19.7948V11.4648" stroke="#E11D48" stroke-width="2.5" stroke-linecap="round" stroke-linejoin="round"/>
<path d="M7.81585 7.29844C6.3772 7.29844 5.21094 6.13158 5.21094 4.69219C5.21094 3.2528 6.3772 2.08594 7.81585 2.08594C9.87293 2.05008 11.7334 4.11828 12.5047 7.29844C13.276 4.11828 15.1364 2.05008 17.1935 2.08594C18.6322 2.08594 19.7984 3.2528 19.7984 4.69219C19.7984 6.13158 18.6322 7.29844 17.1935 7.29844" stroke="#E11D48" stroke-width="2.5" stroke-linecap="round" stroke-linejoin="round"/>
<path d="M4.16667 7.28906H20.8333C21.4086 7.28906 21.875 7.75497 21.875 8.32969V10.4109C21.875 10.9857 21.4086 11.4516 20.8333 11.4516H4.16667C3.59137 11.4516 3.125 10.9857 3.125 10.4109V8.32969C3.125 7.75497 3.59137 7.28906 4.16667 7.28906Z" stroke="#E11D48" stroke-width="2.5" stroke-linecap="round" stroke-linejoin="round"/>
</svg>
