<svg width="16" height="16" viewBox="0 0 16 16" fill="none" xmlns="http://www.w3.org/2000/svg">
<path d="M8 16C12.4183 16 16 12.4183 16 8C16 3.58172 12.4183 0 8 0C3.58172 0 0 3.58172 0 8C0 12.4183 3.58172 16 8 16Z" fill="black"/>
<path d="M2.34406 7.56941C2.33559 7.53416 2.33756 7.49691 2.34228 7.4775C2.35425 7.42175 2.39209 7.35956 2.50247 7.35956C2.60484 7.35956 2.66509 7.42319 2.66509 7.5185V7.62681H3.10162V7.50387C3.10162 7.12316 2.75837 7.0625 2.51094 7.0625C2.20006 7.0625 1.94606 7.16569 1.89959 7.45147C1.88687 7.52991 1.88472 7.59894 1.90309 7.68738C1.97887 8.04519 2.60087 8.14863 2.69134 8.37503C2.70828 8.41713 2.70316 8.47119 2.69475 8.50425C2.68041 8.56309 2.64091 8.62247 2.52384 8.62247C2.4145 8.62247 2.34913 8.55878 2.34913 8.46313L2.3485 8.29475H1.87891V8.42856C1.87891 8.81984 2.18622 8.93753 2.51512 8.93753C2.83131 8.93753 3.091 8.82975 3.13338 8.53687C3.15444 8.38591 3.13862 8.28766 3.13153 8.25041C3.05762 7.88306 2.39388 7.77428 2.34406 7.56941ZM8.03569 7.57372C8.02791 7.53916 8.03016 7.50244 8.03419 7.48325C8.04669 7.42722 8.08434 7.36613 8.19281 7.36613C8.29388 7.36613 8.35313 7.42913 8.35313 7.52372V7.63072H8.78459V7.50875C8.78459 7.13169 8.44653 7.07244 8.20175 7.07244C7.8935 7.07244 7.64175 7.17406 7.59575 7.45778C7.58359 7.535 7.58059 7.60353 7.59991 7.691C7.67488 8.04478 8.29078 8.14741 8.38016 8.37116C8.39594 8.41353 8.39144 8.46756 8.38338 8.49941C8.36997 8.55762 8.33081 8.61619 8.21472 8.61619C8.10578 8.61619 8.04025 8.55359 8.04025 8.45922L8.04013 8.29125H7.57572V8.42478C7.57572 8.81162 7.87872 8.92834 8.20509 8.92834C8.51766 8.92834 8.77584 8.82153 8.81725 8.532C8.837 8.38241 8.82209 8.28497 8.81416 8.24828C8.74178 7.88541 8.08538 7.77625 8.03569 7.57372ZM12.0096 8.52728L11.5975 7.11825H10.948V8.85009H11.3776L11.3527 7.39597L11.7953 8.85009H12.4182V7.11825H11.9857L12.0096 8.52728ZM3.75253 7.11825L3.42834 8.86834H3.90109L4.14541 7.24825L4.38384 8.86834H4.85331L4.5305 7.11825H3.75253ZM6.39597 7.11825L6.17519 8.48625L5.95453 7.11825H5.24056L5.20269 8.86834H5.64009L5.65191 7.24825L5.95284 8.86834H6.39663L6.69784 7.24825L6.70972 8.86834H7.14822L7.10906 7.11825H6.39597ZM10.4628 7.11825H10.0201V8.41294C10.0208 8.43547 10.0201 8.46084 10.0162 8.47944C10.007 8.52291 9.97016 8.60653 9.84803 8.60653C9.7275 8.60653 9.68969 8.52288 9.68116 8.47944C9.67672 8.46084 9.67619 8.4355 9.67672 8.41294V7.11825H9.23425V8.37275C9.23372 8.40509 9.23622 8.47116 9.23816 8.48844C9.26869 8.81534 9.52631 8.92147 9.84803 8.92147C10.1704 8.92147 10.4279 8.81534 10.459 8.48844C10.4614 8.47116 10.4646 8.40506 10.4627 8.37275L10.4628 7.11825ZM13.5018 7.886V8.14125H13.6812V8.3945C13.6817 8.41712 13.6805 8.44153 13.6766 8.46106C13.6695 8.50828 13.6246 8.58872 13.4972 8.58872C13.3707 8.58872 13.3266 8.50828 13.319 8.46106C13.3158 8.44153 13.3144 8.41712 13.3144 8.3945V7.59462C13.3144 7.56634 13.3163 7.53538 13.3223 7.51194C13.331 7.46928 13.3688 7.38525 13.4963 7.38525C13.6302 7.38525 13.6636 7.47388 13.6713 7.51194C13.6763 7.53716 13.6766 7.57947 13.6766 7.57947V7.67656H14.1173V7.61916C14.1173 7.61916 14.1193 7.55922 14.114 7.50334C14.0808 7.17506 13.8104 7.07119 13.5002 7.07119C13.1895 7.07119 12.9245 7.176 12.8859 7.50334C12.8824 7.53328 12.8771 7.58713 12.8771 7.61916V8.35494C12.8771 8.387 12.8781 8.41178 12.884 8.47034C12.9128 8.78959 13.1895 8.90278 13.499 8.90278C13.8104 8.90278 14.0852 8.78962 14.1144 8.47034C14.1196 8.41178 14.1202 8.38697 14.1208 8.35494V7.886H13.5018Z" fill="white"/>
</svg>
