<svg width="14" height="18" viewBox="0 0 14 18" fill="none" xmlns="http://www.w3.org/2000/svg">
<g clip-path="url(#clip0_348_4697)">
<path d="M7.09604 17.2773C7.01161 17.2773 6.92718 17.2608 6.84768 17.2274C4.81578 16.3753 3.09499 14.9361 1.87092 13.065C0.646857 11.1938 0 9.01323 0 6.75908V3.42071C0 3.14805 0.159989 2.90205 0.405066 2.79744L6.84407 0.0516295C7.00537 -0.0172098 7.18672 -0.0172098 7.34802 0.0516295L13.787 2.79778C14.0324 2.90239 14.1921 3.14839 14.1921 3.42105V6.75942C14.1921 9.01357 13.5452 11.1942 12.3212 13.0653C11.0971 14.9364 9.3763 16.3757 7.34441 17.2277C7.2649 17.2611 7.18047 17.2777 7.09604 17.2777V17.2773ZM1.31408 3.87154V6.75908C1.31408 10.7308 3.5743 14.2767 7.09604 15.8695C10.6178 14.2767 12.878 10.7308 12.878 6.75908V3.87154L7.09604 1.40581L1.31408 3.87154Z" fill="#F61067"/>
<path d="M6.37001 10.6631C6.1959 10.6631 6.02868 10.5919 5.90549 10.4654L4.06938 8.57937C3.81281 8.31582 3.81281 7.88861 4.06938 7.62506C4.32596 7.36152 4.74187 7.36152 4.99844 7.62506L6.37001 9.03391L9.19398 6.13321C9.45055 5.86966 9.86646 5.86966 10.123 6.13321C10.3796 6.39675 10.3796 6.82396 10.123 7.08751L6.83421 10.4657C6.71102 10.5922 6.54413 10.6631 6.37001 10.6631Z" fill="#F61067"/>
</g>
<defs>
<clipPath id="clip0_348_4697">
<rect width="13.7041" height="17.2773" fill="white"/>
</clipPath>
</defs>
</svg>
