<svg width="20" height="26" viewBox="0 0 20 26" fill="none" xmlns="http://www.w3.org/2000/svg">
<path fill-rule="evenodd" clip-rule="evenodd" d="M5.3295 0.45301C5.65164 0.161465 6.07061 1.38155e-05 6.50508 0H13.2649C13.7296 0 14.1752 0.184583 14.5038 0.513141C14.8323 0.8417 15.0169 1.28732 15.0169 1.75197V3.50395H18.5209C18.8528 3.50395 19.1711 3.63579 19.4057 3.87048C19.6404 4.10516 19.7723 4.42346 19.7723 4.75536V24.0271C19.7723 24.359 19.6404 24.6773 19.4057 24.912C19.1711 25.1466 18.8528 25.2785 18.5209 25.2785H6.50733C6.17544 25.2785 5.85714 25.1466 5.62245 24.912C5.38777 24.6773 5.25592 24.359 5.25592 24.0271V21.7745H1.75197C1.28732 21.7745 0.8417 21.59 0.513141 21.2614C0.184583 20.9328 0 20.4872 0 20.0226V6.05282C7.04385e-06 5.80805 0.0513027 5.566 0.15058 5.34227C0.249858 5.11854 0.394914 4.9181 0.576399 4.75386L5.3295 0.45301ZM12.5141 2.50282V3.50395H11.5993C11.2947 3.50395 11.0004 3.6151 10.7719 3.81655L5.6799 8.30436C5.54666 8.42179 5.43993 8.56625 5.36683 8.72811C5.29373 8.88998 5.25592 9.06555 5.25592 9.24316V19.2717H2.50282V6.3862L6.7944 2.50282H12.5141ZM10.7621 15.5175C10.4302 15.5175 10.1119 15.6493 9.87724 15.884C9.64256 16.1187 9.51072 16.437 9.51072 16.7689V20.0226C9.51072 20.3545 9.64256 20.6728 9.87724 20.9074C10.1119 21.1421 10.4302 21.274 10.7621 21.274H14.0158C14.3477 21.274 14.666 21.1421 14.9007 20.9074C15.1354 20.6728 15.2672 20.3545 15.2672 20.0226V16.7689C15.2672 16.437 15.1354 16.1187 14.9007 15.884C14.666 15.6493 14.3477 15.5175 14.0158 15.5175H10.7621Z" fill="white" fill-opacity="0.5"/>
</svg>
