<svg width="44" height="44" viewBox="0 0 44 44" fill="none" xmlns="http://www.w3.org/2000/svg">
<path d="M40.7275 13.5018L29.2875 3.09302C29.0989 2.92109 28.8643 2.80779 28.6124 2.76695C28.3605 2.7261 28.1021 2.75947 27.8688 2.86299C27.6355 2.9665 27.4374 3.13569 27.2987 3.34989C27.16 3.5641 27.0866 3.81406 27.0875 4.06927V9.07427C27.0875 9.55552 26.6887 9.95427 26.2075 9.95427H4.3725C3.47875 9.94052 2.75 10.683 2.75 11.5768V17.3793C2.75 18.2868 3.47875 19.0155 4.38625 19.0155H26.2212C26.7025 19.0155 27.1012 19.4143 27.1012 19.8955V24.9005C27.1012 26.0418 28.4625 26.6468 29.3012 25.8768L40.7412 15.468C40.8754 15.3414 40.982 15.1884 41.0544 15.0188C41.1269 14.8491 41.1636 14.6664 41.1623 14.4819C41.161 14.2974 41.1217 14.1152 41.0469 13.9466C40.9721 13.7779 40.8634 13.6265 40.7275 13.5018ZM16.5412 41.2493C14.1625 41.2493 12.2238 39.3105 12.2238 36.9318V32.9718C12.2238 30.593 14.1625 28.6543 16.5412 28.6543C18.92 28.6543 20.8587 30.593 20.8587 32.9718V36.9318C20.8587 39.3105 18.92 41.2493 16.5412 41.2493ZM16.5412 31.3905C15.675 31.3905 14.96 32.0918 14.96 32.9718V36.9318C14.96 37.3511 15.1266 37.7533 15.4231 38.0499C15.7197 38.3464 16.1219 38.513 16.5412 38.513C16.9606 38.513 17.3628 38.3464 17.6594 38.0499C17.9559 37.7533 18.1225 37.3511 18.1225 36.9318V32.9718C18.1225 32.0918 17.4075 31.3905 16.5412 31.3905ZM21.9725 36.9318C21.9725 39.3105 23.9113 41.2493 26.29 41.2493C28.6688 41.2493 30.6075 39.3105 30.6075 36.9318V32.9718C30.6075 30.593 28.6688 28.6543 26.29 28.6543C23.9113 28.6543 21.9725 30.593 21.9725 32.9718V36.9318ZM24.7087 32.9718C24.7087 32.5524 24.8753 32.1502 25.1719 31.8537C25.4684 31.5571 25.8706 31.3905 26.29 31.3905C26.7094 31.3905 27.1116 31.5571 27.4081 31.8537C27.7047 32.1502 27.8713 32.5524 27.8713 32.9718V36.9318C27.8713 37.3511 27.7047 37.7533 27.4081 38.0499C27.1116 38.3464 26.7094 38.513 26.29 38.513C25.8706 38.513 25.4684 38.3464 25.1719 38.0499C24.8753 37.7533 24.7087 37.3511 24.7087 36.9318V32.9718ZM7.3975 41.2493C5.8575 41.2493 4.3725 40.6855 3.23125 39.6543C3.09673 39.5342 2.98717 39.3888 2.90884 39.2264C2.83051 39.064 2.78494 38.8877 2.77472 38.7077C2.76451 38.5276 2.78985 38.3474 2.84931 38.1771C2.90877 38.0069 3.00117 37.85 3.12125 37.7155C3.24133 37.581 3.38673 37.4714 3.54914 37.3931C3.71156 37.3148 3.88781 37.2692 4.06784 37.259C4.24787 37.2488 4.42815 37.2741 4.59839 37.3336C4.76862 37.393 4.92548 37.4854 5.06 37.6055C5.70625 38.183 6.53125 38.4993 7.3975 38.4993H7.60375C7.98875 38.4718 8.25 38.3343 8.415 38.0868C8.6075 37.7843 8.5525 37.4955 8.4975 37.3443C8.45207 37.2085 8.37653 37.0848 8.27652 36.9825C8.1765 36.8801 8.05462 36.8016 7.92 36.753L5.1975 35.7355C4.1525 35.3368 3.34125 34.5118 2.98375 33.4393C2.64 32.3943 2.76375 31.2668 3.355 30.3593C4.00125 29.3418 5.04625 28.7505 6.325 28.668C6.44875 28.6543 6.5725 28.6543 6.69625 28.6543C8.23625 28.6543 9.72125 29.218 10.8625 30.2493C10.997 30.3693 11.1066 30.5147 11.1849 30.6772C11.2632 30.8396 11.3088 31.0158 11.319 31.1959C11.3292 31.3759 11.3039 31.5562 11.2444 31.7264C11.185 31.8966 11.0926 32.0535 10.9725 32.188C10.8524 32.3225 10.707 32.4321 10.5446 32.5104C10.3822 32.5888 10.2059 32.6343 10.0259 32.6445C9.84588 32.6548 9.6656 32.6294 9.49536 32.57C9.32513 32.5105 9.16827 32.4181 9.03375 32.298C8.3875 31.7205 7.5625 31.4043 6.69625 31.4043H6.49C6.105 31.4318 5.84375 31.5693 5.67875 31.8168C5.48625 32.1193 5.54125 32.408 5.59625 32.5593C5.6925 32.8343 5.89875 33.0543 6.17375 33.1505L8.89625 34.168C9.94125 34.5668 10.7525 35.3918 11.11 36.4643C11.4537 37.5093 11.33 38.6368 10.7387 39.5443C10.0925 40.5618 9.0475 41.153 7.76875 41.2355C7.645 41.2493 7.52125 41.2493 7.3975 41.2493ZM38.6513 40.6305C38.8988 41.0293 39.3387 41.2493 39.7925 41.2493C39.9163 41.2493 40.0537 41.2355 40.1912 41.1943C40.7687 41.0155 41.1675 40.4793 41.1675 39.8743V30.0155C41.1675 29.2593 40.5488 28.6405 39.7925 28.6405C39.0363 28.6405 38.4175 29.2593 38.4175 30.0155V35.2818L34.4712 29.2593C34.3107 29.0107 34.0736 28.8212 33.7957 28.7195C33.5178 28.6177 33.2143 28.6093 32.9313 28.6955C32.3538 28.8743 31.955 29.4105 31.955 30.0155V39.8743C31.955 40.6305 32.5737 41.2493 33.33 41.2493C34.0863 41.2493 34.705 40.6305 34.705 39.8743V34.608L38.6513 40.6305Z" fill="#979797"/>
</svg>
