<svg width="22" height="22" viewBox="0 0 22 22" fill="none" xmlns="http://www.w3.org/2000/svg">
<path d="M22 9.16667V12.8333C22 13.8446 21.1779 14.6667 20.1667 14.6667H19.668C18.9662 18.8217 15.3523 22 11 22C10.8055 22 10.619 21.9227 10.4815 21.7852C10.3439 21.6477 10.2667 21.4612 10.2667 21.2667C10.2667 21.0722 10.3439 20.8856 10.4815 20.7481C10.619 20.6106 10.8055 20.5333 11 20.5333C15.0436 20.5333 18.3333 17.2436 18.3333 13.2V8.8C18.3333 4.7564 15.0436 1.46667 11 1.46667C6.9564 1.46667 3.66667 4.7564 3.66667 8.8V13.9333C3.66667 14.1278 3.5894 14.3144 3.45188 14.4519C3.31435 14.5894 3.12783 14.6667 2.93333 14.6667H1.83333C1.34722 14.6663 0.881132 14.473 0.5374 14.1293C0.193667 13.7855 0.000388423 13.3194 0 12.8333V9.16667C0 8.1554 0.822067 7.33333 1.83333 7.33333H2.332C3.03453 3.17827 6.6484 0 11 0C15.3516 0 18.9662 3.17827 19.668 7.33333H20.1667C21.1779 7.33333 22 8.1554 22 9.16667ZM11 2.93333C7.76527 2.93333 5.13333 5.56527 5.13333 8.8V12.4667C5.13333 15.7014 7.76527 18.3333 11 18.3333C14.2347 18.3333 16.8667 15.7014 16.8667 12.4667V8.8C16.8667 5.56527 14.2347 2.93333 11 2.93333Z" fill="#25123C"/>
</svg>
