<svg width="45" height="45" viewBox="0 0 45 45" fill="none" xmlns="http://www.w3.org/2000/svg">
<path d="M38.0741 5.87C37.5371 5.49963 36.8334 5.44407 36.2408 5.72185L4.75929 20.5552C4.09262 20.87 3.68521 21.5367 3.70373 22.2589C3.70373 22.9811 4.14817 23.6478 4.81484 23.9256L11.0371 26.6478L29.6297 14.8144L16.6667 29.6293V40.7404L26.7778 33.5181L34.4445 36.87C34.6852 36.9811 34.926 37.0181 35.1852 37.0181C35.5185 37.0181 35.8519 36.9256 36.1482 36.7404C36.4042 36.5872 36.619 36.3739 36.7739 36.119C36.9288 35.8641 37.0191 35.5752 37.0371 35.2774L38.8889 7.49963C38.926 6.85148 38.6297 6.22185 38.0926 5.85148L38.0741 5.87Z" fill="white"/>
</svg>
