<svg width="19" height="16" viewBox="0 0 19 16" fill="none" xmlns="http://www.w3.org/2000/svg">
<path fill-rule="evenodd" clip-rule="evenodd" d="M18.3067 0H0.69331C0.311968 0 0 0.355325 0 0.78962V10.6769H19V0.789664C19 0.355368 18.688 0 18.3067 0ZM9.70626 6.67456L8.13803 7.7058V3.58091L9.70626 4.61215L11.2745 5.64336L9.70626 6.67456ZM0 13.0665C0 13.5008 0.311968 13.8561 0.69331 13.8561H3.15362L2.56186 15.5262C2.53322 15.6115 2.53518 15.7063 2.56732 15.79C2.59945 15.8737 2.65919 15.9397 2.73365 15.9737C2.80811 16.0077 2.89132 16.007 2.96533 15.9717C3.03933 15.9365 3.09821 15.8695 3.12926 15.7853L3.81284 13.8561H15.1871L15.8707 15.7853C15.9015 15.8699 15.9604 15.9372 16.0345 15.9728C16.1087 16.0083 16.1921 16.0091 16.2668 15.975C16.3415 15.9409 16.4013 15.8747 16.4334 15.7907C16.4655 15.7066 16.4672 15.6116 16.4381 15.5262L15.8464 13.8561H18.3067C18.688 13.8561 19 13.5008 19 13.0665V11.375H0V13.0665ZM7.04059 12.0682H11.9595C12.0407 12.0682 12.1187 12.105 12.1761 12.1704C12.2336 12.2359 12.2659 12.3247 12.2659 12.4173C12.2659 12.5098 12.2336 12.5986 12.1761 12.6641C12.1187 12.7295 12.0407 12.7663 11.9595 12.7663H7.04059C6.95931 12.7663 6.88136 12.7295 6.82389 12.6641C6.76642 12.5986 6.73413 12.5098 6.73413 12.4173C6.73413 12.3247 6.76642 12.2359 6.82389 12.1704C6.88136 12.105 6.95931 12.0682 7.04059 12.0682Z" fill="white"/>
</svg>
