<svg width="16" height="12" viewBox="0 0 16 12" fill="none" xmlns="http://www.w3.org/2000/svg">
<path d="M16 8.33948C16 7.61173 15.7926 6.90306 15.4003 6.29007C14.9571 5.59762 14.3168 5.08151 13.5773 4.7947C14.1441 4.29183 14.5019 3.55846 14.5019 2.743C14.5019 1.23049 13.2714 0 11.7589 0C10.3555 0 9.19504 1.05945 9.03495 2.42055C8.71285 2.26969 8.36148 2.19161 8.0058 2.19187C7.64602 2.19155 7.29069 2.27137 6.96562 2.42554C6.80775 1.06205 5.64621 0 4.2411 0C2.7286 0 1.4981 1.23049 1.4981 2.743C1.4981 3.55846 1.85594 4.29183 2.42265 4.7947C1.68317 5.08148 1.04286 5.59758 0.599687 6.29007C0.207751 6.90173 -0.000385615 7.61303 5.36339e-07 8.33948V10.1919H4.27169V11.1754H11.74V10.1919H16V8.33948ZM11.7589 0.941208C12.7524 0.941208 13.5607 1.74949 13.5607 2.74303C13.5607 3.68364 12.8361 4.45776 11.9159 4.5376H11.6019C11.064 4.49092 10.5933 4.20706 10.2947 3.79125C10.1994 3.65264 10.13 3.52449 10.0437 3.29453C9.98625 3.11634 9.95701 2.93026 9.95708 2.74303C9.95708 1.74946 10.7654 0.941208 11.7589 0.941208ZM9.19868 3.72737C9.32364 3.90359 9.38773 4.05311 9.44157 4.2091C9.48167 4.34557 9.50204 4.48709 9.50206 4.62933C9.50206 5.4544 8.83081 6.12562 8.00577 6.12562C7.18074 6.12562 6.50949 5.45437 6.50949 4.62933C6.50949 4.47024 6.53468 4.31699 6.58089 4.17305C6.64295 3.99037 6.69101 3.89826 6.78764 3.76207C7.0592 3.38171 7.50387 3.13305 8.00577 3.13305C8.49233 3.13308 8.92524 3.36662 9.19868 3.72737ZM4.2411 0.941208C5.2346 0.941208 6.04292 1.74949 6.04292 2.74303C6.04296 2.94385 6.00926 3.14326 5.94325 3.33293C5.86356 3.48499 5.82196 3.6059 5.73139 3.75454C5.4346 4.19043 4.95178 4.48957 4.39812 4.5376H4.08417C3.16392 4.45776 2.43934 3.68364 2.43934 2.74303C2.43928 1.74946 3.24756 0.941208 4.2411 0.941208ZM4.28182 9.25073H0.941177V8.33948C0.940892 7.79287 1.0975 7.25766 1.39241 6.79743C1.92085 5.97173 2.82162 5.47878 3.80191 5.47878C4.04351 5.4795 4.30864 5.48856 4.54902 5.47878V5.46864C4.92577 5.42644 5.28956 5.30603 5.6171 5.11514C5.71969 5.62036 5.97929 6.06893 6.34221 6.40847C5.71812 6.66613 5.17826 7.11084 4.80072 7.7008C4.50231 8.16662 4.32403 8.69914 4.28182 9.25073ZM10.7988 10.2342H5.21286V9.50874C5.21261 9.04771 5.3447 8.5963 5.59344 8.20813C6.03915 7.51172 6.79884 7.09594 7.62566 7.09594H8.38595C9.21277 7.09594 9.97249 7.51172 10.4182 8.20813C10.6669 8.5963 10.799 9.04771 10.7988 9.50874V10.2342ZM15.0588 9.25073H11.7298C11.6876 8.69915 11.5093 8.16662 11.2109 7.7008C10.8333 7.11084 10.2935 6.66616 9.66943 6.40847C10.0309 6.07031 10.2899 5.624 10.3933 5.12132C10.7182 5.30867 11.0783 5.42691 11.451 5.46864V5.47878C11.691 5.48856 11.9569 5.4795 12.1981 5.47878C13.1784 5.47878 14.0792 5.97173 14.6076 6.79743C14.9025 7.25767 15.0591 7.79287 15.0588 8.33948V9.25073Z" fill="black"/>
</svg>
