<svg width="46" height="14" viewBox="0 0 46 14" fill="none" xmlns="http://www.w3.org/2000/svg">
<path d="M18.1168 0.232422L15.8172 13.7273H19.4951L21.7966 0.232422H18.1168ZM12.7334 0.247558L9.13128 9.45069L8.74722 8.06109C8.03681 6.38676 6.02005 3.98216 3.65234 2.46675L6.94614 13.7207L10.8378 13.7141L16.6298 0.24472L12.7334 0.247558Z" fill="white"/>
<path d="M7.35191 1.21271C7.13813 0.390676 6.51853 0.145675 5.74947 0.116351H0.0472974L0 0.385001C4.43744 1.46149 7.37367 4.05528 8.59205 7.17407L7.35191 1.21271ZM29.2516 2.81893C30.1951 2.79792 31.1326 2.97382 32.0043 3.33541L32.3363 3.49149L32.8339 0.566622C32.1055 0.293243 30.9637 0 29.5391 0C25.9048 0 23.3432 1.83041 23.3233 4.45352C23.2997 6.39177 25.148 7.47394 26.5443 8.12002C27.9774 8.78218 28.4579 9.20313 28.4513 9.79435C28.4399 10.6977 27.3086 11.1121 26.252 11.1121C24.7791 11.1121 23.9968 10.9087 22.7888 10.4054L22.3149 10.1898L21.7975 13.2102C22.6583 13.5876 24.2465 13.9121 25.8953 13.9291C29.7614 13.9291 32.2739 12.1204 32.3004 9.31759C32.3164 7.78421 31.3355 6.61407 29.2099 5.65393C27.9234 5.02771 27.1364 4.6115 27.144 3.9796C27.144 3.41866 27.8118 2.81893 29.2516 2.81893ZM42.2725 0.246892H39.4309C38.5483 0.246892 37.8918 0.487163 37.504 1.36689L32.0431 13.7342H35.9054C35.9054 13.7342 36.5354 12.0712 36.6782 11.7071L41.3881 11.7127C41.4978 12.1838 41.8365 13.7342 41.8365 13.7342H45.2485L42.2725 0.246892ZM37.7367 8.94489C38.0394 8.17015 39.202 5.17339 39.202 5.17339C39.1821 5.21028 39.5019 4.39298 39.692 3.88501L39.9398 5.04853L40.7921 8.94489H37.7367Z" fill="white"/>
</svg>
