<svg width="63" height="63" viewBox="0 0 63 63" fill="none" xmlns="http://www.w3.org/2000/svg">
<path d="M31.019 62.0379C48.1503 62.0379 62.0379 48.1503 62.0379 31.019C62.0379 13.8877 48.1503 0 31.019 0C13.8877 0 0 13.8877 0 31.019C0 48.1503 13.8877 62.0379 31.019 62.0379Z" fill="#12C64B"/>
<path d="M42.2236 42.4843C41.9779 42.9042 41.5756 43.2094 41.1051 43.333C40.6346 43.4566 40.1342 43.3884 39.7139 43.1434C34.8883 40.3235 29.3155 39.8723 25.4875 39.971C23.0009 40.0347 20.528 40.3608 18.1099 40.9439C17.6597 41.0236 17.196 40.9325 16.8094 40.6884C16.4228 40.4443 16.1412 40.0649 16.0195 39.6242C15.8979 39.1834 15.945 38.7132 16.1517 38.3054C16.3584 37.8976 16.7097 37.5815 17.137 37.419C19.801 36.7569 22.5285 36.3834 25.2725 36.3052C27.8984 36.2082 30.5272 36.3985 33.1118 36.8727C36.0873 37.4113 38.9486 38.4556 41.5715 39.9605C41.7811 40.0824 41.9643 40.2447 42.1108 40.4379C42.2572 40.6311 42.3638 40.8515 42.4244 41.0862C42.4851 41.321 42.4985 41.5654 42.4641 41.8054C42.4296 42.0454 42.3479 42.2761 42.2236 42.4843ZM45.6357 35.3957C45.4444 35.7243 45.1701 35.9968 44.8404 36.1861C44.5107 36.3754 44.1371 36.4748 43.7569 36.4744C43.3712 36.475 42.9925 36.3714 42.6607 36.1747C36.9469 32.8367 30.3483 32.2974 25.8118 32.4384C22.8665 32.5128 19.9374 32.8992 17.0736 33.591C16.5258 33.72 15.9493 33.6315 15.4653 33.3443C14.9813 33.0571 14.6275 32.5934 14.4783 32.0507C14.329 31.5081 14.3959 30.9287 14.665 30.4344C14.934 29.94 15.3842 29.5692 15.9209 29.3999C19.0769 28.6189 22.308 28.1816 25.558 28.0957C28.6694 27.976 31.7844 28.2018 34.846 28.769C38.3675 29.4074 41.7535 30.6449 44.8567 32.4278C45.3525 32.719 45.7129 33.1948 45.8588 33.751C46.0048 34.3072 45.9246 34.8985 45.6357 35.3957ZM50.0524 27.6304C49.8761 27.9332 49.6417 28.1982 49.3627 28.4102C49.0837 28.6222 48.7656 28.777 48.4266 28.8658C48.0877 28.9546 47.7345 28.9755 47.3874 28.9274C47.0404 28.8794 46.7062 28.7632 46.4041 28.5857C32.8192 20.6476 15.1983 25.3675 15.0327 25.4133C14.6902 25.5218 14.3294 25.56 13.9719 25.5256C13.6143 25.4913 13.2674 25.3851 12.9518 25.2135C12.6363 25.0418 12.3586 24.8082 12.1356 24.5267C11.9125 24.2451 11.7485 23.9215 11.6536 23.575C11.5586 23.2286 11.5345 22.8666 11.5828 22.5106C11.6312 22.1547 11.7508 21.8122 11.9347 21.5036C12.1186 21.195 12.3629 20.9267 12.6529 20.7149C12.943 20.503 13.2728 20.3518 13.6227 20.2705C17.4845 19.3187 21.4375 18.7857 25.4135 18.6808C29.2285 18.5386 33.0476 18.8152 36.8023 19.5056C41.1204 20.282 45.2738 21.7913 49.083 23.9681C49.3882 24.1439 49.6555 24.3784 49.8696 24.658C50.0837 24.9377 50.2403 25.2569 50.3304 25.5974C50.4205 25.9378 50.4424 26.2928 50.3946 26.6417C50.3469 26.9906 50.2306 27.3267 50.0524 27.6304Z" fill="white"/>
</svg>
