<svg width="20" height="17" viewBox="0 0 20 17" fill="none" xmlns="http://www.w3.org/2000/svg">
<path d="M19.6375 5.76704C19.1491 6.25553 18.3558 6.25553 17.8673 5.76704C13.5217 1.42149 6.47583 1.42149 2.13028 5.76704C1.6418 6.25162 0.848498 6.25162 0.360014 5.75923C-0.120654 5.27074 -0.120654 4.48526 0.363922 3.99678C5.67863 -1.32574 14.3033 -1.33356 19.6258 3.98115L19.6414 3.99678C20.1221 4.48526 20.1182 5.27465 19.6375 5.76704ZM4.23271 7.86948C3.74423 8.35796 3.74423 9.15126 4.23271 9.63974C4.7212 10.1282 5.51449 10.1282 6.00298 9.63974C8.20702 7.4357 11.7944 7.4357 14.0024 9.63974C14.4909 10.1282 15.2842 10.1282 15.7727 9.63974C16.2611 9.15126 16.2611 8.35796 15.7727 7.86948C12.5877 4.68847 7.41372 4.68847 4.23271 7.86948ZM11.896 11.7383C12.9434 12.7856 12.9434 14.4855 11.896 15.5328C10.8487 16.5801 9.14881 16.5801 8.10151 15.5328C7.0542 14.4855 7.0542 12.7856 8.10151 11.7383C9.13709 10.691 10.8214 10.6792 11.8687 11.7148C11.8804 11.7226 11.8882 11.7305 11.896 11.7383Z" fill="white"/>
</svg>
