<svg width="63" height="63" viewBox="0 0 63 63" fill="none" xmlns="http://www.w3.org/2000/svg">
<path d="M31.2013 62.0379C48.4332 62.0379 62.4025 48.1503 62.4025 31.019C62.4025 13.8877 48.4332 0 31.2013 0C13.9693 0 0 13.8877 0 31.019C0 48.1503 13.9693 62.0379 31.2013 62.0379Z" fill="#FF0000"/>
<path d="M49.6286 21.7823C49.185 20.1013 47.8717 18.7822 46.2024 18.3328C43.1789 17.5156 31.0617 17.5156 31.0617 17.5156C31.0617 17.5156 18.9387 17.5156 15.9211 18.3328C14.2518 18.7822 12.9385 20.1013 12.4949 21.7823C11.6777 24.8233 11.6777 31.1738 11.6777 31.1738C11.6777 31.1738 11.6777 37.5243 12.489 40.5652C12.9326 42.2463 14.2459 43.5654 15.9152 44.0148C18.9387 44.832 31.0559 44.832 31.0559 44.832C31.0559 44.832 43.1789 44.832 46.1965 44.0148C47.8659 43.5654 49.1791 42.2463 49.6227 40.5652C50.4341 37.5243 50.4341 31.1738 50.4341 31.1738C50.4341 31.1738 50.4341 24.8233 49.6286 21.7823ZM27.0927 36.9347V25.4128L37.2195 31.1738L27.0927 36.9347Z" fill="white"/>
</svg>
